<svg id="Layer_1" data-name="Layer 1" xmlns="http://www.w3.org/2000/svg" viewBox="0 0 599 599"><defs><style>.cls-1{fill:#9b9fa8;}</style></defs><path class="cls-1" d="M6.5,396.5a32.61,32.61,0,0,0,32.31,32.31H273.69V663.69A32.62,32.62,0,0,0,306,696c17.79,0,32.67-14.89,32.67-32.31V428.81H573.19A32.62,32.62,0,0,0,605.5,396.5c0-17.79-14.89-32.67-32.31-32.67H338.67V129.31C338.67,111.88,323.79,97,306,97a32.61,32.61,0,0,0-32.31,32.31V363.83H38.81C21.38,363.83,6.5,378.71,6.5,396.5Z" transform="translate(-6.5 -97)"/></svg>