<svg id="Layer_1" data-name="Layer 1" xmlns="http://www.w3.org/2000/svg" viewBox="0 0 603.91 599"><defs><style>.cls-1{fill:#bcdb90;}</style></defs><path class="cls-1" d="M232.57,696c15.07,0,27-6.66,35.4-19.63L599.19,154.83C605.5,144.67,608,137,608,128.9c0-19.28-12.62-31.9-31.89-31.9-14,0-21.73,4.56-30.15,17.88L231.17,616.44,67.84,402.63c-8.77-12.26-17.53-17.17-30.15-17.17-20,0-33.64,13.67-33.64,33,0,8.06,3.5,17.17,10.16,25.58L196.12,675.67C206.63,689.34,217.5,696,232.57,696Z" transform="translate(-4.05 -97)"/></svg>