<svg width="20" height="21" viewBox="0 0 20 21" fill="none" xmlns="http://www.w3.org/2000/svg">
<path d="M0.191406 10.5391C0.191406 10.9062 0.320312 11.2188 0.578125 11.4766C0.835938 11.7266 1.14453 11.8516 1.50391 11.8516H8.6875V19.0469C8.6875 19.3984 8.81641 19.7031 9.07422 19.9609C9.33203 20.2188 9.64062 20.3477 10 20.3477C10.3672 20.3477 10.6797 20.2188 10.9375 19.9609C11.1953 19.7031 11.3242 19.3984 11.3242 19.0469V11.8516H18.4961C18.8555 11.8516 19.1641 11.7266 19.4219 11.4766C19.6797 11.2188 19.8086 10.9062 19.8086 10.5391C19.8086 10.1797 19.6797 9.87109 19.4219 9.61328C19.1641 9.34766 18.8555 9.21484 18.4961 9.21484H11.3242V2.04297C11.3242 1.68359 11.1953 1.375 10.9375 1.11719C10.6797 0.859375 10.3672 0.730469 10 0.730469C9.64062 0.730469 9.33203 0.859375 9.07422 1.11719C8.81641 1.375 8.6875 1.68359 8.6875 2.04297V9.21484H1.50391C1.14453 9.21484 0.835938 9.34766 0.578125 9.61328C0.320312 9.87109 0.191406 10.1797 0.191406 10.5391Z" fill="white"/>
</svg>
