<svg id="Layer_1" data-name="Layer 1" xmlns="http://www.w3.org/2000/svg" xmlns:xlink="http://www.w3.org/1999/xlink" viewBox="0 0 584.17 584.56"><defs><style>.cls-1{fill:url(#linear-gradient);}.cls-2{fill:#bbe4fd;fill-opacity:0.35;}.cls-2,.cls-3,.cls-4{fill-rule:evenodd;}.cls-3{fill:#67d5b1;}.cls-3,.cls-4{fill-opacity:0.8;}.cls-4{fill:#fcfcfc;}.cls-5{fill:#ff4235;}.cls-5,.cls-6{fill-opacity:0.6;}.cls-6{fill:#8c4514;}</style><linearGradient id="linear-gradient" x1="164.68" y1="548.84" x2="459.42" y2="-3.79" gradientTransform="matrix(1, 0, 0, -1, -7.39, 588.18)" gradientUnits="userSpaceOnUse"><stop offset="0" stop-color="#bbe4fd"/><stop offset="1" stop-color="#8ed3fd"/></linearGradient></defs><circle class="cls-1" cx="292.08" cy="292.08" r="292.08"/><path class="cls-2" d="M241.06,514.59c161.31,0,292.08-130.77,292.08-292.08A290.84,290.84,0,0,0,502.55,92.23a291.2,291.2,0,0,1,89,209.94c0,161.31-130.77,292.08-292.08,292.08C185,594.25,85.87,528.37,38,432.44A291.08,291.08,0,0,0,241.06,514.59Z" transform="translate(-7.39 -9.69)"/><path class="cls-3" d="M553.33,446.74a290.75,290.75,0,0,0,38.23-144.57q0-10.41-.72-20.65-.27-1.9-.66-3.78a21.13,21.13,0,0,1-.25-6.64,290.09,290.09,0,0,0-34.47-109.7c-19.12,6.94-32.94,26.92-32.94,50.49A25,25,0,0,1,509,233.52c-20.19,10-34.23,32.24-34.23,58,0,26.23,14.51,48.75,35.26,58.53,7.63,3.6,13.23,11.49,12.72,19.9-.12,2.16-.19,4.34-.19,6.54C522.52,406.89,535,433.3,553.33,446.74Z" transform="translate(-7.39 -9.69)"/><path class="cls-3" d="M34.08,424.31a292.77,292.77,0,0,1,2.26-249.07,74.37,74.37,0,0,1,45.4,68.51c0,1.33,0,2.65-.1,4A40.69,40.69,0,0,0,93.4,278.63,85,85,0,0,1,34.08,424.31Z" transform="translate(-7.39 -9.69)"/><path class="cls-4" d="M447.6,50.38a91.74,91.74,0,0,1-71.12,34.05A90.81,90.81,0,0,1,322,66.29a12.43,12.43,0,0,0-17.46,3C287.8,94.47,259.67,111,227.78,111,190.3,111,158,88.16,143.31,55.3A292.32,292.32,0,0,1,447.6,50.38Z" transform="translate(-7.39 -9.69)"/><path class="cls-4" d="M453.59,550.33a292.58,292.58,0,0,1-273.82,18.34,69.82,69.82,0,0,1,56-27.53,70.6,70.6,0,0,1,42.07,13.74c7.23,5.36,21.92,2.67,27-4.76,14.5-21.19,42.34-35.53,74.31-35.53S439.12,529,453.59,550.33Z" transform="translate(-7.39 -9.69)"/><ellipse class="cls-5" cx="184.07" cy="325.8" rx="31.79" ry="19.87"/><ellipse class="cls-5" cx="404.83" cy="325.8" rx="31.79" ry="19.87"/><path class="cls-6" d="M254.23,356.65a11.58,11.58,0,0,1,7.24-13.28c28.44-10.55,47.95-14.66,76.92-16.39a11.54,11.54,0,0,1,11.93,9.19h0a12.07,12.07,0,0,1-11.63,14.42c-25.3.65-43.57,4.47-68,14.52a12.05,12.05,0,0,1-16.45-8.46Z" transform="translate(-7.39 -9.69)"/><circle class="cls-6" cx="199.07" cy="277.25" r="14.74"/><path class="cls-6" d="M192.19,240.73l46.8,27a9.81,9.81,0,0,1,3.59,13.42h0a9.81,9.81,0,0,1-13.42,3.59l-46.79-27a9.83,9.83,0,0,1-3.6-13.42h0A9.83,9.83,0,0,1,192.19,240.73Z" transform="translate(-7.39 -9.69)"/><circle class="cls-6" cx="384.34" cy="277.25" r="14.74"/><path class="cls-6" d="M406,240.73l-46.79,27a9.83,9.83,0,0,0-3.6,13.42h0A9.81,9.81,0,0,0,369,284.76l46.8-27a9.81,9.81,0,0,0,3.59-13.42h0A9.83,9.83,0,0,0,406,240.73Z" transform="translate(-7.39 -9.69)"/></svg>