<?xml version="1.0" encoding="utf-8"?>
<!-- Generator: Adobe Illustrator 26.0.1, SVG Export Plug-In . SVG Version: 6.00 Build 0)  -->
<svg version="1.1" id="Layer_1" xmlns="http://www.w3.org/2000/svg" xmlns:xlink="http://www.w3.org/1999/xlink" x="0px" y="0px"
	 viewBox="0 0 578.8 574.3" style="enable-background:new 0 0 578.8 574.3;" xml:space="preserve">
<style type="text/css">
	.st0{fill:#EFCB9C;}
	.st1{fill:#FFFFFF;}
	.st2{fill:#666C79;}
	.st3{fill:#F2BE7E;}
	.st4{fill-opacity:0;stroke:#666C79;stroke-width:23.43;stroke-linecap:round;stroke-miterlimit:10;}
</style>
<g>
	<circle class="st0" cx="289.4" cy="287.1" r="281.7"/>
	<g>
		<path class="st1" d="M269.4,202.5c2.6,31.7-20.9,59.5-52.6,62.1s-59.5-20.9-62.1-52.6s20.9-59.5,52.6-62.1l0,0
			C238.9,147.3,266.7,170.8,269.4,202.5z"/>
		<path class="st2" d="M249.2,208.7c1.3,15.4-10.1,29-25.5,30.3s-29-10.1-30.3-25.5s10.1-29,25.5-30.3h0.1
			C234.3,181.9,247.8,193.3,249.2,208.7C249.2,208.6,249.2,208.7,249.2,208.7z"/>
		<path class="st1" d="M315.3,212.2c2.7,31.7,30.6,55.2,62.3,52.5c31.7-2.7,55.2-30.6,52.5-62.3s-30.5-55.1-62.2-52.5
			C336.2,152.6,312.7,180.4,315.3,212.2C315.3,212.1,315.3,212.1,315.3,212.2z"/>
		<path class="st2" d="M332.9,209.9c1.3,15.4,14.8,26.8,30.1,25.5c15.4-1.3,26.8-14.8,25.5-30.1c-1.3-15.4-14.8-26.8-30.1-25.5l0,0
			C343,181.1,331.6,194.6,332.9,209.9z"/>
		<path class="st3" d="M206.8,322.7c0.2,7.2-25.8,13.6-57.9,14.3s-58.3-4.6-58.5-11.8s25.8-13.6,57.9-14.3S206.7,315.3,206.8,322.7z
			"/>
		<path class="st3" d="M488.4,322.6c0.1,7.2-25.8,13.6-57.9,14.3s-58.3-4.7-58.5-11.9s25.8-13.6,57.9-14.3S488.3,315.4,488.4,322.6z
			"/>
		<path class="st4" d="M336.9,333.9c-0.1,41-21.8,60.3-48.5,60.3s-48.3-19.4-48.2-60.6"/>
	</g>
</g>
</svg>
