<svg id="Layer_1" data-name="Layer 1" xmlns="http://www.w3.org/2000/svg" viewBox="0 0 1273.17 1273.17"><defs><style>.cls-1{fill:#0f2046;}</style></defs><path class="cls-1" d="M653.42,1290c348.25,0,636.59-289,636.59-636.58,0-348.25-289-636.58-637.21-636.58-347.63,0-636,288.33-636,636.58C16.83,1001.05,305.79,1290,653.42,1290Zm0-106.09c-294.58,0-529.86-235.91-529.86-530.49S358.22,122.93,652.8,122.93s530.48,235.91,531.11,530.49S948,1183.91,653.42,1183.91ZM332.63,652.8c0,13.73,6.24,25,17.48,36.2L561.05,900.56a45.17,45.17,0,0,0,32.46,13.11c25.58,0,44.93-20,44.93-45.56,0-13.73-5-25-13.73-33.07l-78-77.39-75.52-63L603.49,699H928.65c27.46,0,46.81-19.35,46.81-46.18,0-27.46-20-46.81-46.81-46.81H603.49l-131.68,5,74.89-63,78-77.39c8.12-8.74,13.73-20,13.73-33.7,0-25.59-19.35-44.94-44.93-44.94-13.11,0-24.35,4.37-32.46,12.48L350.11,616.6C337.62,629.08,332.63,639.07,332.63,652.8Z" transform="translate(-16.83 -16.84)"/></svg>