<svg id="Layer_1" data-name="Layer 1" xmlns="http://www.w3.org/2000/svg" viewBox="0 0 567.01 440.27"><defs><style>.cls-1{fill:#0f2046;}</style></defs><path class="cls-1" d="M81.07,523.88h422c48,0,72.49-24,72.49-71.57V210.59c0-47.56-24.47-71.33-72.49-71.33h-66c-18.24,0-23.78-3.7-34.17-15.24l-18.47-20.78c-11.54-12.7-23.31-19.62-47.1-19.62H245.22c-23.78,0-35.55,6.92-47.1,19.62L179.65,124c-10.39,11.31-16.16,15.24-34.17,15.24H81.07q-72.37,0-72.49,71.33V452.31C8.58,499.87,32.82,523.88,81.07,523.88Zm.46-37.17c-22.62,0-35.78-12.23-35.78-36.24V212.67c0-24,13.16-36.25,35.78-36.25h73.19c20.78,0,32.09-3.92,43.63-16.85l18-20.31c13.16-14.78,20.08-18.47,40.4-18.47h69c20.32,0,27.24,3.69,40.4,18.47l18,20.31c11.55,12.93,22.86,16.85,43.64,16.85h74.57c22.85,0,36,12.24,36,36.25v237.8c0,24-13.16,36.24-36,36.24Zm210.56-33.24c69.72,0,125.82-55.87,125.82-126.29,0-70.18-55.87-126-125.82-126A125.48,125.48,0,0,0,166,327.18C166,397.6,222.13,453.47,292.09,453.47ZM427.37,242.22a28.86,28.86,0,1,0,57.72,0c0-15.24-13.16-28.63-28.63-28.63C440.76,213.59,427.37,227,427.37,242.22ZM292.09,418.37a91.19,91.19,0,1,1,91-91.19A91.09,91.09,0,0,1,292.09,418.37Z" transform="translate(-8.58 -83.62)"/></svg>