<svg id="Layer_1" data-name="Layer 1" xmlns="http://www.w3.org/2000/svg" viewBox="0 0 494.03 463.77"><defs><style>.cls-1{fill:#9ca0a8;}</style></defs><path class="cls-1" d="M140.43,481.77c11,0,18.6-5.83,32.27-17.93L250,395h143.9c66.8,0,102.66-37,102.66-102.66V120.66C496.6,55,460.74,18,393.94,18H105.23C38.44,18,2.57,54.76,2.57,120.66v171.7C2.57,358.26,38.44,395,105.23,395H116V453.3C116,470.56,124.74,481.77,140.43,481.77Zm9.19-41v-65c0-12.11-4.71-16.81-16.82-16.81H105.23c-45.27,0-66.57-23.09-66.57-66.8V120.66C38.66,77,60,54.09,105.23,54.09H393.94c45.06,0,66.58,22.86,66.58,66.57V292.14c0,43.71-21.52,66.8-66.58,66.8H248.69c-12.55,0-18.83,1.79-27.35,10.53ZM140,238.57a32.06,32.06,0,1,0-32.06-32.06A32,32,0,0,0,140,238.57Zm109.83,0a32.06,32.06,0,1,0-32.28-32.06A32.2,32.2,0,0,0,249.81,238.57Zm109.61,0a32.06,32.06,0,1,0-32.05-32.06A32.06,32.06,0,0,0,359.42,238.57Z" transform="translate(-2.57 -18)"/></svg>