<svg width="27" height="25" viewBox="0 0 27 25" fill="none" xmlns="http://www.w3.org/2000/svg">
<path d="M7.99095 24.791C8.56517 24.791 8.9636 24.4863 9.67845 23.8535L13.7214 20.2559H21.2449C24.737 20.2559 26.612 18.3223 26.612 14.8887V5.91211C26.612 2.47852 24.737 0.544922 21.2449 0.544922H6.1511C2.65892 0.544922 0.783916 2.4668 0.783916 5.91211V14.8887C0.783916 18.334 2.65892 20.2559 6.1511 20.2559H6.7136V23.3027C6.7136 24.2051 7.17064 24.791 7.99095 24.791ZM8.47142 22.6465V19.248C8.47142 18.6152 8.22532 18.3691 7.59251 18.3691H6.1511C3.78392 18.3691 2.67064 17.1621 2.67064 14.877V5.91211C2.67064 3.62695 3.78392 2.43164 6.1511 2.43164H21.2449C23.6003 2.43164 24.7253 3.62695 24.7253 5.91211V14.877C24.7253 17.1621 23.6003 18.3691 21.2449 18.3691H13.6511C12.9949 18.3691 12.6667 18.4629 12.2214 18.9199L8.47142 22.6465ZM7.96751 12.0762C8.89329 12.0762 9.64329 11.3262 9.64329 10.4004C9.64329 9.47461 8.89329 8.72461 7.96751 8.72461C7.04173 8.72461 6.29173 9.47461 6.29173 10.4004C6.29173 11.3262 7.04173 12.0762 7.96751 12.0762ZM13.7097 12.0762C14.6238 12.0762 15.3855 11.3262 15.3855 10.4004C15.3855 9.47461 14.6238 8.72461 13.7097 8.72461C12.7839 8.72461 12.0222 9.47461 12.0222 10.4004C12.0222 11.3262 12.7839 12.0762 13.7097 12.0762ZM19.4402 12.0762C20.3659 12.0762 21.1159 11.3262 21.1159 10.4004C21.1159 9.47461 20.3659 8.72461 19.4402 8.72461C18.5144 8.72461 17.7644 9.47461 17.7644 10.4004C17.7644 11.3262 18.5144 12.0762 19.4402 12.0762Z" fill="#E8924F"/>
</svg>
