<svg width="101" height="81" viewBox="0 0 101 81" fill="none" xmlns="http://www.w3.org/2000/svg">
<path d="M23.7461 76.9688C25.6094 76.9688 26.875 76.3359 29.125 74.3672L40.9023 63.7852C43.4336 66.5625 47.2656 68.0742 52.1523 68.0742H64.2812L76.0234 78.1289C78.168 79.957 79.3281 80.9062 81.0156 80.9062C83.4414 80.9062 84.8125 79.1836 84.8125 76.5117V68.0742H86.2891C95.1133 68.0742 100.984 62.7305 100.984 53.5547V32.7773C100.984 23.5664 95.1133 18.2227 86.2891 18.2227H80.7695V15.5508C80.7695 6.02344 75.1094 0.46875 65.5469 0.46875H15.2383C6.0625 0.46875 0.015625 6.02344 0.015625 15.5508V47.9297C0.015625 57.4922 6.0625 63.0117 15.2383 63.0117H19.8789V72.6445C19.8789 75.3516 21.25 76.9688 23.7461 76.9688ZM25.1875 60.6562C25.1875 58.6523 23.9922 57.7383 22.4453 57.7383H15.5898C9.36719 57.7383 5.67578 54.3281 5.67578 47.7891V15.7617C5.67578 9.22266 9.36719 5.77734 15.5898 5.77734H65.1953C71.418 5.77734 75.1094 9.22266 75.1094 15.7617V18.2227H52.1523C42.9414 18.2227 37.4922 23.5664 37.4922 32.7773V53.5547C37.4922 55.4531 37.7031 57.1758 38.1602 58.7227L25.1875 70.7109V60.6562ZM79.5391 74.543L68.2539 64.418C66.8477 63.1875 66.0039 62.7656 64.0703 62.7656H52.5039C46.6328 62.7656 43.1172 59.6016 43.1172 53.3789L43.1523 32.9531C43.1523 26.7656 46.6328 23.5312 52.5039 23.5312H85.9727C91.8086 23.5312 95.3242 26.7656 95.3242 32.9531V53.3789C95.3242 59.6016 91.8086 62.7656 85.9727 62.7656H82.2461C80.7344 62.7656 79.5391 63.6797 79.5391 65.6484V74.543Z" fill="#FCEEB5"/>
</svg>
