<svg id="Layer_1" data-name="Layer 1" xmlns="http://www.w3.org/2000/svg" viewBox="0 0 1467.46 1042.94"><defs><style>.cls-1{fill:#daf3e3;}.cls-2{fill:#fff;}.cls-3{fill:#666c79;}.cls-11,.cls-4,.cls-6{fill-opacity:0;stroke:#666c79;stroke-miterlimit:10;}.cls-4{stroke-width:9.94px;}.cls-5{fill:#c5ebd5;}.cls-11,.cls-6{stroke-linecap:round;}.cls-6{stroke-width:23.43px;}.cls-7{fill:#bbf2e7;}.cls-8{fill:#87e9d6;}.cls-9{fill:#efcb9c;}.cls-10{fill:#f2be7e;}.cls-11{stroke-width:23.43px;}.cls-12{fill:#dde2e8;}</style></defs><circle class="cls-1" cx="1028.28" cy="418.06" r="281.7"/><path class="cls-2" d="M1176.48,482.67a57.6,57.6,0,1,1-57.6-57.6A57.61,57.61,0,0,1,1176.48,482.67Z" transform="translate(-184.34 -140.92)"/><path class="cls-3" d="M1161.77,509.71a27.9,27.9,0,1,1-27.9-27.9A27.91,27.91,0,0,1,1161.77,509.71Z" transform="translate(-184.34 -140.92)"/><path class="cls-4" d="M1161.77,509.71a27.9,27.9,0,1,1-27.9-27.9A27.91,27.91,0,0,1,1161.77,509.71Z" transform="translate(-184.34 -140.92)"/><path class="cls-2" d="M1307.83,482.67a57.6,57.6,0,1,0,57.6-57.6A57.61,57.61,0,0,0,1307.83,482.67Z" transform="translate(-184.34 -140.92)"/><path class="cls-3" d="M1322.54,509.71a27.9,27.9,0,1,0,27.9-27.9A27.91,27.91,0,0,0,1322.54,509.71Z" transform="translate(-184.34 -140.92)"/><path class="cls-4" d="M1322.54,509.71a27.9,27.9,0,1,0,27.9-27.9A27.91,27.91,0,0,0,1322.54,509.71Z" transform="translate(-184.34 -140.92)"/><path class="cls-5" d="M1155.12,584c0,7.2-26.1,13.1-58.2,13.1s-58.2-5.9-58.2-13.1,26.1-13.1,58.2-13.1S1155.12,576.82,1155.12,584Z" transform="translate(-184.34 -140.92)"/><path class="cls-5" d="M1445.59,584c0,7.2-26.1,13.1-58.2,13.1s-58.2-5.9-58.2-13.1,26.1-13.1,58.2-13.1S1445.59,576.82,1445.59,584Z" transform="translate(-184.34 -140.92)"/><path class="cls-6" d="M1194.23,588.44h96.7" transform="translate(-184.34 -140.92)"/><path class="cls-7" d="M918.08,860.68a301.7,301.7,0,1,1,213.33-88.36A299.75,299.75,0,0,1,918.08,860.68Z" transform="translate(-184.34 -140.92)"/><path class="cls-2" d="M918.08,277.28c155.57,0,281.7,126.12,281.7,281.7s-126.13,281.7-281.7,281.7S636.38,714.56,636.38,559s126.12-281.7,281.7-281.7m0-40a320.8,320.8,0,1,0,125.23,25.3,319.67,319.67,0,0,0-125.23-25.3Z" transform="translate(-184.34 -140.92)"/><path class="cls-2" d="M845.12,504.11a57.6,57.6,0,1,1-57.6-57.6A57.61,57.61,0,0,1,845.12,504.11Z" transform="translate(-184.34 -140.92)"/><path class="cls-3" d="M830.42,531.14a27.9,27.9,0,1,1-27.9-27.9A27.91,27.91,0,0,1,830.42,531.14Z" transform="translate(-184.34 -140.92)"/><path class="cls-4" d="M830.42,531.14a27.9,27.9,0,1,1-27.9-27.9A27.91,27.91,0,0,1,830.42,531.14Z" transform="translate(-184.34 -140.92)"/><path class="cls-3" d="M703.9,489.43a92,92,0,0,0,24.3-6,102.78,102.78,0,0,0,21.7-11.6,106,106,0,0,0,32.9-36.9,95.18,95.18,0,0,0,9.4-26,10.88,10.88,0,0,0-1-7.7,10.38,10.38,0,0,0-5.9-4.6,9.93,9.93,0,0,0-7.7,1,9.7,9.7,0,0,0-4.6,5.9,89.39,89.39,0,0,1-5.1,16.7c.3-.8.7-1.6,1-2.4a92.15,92.15,0,0,1-12.1,20.5c.5-.7,1-1.3,1.6-2a90.15,90.15,0,0,1-17.4,17.5c.7-.5,1.3-1,2-1.6a95.73,95.73,0,0,1-21.2,12.4c.8-.3,1.6-.7,2.4-1a87.85,87.85,0,0,1-21.9,6,20.24,20.24,0,0,0,2.6-.4c-.4,0-.7.1-1.1.1-2.7.3-5,.9-7,2.9a10.27,10.27,0,0,0-2.9,7,10.09,10.09,0,0,0,2.9,7C698.7,488.13,701.3,489.73,703.9,489.43Z" transform="translate(-184.34 -140.92)"/><path class="cls-2" d="M976.48,504.11a57.6,57.6,0,1,0,57.6-57.6A57.61,57.61,0,0,0,976.48,504.11Z" transform="translate(-184.34 -140.92)"/><path class="cls-3" d="M991.19,531.14a27.9,27.9,0,1,0,27.9-27.9A27.91,27.91,0,0,0,991.19,531.14Z" transform="translate(-184.34 -140.92)"/><path class="cls-4" d="M991.19,531.14a27.9,27.9,0,1,0,27.9-27.9A27.91,27.91,0,0,0,991.19,531.14Z" transform="translate(-184.34 -140.92)"/><path class="cls-3" d="M1118.76,469.52c-.4,0-.7-.1-1.1-.1a20.24,20.24,0,0,1,2.6.4,87.85,87.85,0,0,1-21.9-6c.8.3,1.6.7,2.4,1a102,102,0,0,1-21.1-12.5c.7.5,1.3,1,2,1.6a98.81,98.81,0,0,1-17.4-17.4c.5.7,1,1.3,1.6,2a96.14,96.14,0,0,1-12.1-20.5c.3.8.7,1.6,1,2.4a82.51,82.51,0,0,1-5.1-16.7,10.07,10.07,0,0,0-4.6-5.9,10.32,10.32,0,0,0-7.7-1,10.07,10.07,0,0,0-5.9,4.6,11.36,11.36,0,0,0-1,7.7c3.3,16.3,11.2,31.3,21.8,44.1a113.2,113.2,0,0,0,18.2,17.1,93,93,0,0,0,19.5,11.4,102,102,0,0,0,14,5.1,108.59,108.59,0,0,0,14.9,2.8c2.3.3,5.4-1.3,7-2.9a10.27,10.27,0,0,0,2.9-7,10.09,10.09,0,0,0-2.9-7c-.7-.5-1.3-1-2-1.6A8.79,8.79,0,0,0,1118.76,469.52Z" transform="translate(-184.34 -140.92)"/><path class="cls-8" d="M823.77,605.46c0,7.2-26.1,13.1-58.2,13.1s-58.2-5.9-58.2-13.1,26.1-13.1,58.2-13.1S823.77,598.26,823.77,605.46Z" transform="translate(-184.34 -140.92)"/><path class="cls-8" d="M1117.23,605.46c0,7.2-26.1,13.1-58.2,13.1s-58.2-5.9-58.2-13.1,26.1-13.1,58.2-13.1S1117.23,598.26,1117.23,605.46Z" transform="translate(-184.34 -140.92)"/><path class="cls-6" d="M862.1,669.85c7.2-38,22-60.4,48.7-60.4s38.5,19.4,48,60.4" transform="translate(-184.34 -140.92)"/><path class="cls-9" d="M623.52,860.68a301.68,301.68,0,1,1,213.34-88.36A299.73,299.73,0,0,1,623.52,860.68Z" transform="translate(-184.34 -140.92)"/><path class="cls-2" d="M623.52,277.28c155.58,0,281.7,126.12,281.7,281.7s-126.12,281.7-281.7,281.7S341.82,714.56,341.82,559,468,277.28,623.52,277.28m0-40a320.8,320.8,0,1,0,125.24,25.3,319.66,319.66,0,0,0-125.24-25.3Z" transform="translate(-184.34 -140.92)"/><path class="cls-2" d="M603.52,489.53a57.55,57.55,0,1,1-62.1-52.6h0A57.63,57.63,0,0,1,603.52,489.53Z" transform="translate(-184.34 -140.92)"/><path class="cls-3" d="M583.32,495.73a28,28,0,1,1-30.3-25.5h.1a28,28,0,0,1,30.2,25.5Z" transform="translate(-184.34 -140.92)"/><path class="cls-2" d="M649.42,499.23a57.61,57.61,0,1,0,52.6-62.3,57.61,57.61,0,0,0-52.6,62.3Z" transform="translate(-184.34 -140.92)"/><path class="cls-3" d="M667,496.93a27.89,27.89,0,1,0,25.5-30.1h0A27.89,27.89,0,0,0,667,496.93Z" transform="translate(-184.34 -140.92)"/><path class="cls-10" d="M540.92,609.73c.2,7.2-25.8,13.6-57.9,14.3s-58.3-4.6-58.5-11.8,25.8-13.6,57.9-14.3S540.82,602.33,540.92,609.73Z" transform="translate(-184.34 -140.92)"/><path class="cls-10" d="M822.52,609.63c.1,7.2-25.8,13.6-57.9,14.3s-58.3-4.7-58.5-11.9,25.8-13.6,57.9-14.3S822.42,602.43,822.52,609.63Z" transform="translate(-184.34 -140.92)"/><path class="cls-11" d="M671,620.93c-.1,41-21.8,60.3-48.5,60.3s-48.3-19.4-48.2-60.6" transform="translate(-184.34 -140.92)"/><path class="cls-12" d="M593.82,1183.86c32.63,0,55.27-13.1,95.88-40.32L919.41,988.78h427.46c198.41,0,304.94-83.17,304.94-230.87V371.79c0-147.7-106.53-230.87-304.94-230.87H489.29c-198.41,0-305,82.67-305,230.87V757.91c0,148.2,106.54,230.87,305,230.87h32v131.06C521.25,1158.66,547.22,1183.86,593.82,1183.86Zm6.84-62.29V965.31c0-29.09-14.94-40.41-53.37-40.41H459.75c-143.76,0-211.37-55.49-211.37-160.56V352.15c0-105.07,67.61-160,211.37-160h916.66c143,0,211.37,55,211.37,160V764.34c0,105.07-68.33,160.56-211.37,160.56H915.23c-39.85,0-59.78,4.31-86.83,25.33Z" transform="translate(-184.34 -140.92)"/></svg>