<svg width="218" height="79" viewBox="0 0 218 79" fill="none" xmlns="http://www.w3.org/2000/svg">
<path d="M40 75.321C60.3634 75.321 77 59.2016 77 39.1605C77 19.1193 60.3634 3 40 3C19.6366 3 3 19.1193 3 39.1605C3 59.2016 19.6366 75.321 40 75.321Z" fill="#B0D8D2" stroke="white" stroke-width="6"/>
<path d="M86 75.6423C106.363 75.6423 123 59.5229 123 39.4818C123 19.4406 106.363 3.32129 86 3.32129C65.6366 3.32129 49 19.4406 49 39.4818C49 59.5229 65.6366 75.6423 86 75.6423Z" fill="#B0D8D2" stroke="white" stroke-width="6"/>
<path d="M132 75.6423C152.363 75.6423 169 59.5229 169 39.4818C169 19.4406 152.363 3.32129 132 3.32129C111.637 3.32129 95 19.4406 95 39.4818C95 59.5229 111.637 75.6423 132 75.6423Z" fill="#B0D8D2" stroke="white" stroke-width="6"/>
<path d="M178 75.321C198.363 75.321 215 59.2016 215 39.1605C215 19.1193 198.363 3 178 3C157.637 3 141 19.1193 141 39.1605C141 59.2016 157.637 75.321 178 75.321Z" fill="#B0D8D2" stroke="white" stroke-width="6"/>
</svg>
