<svg id="Layer_1" data-name="Layer 1" xmlns="http://www.w3.org/2000/svg" viewBox="0 0 489.44 489.44"><defs><style>.cls-1{fill:#9b738f;}</style></defs><path class="cls-1" d="M249.7,494.44q50.15,0,94.29-19.19a251.32,251.32,0,0,0,131.24-131,235.69,235.69,0,0,0,19.19-94.53q0-50.15-19.19-94.29A250.74,250.74,0,0,0,344,24.19,235.69,235.69,0,0,0,249.46,5a235.69,235.69,0,0,0-94.53,19.19A249.77,249.77,0,0,0,24.17,155.43Q5,199.58,5,249.72a235.52,235.52,0,0,0,19.19,94.53,251.91,251.91,0,0,0,131,131A235.52,235.52,0,0,0,249.7,494.44Zm0-40.78q-42.46,0-79.42-15.84A203.05,203.05,0,0,1,61.6,329.14Q46,292.18,46,249.72t15.6-79.41a207.4,207.4,0,0,1,43.66-65A199.61,199.61,0,0,1,170,61.62q37-15.82,79.42-15.83t79.41,15.83a202.24,202.24,0,0,1,65,43.67,205.43,205.43,0,0,1,43.91,65q15.82,36.94,15.83,79.41T437.8,329.14A203.12,203.12,0,0,1,329.11,437.82Q292.17,453.66,249.7,453.66Zm-26.39-90.21q12.23,0,19.43-11L352.38,179.66a51.22,51.22,0,0,0,3.84-7.19,19,19,0,0,0,1.92-8.16,15.5,15.5,0,0,0-6-12.72,21,21,0,0,0-13.44-4.8q-10.08,0-16.8,10.8L222.35,317.38,175.08,256.2q-4.32-5.76-8.64-7.68a19.12,19.12,0,0,0-9.11-2.16,17.65,17.65,0,0,0-13.2,5.76,18.72,18.72,0,0,0-5.28,13.44q0,7.43,5.52,14.87l58.54,72a32,32,0,0,0,9.36,8.4A23.43,23.43,0,0,0,223.31,363.45Z" transform="translate(-4.98 -5)"/></svg>