<svg width="78" height="50" viewBox="0 0 78 50" fill="none" xmlns="http://www.w3.org/2000/svg">
<path d="M29.2644 5.41309C28.1159 6.56152 27.8933 8.15527 27.8933 10.0537V10.1709H29.78V9.9834C29.78 8.75293 29.9324 7.4873 30.6355 6.78418C31.3503 6.06934 32.6277 5.91699 33.8581 5.91699H34.0691V4.03027H33.9284C32.03 4.03027 30.4245 4.25293 29.2644 5.41309ZM35.6745 5.91699H41.7214V4.03027H35.6745V5.91699ZM48.1316 5.41309C46.9714 4.25293 45.3659 4.03027 43.4324 4.03027H43.3152V5.91699H43.573C44.78 5.91699 46.0456 6.08105 46.7488 6.78418C47.4636 7.49902 47.6159 8.74121 47.6159 9.94824V10.1709H49.5027V10.0889C49.5027 8.14355 49.28 6.5498 48.1316 5.41309ZM47.6159 17.7881H49.5027V11.7764H47.6159V17.7881ZM27.8933 17.7881H29.78V11.7764H27.8933V17.7881ZM48.1316 24.1514C49.28 23.0029 49.5027 21.4209 49.5027 19.4756V19.3936H47.6159V19.6045C47.6159 20.8232 47.4636 22.0654 46.7488 22.7803C46.0456 23.4834 44.78 23.6475 43.573 23.6475H43.3152V25.5342H43.4324C45.3659 25.5342 46.9714 25.3115 48.1316 24.1514ZM29.2644 24.1514C30.4245 25.3115 32.03 25.5342 33.9519 25.5342H34.0691V23.6475H33.823C32.6159 23.6475 31.3503 23.4834 30.6355 22.7803C29.9324 22.0654 29.78 20.8232 29.78 19.6045V19.3936H27.8933V19.4756C27.8933 21.4209 28.1159 23.0029 29.2644 24.1514ZM35.6745 25.5342H41.7214V23.6475H35.6745V25.5342Z" fill="#E8924F"/>
</svg>
