<svg width="23" height="22" viewBox="0 0 23 22" fill="none" xmlns="http://www.w3.org/2000/svg">
<path d="M2.26439 1.41309C1.11595 2.56152 0.893291 4.15527 0.893291 6.05371V6.1709H2.78001V5.9834C2.78001 4.75293 2.93235 3.4873 3.63548 2.78418C4.35032 2.06934 5.62767 1.91699 6.85814 1.91699H7.06907V0.0302734H6.92845C5.03001 0.0302734 3.42454 0.25293 2.26439 1.41309ZM8.67454 1.91699H14.7214V0.0302734H8.67454V1.91699ZM21.1316 1.41309C19.9714 0.25293 18.3659 0.0302734 16.4324 0.0302734H16.3152V1.91699H16.573C17.78 1.91699 19.0456 2.08105 19.7488 2.78418C20.4636 3.49902 20.6159 4.74121 20.6159 5.94824V6.1709H22.5027V6.08887C22.5027 4.14355 22.28 2.5498 21.1316 1.41309ZM20.6159 13.7881H22.5027V7.77637H20.6159V13.7881ZM0.893291 13.7881H2.78001V7.77637H0.893291V13.7881ZM21.1316 20.1514C22.28 19.0029 22.5027 17.4209 22.5027 15.4756V15.3936H20.6159V15.6045C20.6159 16.8232 20.4636 18.0654 19.7488 18.7803C19.0456 19.4834 17.78 19.6475 16.573 19.6475H16.3152V21.5342H16.4324C18.3659 21.5342 19.9714 21.3115 21.1316 20.1514ZM2.26439 20.1514C3.42454 21.3115 5.03001 21.5342 6.95189 21.5342H7.06907V19.6475H6.82298C5.61595 19.6475 4.35032 19.4834 3.63548 18.7803C2.93235 18.0654 2.78001 16.8232 2.78001 15.6045V15.3936H0.893291V15.4756C0.893291 17.4209 1.11595 19.0029 2.26439 20.1514ZM8.67454 21.5342H14.7214V19.6475H8.67454V21.5342Z" fill="#E8924F"/>
</svg>
