<svg id="Layer_1" data-name="Layer 1" xmlns="http://www.w3.org/2000/svg" viewBox="0 0 498 495.57"><defs><style>.cls-1{fill:#9ca0a8;}</style></defs><path class="cls-1" d="M32.62,33.3C6.15,59.77,1,96.49,1,140.25V143H44.5v-4.33C44.5,110.27,48,81.1,64.22,64.9c16.47-16.48,45.91-20,74.27-20h4.86V1.43h-3.24C96.36,1.43,59.36,6.56,32.62,33.3ZM180.35,44.91H319.7V1.43H180.35ZM467.43,33.3C440.69,6.56,403.69,1.43,359.13,1.43h-2.7V44.91h5.94c27.82,0,57,3.78,73.19,20,16.47,16.47,20,45.1,20,72.91V143H499v-1.89C499,96.22,493.89,59.5,467.43,33.3ZM455.54,318.49H499V179.94H455.54ZM1,318.49H44.5V179.94H1ZM467.43,465.13C493.89,438.67,499,402.21,499,357.38v-1.89H455.54v4.86c0,28.08-3.51,56.71-20,73.18-16.21,16.21-45.37,20-73.19,20h-5.94V497h2.7C403.69,497,440.69,491.87,467.43,465.13Zm-434.81,0C59.36,491.87,96.36,497,140.65,497h2.7V453.52h-5.67c-27.82,0-57-3.78-73.46-20C48,417.06,44.5,388.43,44.5,360.35v-4.86H1v1.89C1,402.21,6.15,438.67,32.62,465.13ZM180.35,497H319.7V453.52H180.35Z" transform="translate(-1.02 -1.43)"/></svg>