<svg id="Layer_1" data-name="Layer 1" xmlns="http://www.w3.org/2000/svg" viewBox="0 0 488.41 488.41"><defs><style>.cls-1{fill:#9ca0a8;}</style></defs><path class="cls-1" d="M249.79,494.05C383.39,494.05,494,383.2,494,249.84,494,116.25,383.15,5.64,249.56,5.64c-133.36,0-244,110.61-244,244.2C5.59,383.2,116.44,494.05,249.79,494.05Zm0-40.7c-113,0-203.26-90.5-203.26-203.51s90-203.5,203-203.5,203.5,90.5,203.74,203.5S362.8,453.35,249.79,453.35ZM133.68,191.42a20.9,20.9,0,0,0,20.59-20.59,20.59,20.59,0,1,0-20.59,20.59Zm57.7-6.22H370.94a14.49,14.49,0,1,0,0-29H191.38a14.49,14.49,0,0,0,0,29Zm-57.7,85.47a20.59,20.59,0,1,0,0-41.18,20.59,20.59,0,1,0,0,41.18Zm57.7-6.22H370.94a14.49,14.49,0,1,0,0-29H191.38A14.62,14.62,0,0,0,177,250.08,14.42,14.42,0,0,0,191.38,264.45Zm-57.7,85.47a20.59,20.59,0,1,0-20.59-20.59A20.59,20.59,0,0,0,133.68,349.92Zm57.7-6.23H370.94a14.49,14.49,0,1,0,0-29H191.38A14.62,14.62,0,0,0,177,329.33,14.11,14.11,0,0,0,191.38,343.69Z" transform="translate(-5.59 -5.64)"/></svg>