<?xml version="1.0" encoding="utf-8"?>
<!-- Generator: Adobe Illustrator 26.0.1, SVG Export Plug-In . SVG Version: 6.00 Build 0)  -->
<svg version="1.1" id="Layer_1" xmlns="http://www.w3.org/2000/svg" xmlns:xlink="http://www.w3.org/1999/xlink" x="0px" y="0px"
	 viewBox="0 0 1920 1080" style="enable-background:new 0 0 1920 1080;" xml:space="preserve">
<style type="text/css">
	.st0{clip-path:url(#SVGID_00000004544301219387590070000008744152716306070657_);}
	.st1{fill:#F9EED1;}
	.st2{fill:#FFFFFF;}
	.st3{fill:#666C79;}
	.st4{fill:#F4E0A9;}
	.st5{fill-opacity:0;stroke:#666C79;stroke-width:23.435;stroke-linecap:round;stroke-miterlimit:10;}
</style>
<g>
	<defs>
		<rect id="SVGID_1_" width="1920" height="1080"/>
	</defs>
	<clipPath id="SVGID_00000057121451648331756850000011951036338659330734_">
		<use xlink:href="#SVGID_1_"  style="overflow:visible;"/>
	</clipPath>
	<g style="clip-path:url(#SVGID_00000057121451648331756850000011951036338659330734_);">
		<g transform="matrix(1,0,0,1,669,251)">
			<g transform="matrix(1,0,0,1,290.39898681640625,288.1570129394531)">
				<path class="st1" d="M224.1,279.9c-56,0-56,5.9-112,5.9s-56-1.9-112-1.9c-56,0-56-1.4-112-1.4c-56,0-56,4.6-112,4.6
					c-33.7,0-61.2-29.1-61.2-62.8c0-56-4.3-56-4.3-112c0-56,10-56,10-112c0-56,0.1-56,0.1-112s-2.1-56-2.1-112
					c0-33.7,23.7-56.4,57.5-56.4c56,0,56-0.3,112-0.3c56,0,56-0.5,112-0.5c56,0,56-6.1,112-6.1s56-0.2,112-0.2
					c33.7,0,64.8,29.8,64.8,63.5c0,56-7.8,56-7.8,112c0,56,8.3,56,8.3,112c0,56-6.4,56-6.4,112c0,56-1.7,56-1.7,112
					C281.3,258,257.8,279.9,224.1,279.9z"/>
			</g>
		</g>
		
			<g transform="matrix(0.9965033531188965,-0.0835527554154396,0.0835527554154396,0.9965033531188965,759.9609375,437.9881896972656)">
			<g transform="matrix(1,0,0,1,58.24800109863281,58.23699951171875)">
				<path class="st2" d="M117.6-27c0,31.8-25.8,57.6-57.6,57.6C28.2,30.6,2.5,4.8,2.5-27c0-31.8,25.8-57.6,57.6-57.6
					S117.6-58.8,117.6-27z"/>
			</g>
			<g transform="matrix(1,0,0,1,73.24099731445312,85.26899719238281)">
				<path class="st3" d="M73.8-24.1c0,15.4-12.5,27.9-27.9,27.9S17.9-8.7,17.9-24.1c0-15.4,12.5-27.9,27.9-27.9S73.8-39.6,73.8-24.1
					z"/>
			</g>
		</g>
		
			<g transform="matrix(0.9965033531188965,-0.0835527554154396,0.0835527554154396,0.9965033531188965,996.1322021484375,418.1861877441406)">
			<g transform="matrix(1,0,0,1,67.8030014038086,58.23699951171875)">
				<path class="st2" d="M-84-13.5C-84,18.2-58.2,44-26.4,44c31.8,0,57.6-25.8,57.6-57.6c0-31.8-25.8-57.6-57.6-57.6
					C-58.2-71.1-84-45.3-84-13.5z"/>
			</g>
			<g transform="matrix(1,0,0,1,52.808998107910156,85.26899719238281)">
				<path class="st3" d="M-41.7-12.5c0,15.4,12.5,27.9,27.9,27.9c15.4,0,27.9-12.5,27.9-27.9c0-15.4-12.5-27.9-27.9-27.9
					S-41.7-27.9-41.7-12.5z"/>
			</g>
		</g>
		
			<g transform="matrix(0.9965033531188965,-0.0835527554154396,0.0835527554154396,0.9965033531188965,750.236572265625,585.3158569335938)">
			<g transform="matrix(1,0,0,1,58.29199981689453,13.583999633789062)">
				<path class="st4" d="M67.1-13.8C66.7-6.6,40.3-2.4,8.2-4.4c-32.1-2-57.7-9.5-57.3-16.7c0.5-7.2,26.8-11.4,58.9-9.4
					C41.9-28.5,67.6-21.1,67.1-13.8z"/>
			</g>
		</g>
		
			<g transform="matrix(0.9965033531188965,-0.0835527554154396,0.0835527554154396,0.9965033531188965,750.236572265625,585.3158569335938)">
			<g transform="matrix(1,0,0,1,58.29199981689453,13.583999633789062)">
				<path class="st4" d="M347.8,9.7c-0.5,7.2-26.8,11.4-58.9,9.4c-32.1-2-57.7-9.5-57.3-16.7C232.1-4.8,258.4-9,290.5-7
					C322.6-5,348.3,2.5,347.8,9.7z"/>
			</g>
		</g>
		
			<g transform="matrix(0.9965033531188965,-0.0835527554154396,0.0835527554154396,0.9965033531188965,842.3916625976562,535.441650390625)">
			<g transform="matrix(1,0,0,1,107.5,89.67900085449219)">
				<path class="st5" d="M50.6-25.8c-3.5,40.9-26.8,58.3-53.4,56c-26.6-2.3-46.5-23.4-43-64.4"/>
			</g>
		</g>
	</g>
</g>
</svg>
