<?xml version="1.0" encoding="utf-8"?>
<!-- Generator: Adobe Illustrator 26.0.1, SVG Export Plug-In . SVG Version: 6.00 Build 0)  -->
<svg version="1.1" id="Layer_1" xmlns="http://www.w3.org/2000/svg" xmlns:xlink="http://www.w3.org/1999/xlink" x="0px" y="0px"
	 viewBox="0 0 578.8 574.3" style="enable-background:new 0 0 578.8 574.3;" xml:space="preserve">
<style type="text/css">
	.st0{fill:#F9EED1;}
	.st1{fill:#FFFFFF;}
	.st2{fill:#666C79;}
	.st3{fill:#F4E0A9;}
	.st4{fill-opacity:0;stroke:#666C79;stroke-width:23.435;stroke-linecap:round;stroke-miterlimit:10;}
</style>
<circle class="st0" cx="289.4" cy="287.2" r="281.7"/>
<g>
	
		<g transform="matrix(0.9965033531188965,-0.0835527554154396,0.0835527554154396,0.9965033531188965,759.9609375,437.9881896972656)">
		<g transform="matrix(1,0,0,1,58.24800109863281,58.23699951171875)">
			<path class="st1" d="M-528.7-318.7c0,31.8-25.8,57.6-57.6,57.6c-31.8,0-57.5-25.8-57.5-57.6s25.8-57.6,57.6-57.6
				C-554.4-376.3-528.7-350.5-528.7-318.7z"/>
		</g>
		<g transform="matrix(1,0,0,1,73.24099731445312,85.26899719238281)">
			<path class="st2" d="M-572.5-315.8c0,15.4-12.5,27.9-27.9,27.9c-15.4,0-28-12.5-28-27.9c0-15.4,12.5-27.9,27.9-27.9
				C-585.1-343.7-572.5-331.3-572.5-315.8z"/>
		</g>
	</g>
	
		<g transform="matrix(0.9965033531188965,-0.0835527554154396,0.0835527554154396,0.9965033531188965,996.1322021484375,418.1861877441406)">
		<g transform="matrix(1,0,0,1,67.8030014038086,58.23699951171875)">
			<path class="st1" d="M-730.3-305.2c0,31.7,25.8,57.5,57.6,57.5c31.8,0,57.6-25.8,57.6-57.6s-25.8-57.6-57.6-57.6
				C-704.5-362.8-730.3-337-730.3-305.2z"/>
		</g>
		<g transform="matrix(1,0,0,1,52.808998107910156,85.26899719238281)">
			<path class="st2" d="M-688-304.2c0,15.4,12.5,27.9,27.9,27.9c15.4,0,27.9-12.5,27.9-27.9s-12.5-27.9-27.9-27.9
				C-675.5-332.1-688-319.6-688-304.2z"/>
		</g>
	</g>
	
		<g transform="matrix(0.9965033531188965,-0.0835527554154396,0.0835527554154396,0.9965033531188965,750.236572265625,585.3158569335938)">
		<g transform="matrix(1,0,0,1,58.29199981689453,13.583999633789062)">
			<path class="st3" d="M-579.2-305.5c-0.4,7.2-26.8,11.4-58.9,9.4s-57.7-9.5-57.3-16.7c0.5-7.2,26.8-11.4,58.9-9.4
				C-604.4-320.2-578.7-312.8-579.2-305.5z"/>
		</g>
	</g>
	
		<g transform="matrix(0.9965033531188965,-0.0835527554154396,0.0835527554154396,0.9965033531188965,750.236572265625,585.3158569335938)">
		<g transform="matrix(1,0,0,1,58.29199981689453,13.583999633789062)">
			<path class="st3" d="M-298.5-282c-0.5,7.2-26.8,11.4-58.9,9.4s-57.7-9.5-57.3-16.7c0.5-7.2,26.8-11.4,58.9-9.4
				C-323.7-296.7-298-289.2-298.5-282z"/>
		</g>
	</g>
	
		<g transform="matrix(0.9965033531188965,-0.0835527554154396,0.0835527554154396,0.9965033531188965,842.3916625976562,535.441650390625)">
		<g transform="matrix(1,0,0,1,107.5,89.67900085449219)">
			<path class="st4" d="M-595.7-317.5c-3.5,40.9-26.8,58.3-53.4,56c-26.6-2.3-46.5-23.4-43-64.4"/>
		</g>
	</g>
</g>
</svg>
