<svg id="Layer_1" data-name="Layer 1" xmlns="http://www.w3.org/2000/svg" viewBox="0 0 767.7 440.99"><defs><style>.cls-1{fill:#0f2046;}</style></defs><path class="cls-1" d="M40.72,111.31H750.51c16,0,29.34-12.13,29.34-27.95,0-15.45-13.33-27.59-29.34-27.59H40.72c-16,0-28.57,12.14-28.57,27.59C12.15,99.18,24.72,111.31,40.72,111.31Zm0,192.73H469.34c16,0,29-12.14,29-28,0-15.45-13-27.59-29-27.59H40.72c-16,0-28.57,12.14-28.57,27.59C12.15,291.9,24.72,304,40.72,304Zm0,192.73H750.51c16,0,29.34-12.51,29.34-28s-13.33-27.58-29.34-27.58H40.72c-16,0-28.57,12.14-28.57,27.58S24.72,496.77,40.72,496.77Z" transform="translate(-12.15 -55.77)"/></svg>