<svg id="Layer_1" data-name="Layer 1" xmlns="http://www.w3.org/2000/svg" xmlns:xlink="http://www.w3.org/1999/xlink" viewBox="0 0 581.29 583.82"><defs><style>.cls-1{fill:#fcfcfc;}.cls-1,.cls-4{fill-opacity:0.8;}.cls-1,.cls-3,.cls-4{fill-rule:evenodd;}.cls-2{fill:url(#linear-gradient);}.cls-3{fill:#bbe4fd;fill-opacity:0.35;}.cls-4{fill:#67d5b1;}.cls-5{fill:#ff4235;fill-opacity:0.6;}.cls-6{fill:#8c4514;fill-opacity:0.7;}.cls-7{fill:#957158;}</style><linearGradient id="linear-gradient" x1="165.35" y1="547.59" x2="458.63" y2="-2.32" gradientTransform="matrix(1, 0, 0, -1, -8.83, 586.74)" gradientUnits="userSpaceOnUse"><stop offset="0" stop-color="#bbe4fd"/><stop offset="1" stop-color="#8ed3fd"/></linearGradient></defs><path class="cls-1" d="M455.13,550.68A294.82,294.82,0,0,1,179.2,569.16a70.4,70.4,0,0,1,56.42-27.74A71.12,71.12,0,0,1,278,555.27c7.29,5.4,22.09,2.69,27.21-4.8,14.62-21.35,42.68-35.81,74.88-35.81S440.55,529.21,455.13,550.68Z" transform="translate(-8.83 -11.12)"/><circle class="cls-2" cx="290.64" cy="290.64" r="290.64"/><path class="cls-3" d="M241.35,513.54C401.87,513.54,532,383.42,532,222.9A289.47,289.47,0,0,0,501.55,93.26a289.78,289.78,0,0,1,88.57,208.91c0,160.52-130.13,290.64-290.64,290.64-113.94,0-212.56-65.56-260.21-161A289.68,289.68,0,0,0,241.35,513.54Z" transform="translate(-8.83 -11.12)"/><path class="cls-4" d="M552.08,446a289.3,289.3,0,0,0,38-143.85q0-10.37-.71-20.55c-.19-1.26-.4-2.52-.66-3.76a20.94,20.94,0,0,1-.25-6.61,288.72,288.72,0,0,0-34.3-109.16c-19,6.91-32.78,26.79-32.78,50.24a24.86,24.86,0,0,1-13.5,21.53c-20.09,10-34.06,32.08-34.06,57.74,0,26.09,14.45,48.5,35.09,58.23,7.59,3.58,13.17,11.43,12.67,19.81q-.2,3.23-.2,6.51C521.42,406.38,533.83,432.65,552.08,446Z" transform="translate(-8.83 -11.12)"/><path class="cls-4" d="M35.39,423.71a291.35,291.35,0,0,1,2.24-247.84A74,74,0,0,1,82.81,244c0,1.32,0,2.63-.1,3.94a40.54,40.54,0,0,0,11.71,30.77,84.55,84.55,0,0,1-59,145Z" transform="translate(-8.83 -11.12)"/><path class="cls-1" d="M446.87,51.61A91.24,91.24,0,0,1,376.1,85.5a90.31,90.31,0,0,1-54.21-18,12.38,12.38,0,0,0-17.38,3c-16.65,25-44.65,41.48-76.37,41.48-37.3,0-69.44-22.71-84.06-55.42a290.93,290.93,0,0,1,302.79-4.9Z" transform="translate(-8.83 -11.12)"/><path class="cls-1" d="M452.83,549.11a291.16,291.16,0,0,1-272.47,18.25A69.47,69.47,0,0,1,236.06,540a70.23,70.23,0,0,1,41.87,13.67c7.19,5.33,21.81,2.65,26.87-4.74,14.43-21.09,42.14-35.36,73.94-35.36S438.43,527.9,452.83,549.11Z" transform="translate(-8.83 -11.12)"/><ellipse class="cls-5" cx="183.16" cy="324.2" rx="31.63" ry="19.77"/><ellipse class="cls-5" cx="402.84" cy="324.2" rx="31.63" ry="19.77"/><circle class="cls-6" cx="202.86" cy="266.4" r="17.11"/><circle class="cls-6" cx="388.6" cy="266.4" r="17.11"/><path class="cls-7" d="M340.15,307.76c5.4,0,9.89,4.43,8.7,9.69a44,44,0,0,1-26.08,30.95,44,44,0,0,1-57.48-23.81,43.58,43.58,0,0,1-2.27-7.14c-1.19-5.26,3.3-9.69,8.7-9.69Z" transform="translate(-8.83 -11.12)"/></svg>