<?xml version="1.0" encoding="utf-8"?>
<!-- Generator: Adobe Illustrator 26.0.1, SVG Export Plug-In . SVG Version: 6.00 Build 0)  -->
<svg version="1.1" id="Layer_1" xmlns="http://www.w3.org/2000/svg" xmlns:xlink="http://www.w3.org/1999/xlink" x="0px" y="0px"
	 viewBox="0 0 578.8 574.3" style="enable-background:new 0 0 578.8 574.3;" xml:space="preserve">
<style type="text/css">
	.st0{fill:#FDCFC1;}
	.st1{fill-opacity:0;stroke:#666C79;stroke-width:20.413;stroke-linejoin:round;}
	.st2{fill:#FCA589;}
	.st3{fill-opacity:0;stroke:#666C79;stroke-width:23.435;stroke-linecap:round;stroke-miterlimit:10;}
</style>
<g>
	<circle class="st0" cx="288.4" cy="286.2" r="281.7"/>
	<g>
		
			<g transform="matrix(0.9967408776283264,0.08066955953836441,-0.08066955953836441,0.9967408776283264,725.859619140625,332.3473815917969)">
			<g transform="matrix(1,0,0,1,117.93399810791016,93.87100219726562)">
				<path class="st1" d="M-731.2-190.7c0,0,77.1-21.7,124.4,48.7c-74.3-41.1-132.9,13.4-132.9,13.4"/>
			</g>
		</g>
		
			<g transform="matrix(0.9967408776283264,0.08066955953836441,-0.08066955953836441,0.9967408776283264,962.087158203125,351.466064453125)">
			<g transform="matrix(1,0,0,1,118.06600189208984,93.87100219726562)">
				<path class="st1" d="M-615.4-190.7c0,0-77.1-21.7-124.4,48.7c74.3-41.1,132.9,13.4,132.9,13.4"/>
			</g>
		</g>
		
			<g transform="matrix(0.9967408776283264,0.08066955953836441,-0.08066955953836441,0.9967408776283264,744.95751953125,505.4521484375)">
			<g transform="matrix(1,0,0,1,58.29199981689453,13.583999633789062)">
				<path class="st2" d="M-615.1-170.5c0,7.2-26.1,13.1-58.2,13.1c-32.2,0-58.2-5.9-58.2-13.1s26.1-13.1,58.2-13.1
					C-641.1-183.6-615.1-177.7-615.1-170.5z"/>
			</g>
		</g>
		
			<g transform="matrix(0.9967408776283264,0.08066955953836441,-0.08066955953836441,0.9967408776283264,1034.012451171875,528.8463134765625)">
			<g transform="matrix(1,0,0,1,58.757999420166016,13.583999633789062)">
				<path class="st2" d="M-615.1-170.5c0,7.2-26.1,13.1-58.2,13.1c-32.2,0-58.2-5.9-58.2-13.1s26.1-13.1,58.2-13.1
					C-641.1-183.6-615.1-177.7-615.1-170.5z"/>
			</g>
		</g>
		
			<g transform="matrix(0.9967408776283264,0.08066955953836441,-0.08066955953836441,0.9967408776283264,844.0327758789062,471.33331298828125)">
			<g transform="matrix(1,0,0,1,107.5,96.67900085449219)">
				<path class="st3" d="M-624.9-207.7c0,41.1-21.7,74.4-48.4,74.4s-48.4-33.3-48.4-74.4L-624.9-207.7z"/>
			</g>
		</g>
	</g>
</g>
</svg>
