<?xml version="1.0" encoding="utf-8"?>
<!-- Generator: Adobe Illustrator 26.0.1, SVG Export Plug-In . SVG Version: 6.00 Build 0)  -->
<svg version="1.1" id="Layer_1" xmlns="http://www.w3.org/2000/svg" xmlns:xlink="http://www.w3.org/1999/xlink" x="0px" y="0px"
	 viewBox="0 0 1920 1080" style="enable-background:new 0 0 1920 1080;" xml:space="preserve">
<style type="text/css">
	.st0{clip-path:url(#SVGID_00000123424968419196774040000012293673670353002141_);}
	.st1{fill:#FDCFC1;}
	.st2{fill-opacity:0;stroke:#666C79;stroke-width:20.413;stroke-linejoin:round;}
	.st3{fill:#FCA589;}
	.st4{fill-opacity:0;stroke:#666C79;stroke-width:23.435;stroke-linecap:round;stroke-miterlimit:10;}
</style>
<g>
	<defs>
		<rect id="SVGID_1_" width="1920" height="1080"/>
	</defs>
	<clipPath id="SVGID_00000039845776099539038950000012620037984987120796_">
		<use xlink:href="#SVGID_1_"  style="overflow:visible;"/>
	</clipPath>
	<g style="clip-path:url(#SVGID_00000039845776099539038950000012620037984987120796_);">
		<g transform="matrix(1,0,0,1,669,249)">
			<g transform="matrix(1,0,0,1,289.6239929199219,290.3940124511719)">
				<path class="st1" d="M224.8,287.3c-56,0-56,2.3-112,2.3s-56-8.4-112-8.4c-56,0-56,0.7-112,0.7c-56,0-56,3.1-112,3.1
					c-33.7,0-65.9-27.3-65.9-61c0-56,3.6-56,3.6-112c0-56-1.3-56-1.3-112c0-56,3.8-56,3.8-112s-6.3-56-6.3-112
					c0-33.7,32.4-56.1,66.1-56.1c56,0,56-9.8,112-9.8c56,0,56,2.7,112,2.7c56,0,56,5.7,112,5.7s56-5.2,112-5.2
					c33.7,0,57.4,28.9,57.4,62.6c0,56,5.2,56,5.2,112c0,56,0.6,56,0.6,112c0,56,1.1,56,1.1,112c0,56-1.2,56-1.2,112
					C288,257.8,258.5,287.3,224.8,287.3z"/>
			</g>
		</g>
		
			<g transform="matrix(0.9967408776283264,0.08066955953836441,-0.08066955953836441,0.9967408776283264,725.859619140625,332.3473815917969)">
			<g transform="matrix(1,0,0,1,117.93399810791016,93.87100219726562)">
				<path class="st2" d="M-57.9-20.2c0,0,77.1-21.7,124.4,48.7C-7.8-12.6-66.4,41.9-66.4,41.9"/>
			</g>
		</g>
		
			<g transform="matrix(0.9967408776283264,0.08066955953836441,-0.08066955953836441,0.9967408776283264,962.087158203125,351.466064453125)">
			<g transform="matrix(1,0,0,1,118.06600189208984,93.87100219726562)">
				<path class="st2" d="M57.9-20.2c0,0-77.1-21.7-124.4,48.7C7.8-12.6,66.4,41.9,66.4,41.9"/>
			</g>
		</g>
		
			<g transform="matrix(0.9967408776283264,0.08066955953836441,-0.08066955953836441,0.9967408776283264,744.95751953125,505.4521484375)">
			<g transform="matrix(1,0,0,1,58.29199981689453,13.583999633789062)">
				<path class="st3" d="M58.2,0c0,7.2-26.1,13.1-58.2,13.1c-32.2,0-58.2-5.9-58.2-13.1c0-7.2,26.1-13.1,58.2-13.1
					C32.2-13.1,58.2-7.2,58.2,0z"/>
			</g>
		</g>
		
			<g transform="matrix(0.9967408776283264,0.08066955953836441,-0.08066955953836441,0.9967408776283264,1034.012451171875,528.8463134765625)">
			<g transform="matrix(1,0,0,1,58.757999420166016,13.583999633789062)">
				<path class="st3" d="M58.2,0c0,7.2-26.1,13.1-58.2,13.1c-32.2,0-58.2-5.9-58.2-13.1c0-7.2,26.1-13.1,58.2-13.1
					C32.2-13.1,58.2-7.2,58.2,0z"/>
			</g>
		</g>
		
			<g transform="matrix(0.9967408776283264,0.08066955953836441,-0.08066955953836441,0.9967408776283264,844.0327758789062,471.33331298828125)">
			<g transform="matrix(1,0,0,1,107.5,96.67900085449219)">
				<path class="st4" d="M48.4-37.2C48.4,3.9,26.7,37.2,0,37.2c-26.7,0-48.4-33.3-48.4-74.4L48.4-37.2z"/>
			</g>
		</g>
	</g>
</g>
</svg>
