<svg width="24" height="25" viewBox="0 0 25 25" fill="none" xmlns="http://www.w3.org/2000/svg">
<path d="M6.72923 24.8594H22.5847C24.2488 24.8594 25.2214 23.9102 25.2214 22.2695V11.0078L26.8503 12.3789C27.0847 12.5781 27.3542 12.7539 27.6824 12.7539C28.2331 12.7539 28.6784 12.4141 28.6784 11.8516C28.6784 11.5 28.5613 11.2656 28.3152 11.0547L25.2214 8.45312V3.60156C25.2214 3.08594 24.8933 2.75781 24.3777 2.75781H23.1238C22.6199 2.75781 22.28 3.08594 22.28 3.60156V5.98047L16.1159 0.800781C15.2488 0.0625 14.1706 0.0625 13.2917 0.800781L1.08079 11.0547C0.822979 11.2656 0.705791 11.5469 0.705791 11.8164C0.705791 12.2969 1.08079 12.7539 1.7136 12.7539C2.04173 12.7539 2.31126 12.5781 2.55735 12.3789L4.08079 11.0898V22.2695C4.08079 23.9102 5.05345 24.8594 6.72923 24.8594ZM18.073 15.1211C18.073 14.582 17.7214 14.2305 17.1824 14.2305H12.2136C11.6628 14.2305 11.3113 14.582 11.3113 15.1211V22.9727H7.12767C6.37767 22.9727 5.96751 22.5508 5.96751 21.7891V9.50781L14.2878 2.53516C14.5456 2.30078 14.862 2.30078 15.1199 2.53516L23.3347 9.42578V21.7891C23.3347 22.5508 22.9245 22.9727 22.1863 22.9727H18.073V15.1211Z" fill="#E8924F"/>
</svg>
