<?xml version="1.0" encoding="utf-8"?>
<!-- Generator: Adobe Illustrator 26.0.1, SVG Export Plug-In . SVG Version: 6.00 Build 0)  -->
<svg version="1.1" id="Layer_1" xmlns="http://www.w3.org/2000/svg" xmlns:xlink="http://www.w3.org/1999/xlink" x="0px" y="0px"
	 viewBox="0 0 1920 1080" style="enable-background:new 0 0 1920 1080;" xml:space="preserve">
<style type="text/css">
	.st0{clip-path:url(#SVGID_00000006668997097526966060000017527951710137182391_);}
	.st1{fill:#DAF3E3;}
	.st2{fill:#FFFFFF;}
	.st3{fill:#666C79;}
	.st4{fill-opacity:0;stroke:#666C79;stroke-width:9.944;stroke-miterlimit:10;}
	.st5{fill:#C5EBD5;}
	.st6{fill-opacity:0;stroke:#666C79;stroke-width:23.435;stroke-linecap:round;stroke-miterlimit:10;}
</style>
<g>
	<defs>
		<rect id="SVGID_1_" width="1920" height="1080"/>
	</defs>
	<clipPath id="SVGID_00000111910022369367614200000006867998062182990483_">
		<use xlink:href="#SVGID_1_"  style="overflow:visible;"/>
	</clipPath>
	<g style="clip-path:url(#SVGID_00000111910022369367614200000006867998062182990483_);">
		<g transform="matrix(1,0,0,1,670,250)">
			<g transform="matrix(1,0,0,1,290.4490051269531,289.822998046875)">
				<path class="st1" d="M223.5,289.6c-56,0-56-8.9-112-8.9s-56-1.2-112-1.2c-56,0-56,6.3-112,6.3c-56,0-56,3.5-112,3.5
					c-33.7,0-63.1-31.5-63.1-65.2c0-56,5.5-56,5.5-112c0-56-4.4-56-4.4-112c0-56-1.7-56-1.7-112s-2.1-56-2.1-112
					c0-33.7,32-55.5,65.7-55.5c56,0,56-2.9,112-2.9c56,0,56-7.3,112-7.3c56,0,56,1.4,112,1.4s56,3.2,112,3.2
					c33.7,0,56.3,27.5,56.3,61.2c0,56,5,56,5,112c0,56-0.3,56-0.3,112c0,56-1.3,56-1.3,112c0,56,6.9,56,6.9,112
					C290.1,257.8,257.2,289.6,223.5,289.6z"/>
			</g>
		</g>
		<g transform="matrix(1,0,0,1,807,404.45635986328125)">
			<g transform="matrix(1,0,0,1,58.24800109863281,58.23699951171875)">
				<path class="st2" d="M57.6,0c0,31.8-25.8,57.6-57.6,57.6S-57.6,31.8-57.6,0S-31.8-57.6,0-57.6S57.6-31.8,57.6,0z"/>
			</g>
			<g transform="matrix(1,0,0,1,73.24099731445312,85.26899719238281)">
				<path class="st3" d="M27.9,0c0,15.4-12.5,27.9-27.9,27.9S-27.9,15.4-27.9,0c0-15.4,12.5-27.9,27.9-27.9S27.9-15.4,27.9,0z"/>
			</g>
			<g transform="matrix(1,0,0,1,73.24099731445312,85.26899719238281)">
				<path class="st4" d="M27.9,0c0,15.4-12.5,27.9-27.9,27.9S-27.9,15.4-27.9,0c0-15.4,12.5-27.9,27.9-27.9S27.9-15.4,27.9,0z"/>
			</g>
		</g>
		<g transform="matrix(1,0,0,1,1044,404.45635986328125)">
			<g transform="matrix(1,0,0,1,67.8030014038086,58.23699951171875)">
				<path class="st2" d="M-57.6,0c0,31.8,25.8,57.6,57.6,57.6c31.8,0,57.6-25.8,57.6-57.6S31.8-57.6,0-57.6
					C-31.8-57.6-57.6-31.8-57.6,0z"/>
			</g>
			<g transform="matrix(1,0,0,1,52.808998107910156,85.26899719238281)">
				<path class="st3" d="M-27.9,0c0,15.4,12.5,27.9,27.9,27.9S27.9,15.4,27.9,0c0-15.4-12.5-27.9-27.9-27.9S-27.9-15.4-27.9,0z"/>
			</g>
			<g transform="matrix(1,0,0,1,52.808998107910156,85.26899719238281)">
				<path class="st4" d="M-27.9,0c0,15.4,12.5,27.9,27.9,27.9S27.9,15.4,27.9,0c0-15.4-12.5-27.9-27.9-27.9S-27.9-15.4-27.9,0z"/>
			</g>
		</g>
		<g transform="matrix(1,0,0,1,785,550.4563598632812)">
			<g transform="matrix(1,0,0,1,58.29199981689453,13.583999633789062)">
				<path class="st5" d="M58.2,0c0,7.2-26.1,13.1-58.2,13.1c-32.2,0-58.2-5.9-58.2-13.1c0-7.2,26.1-13.1,58.2-13.1
					C32.2-13.1,58.2-7.2,58.2,0z"/>
			</g>
		</g>
		<g transform="matrix(1,0,0,1,1075,550.4563598632812)">
			<g transform="matrix(1,0,0,1,58.757999420166016,13.583999633789062)">
				<path class="st5" d="M58.2,0c0,7.2-26.1,13.1-58.2,13.1c-32.2,0-58.2-5.9-58.2-13.1c0-7.2,26.1-13.1,58.2-13.1
					C32.2-13.1,58.2-7.2,58.2,0z"/>
			</g>
		</g>
		<g transform="matrix(1,0,0,1,928,556.4563598632812)">
			<g transform="matrix(1,0,0,1,0,0)">
				<path class="st6" d="M12.6,12h96.7"/>
			</g>
		</g>
	</g>
</g>
</svg>
