<?xml version="1.0" encoding="utf-8"?>
<!-- Generator: Adobe Illustrator 26.0.1, SVG Export Plug-In . SVG Version: 6.00 Build 0)  -->
<svg version="1.1" id="Layer_1" xmlns="http://www.w3.org/2000/svg" xmlns:xlink="http://www.w3.org/1999/xlink" x="0px" y="0px"
	 viewBox="0 0 578.8 574.3" style="enable-background:new 0 0 578.8 574.3;" xml:space="preserve">
<style type="text/css">
	.st0{fill:#DAF3E3;}
	.st1{fill:#FFFFFF;}
	.st2{fill:#666C79;}
	.st3{fill-opacity:0;stroke:#666C79;stroke-width:9.944;stroke-miterlimit:10;}
	.st4{fill:#C5EBD5;}
	.st5{fill-opacity:0;stroke:#666C79;stroke-width:23.435;stroke-linecap:round;stroke-miterlimit:10;}
</style>
<g>
	<circle class="st0" cx="288.4" cy="286.2" r="281.7"/>
	<g>
		<g transform="matrix(1,0,0,1,807,404.45635986328125)">
			<g transform="matrix(1,0,0,1,58.24800109863281,58.23699951171875)">
				<path class="st1" d="M-613-252.8c0,31.8-25.8,57.6-57.6,57.6s-57.6-25.8-57.6-57.6s25.8-57.6,57.6-57.6S-613-284.6-613-252.8z"
					/>
			</g>
			<g transform="matrix(1,0,0,1,73.24099731445312,85.26899719238281)">
				<path class="st2" d="M-642.7-252.8c0,15.4-12.5,27.9-27.9,27.9c-15.4,0-27.9-12.5-27.9-27.9s12.5-27.9,27.9-27.9
					C-655.2-280.7-642.7-268.2-642.7-252.8z"/>
			</g>
			<g transform="matrix(1,0,0,1,73.24099731445312,85.26899719238281)">
				<path class="st3" d="M-642.7-252.8c0,15.4-12.5,27.9-27.9,27.9c-15.4,0-27.9-12.5-27.9-27.9s12.5-27.9,27.9-27.9
					C-655.2-280.7-642.7-268.2-642.7-252.8z"/>
			</g>
		</g>
		<g transform="matrix(1,0,0,1,1044,404.45635986328125)">
			<g transform="matrix(1,0,0,1,67.8030014038086,58.23699951171875)">
				<path class="st1" d="M-728.2-252.8c0,31.8,25.8,57.6,57.6,57.6S-613-221-613-252.8s-25.8-57.6-57.6-57.6
					S-728.2-284.6-728.2-252.8z"/>
			</g>
			<g transform="matrix(1,0,0,1,52.808998107910156,85.26899719238281)">
				<path class="st2" d="M-698.5-252.8c0,15.4,12.5,27.9,27.9,27.9c15.4,0,27.9-12.5,27.9-27.9s-12.5-27.9-27.9-27.9
					C-686-280.7-698.5-268.2-698.5-252.8z"/>
			</g>
			<g transform="matrix(1,0,0,1,52.808998107910156,85.26899719238281)">
				<path class="st3" d="M-698.5-252.8c0,15.4,12.5,27.9,27.9,27.9c15.4,0,27.9-12.5,27.9-27.9s-12.5-27.9-27.9-27.9
					C-686-280.7-698.5-268.2-698.5-252.8z"/>
			</g>
		</g>
		<g transform="matrix(1,0,0,1,785,550.4563598632812)">
			<g transform="matrix(1,0,0,1,58.29199981689453,13.583999633789062)">
				<path class="st4" d="M-612.4-252.8c0,7.2-26.1,13.1-58.2,13.1c-32.2,0-58.2-5.9-58.2-13.1s26.1-13.1,58.2-13.1
					C-638.4-265.9-612.4-260-612.4-252.8z"/>
			</g>
		</g>
		<g transform="matrix(1,0,0,1,1075,550.4563598632812)">
			<g transform="matrix(1,0,0,1,58.757999420166016,13.583999633789062)">
				<path class="st4" d="M-612.4-252.8c0,7.2-26.1,13.1-58.2,13.1c-32.2,0-58.2-5.9-58.2-13.1s26.1-13.1,58.2-13.1
					C-638.4-265.9-612.4-260-612.4-252.8z"/>
			</g>
		</g>
		<g transform="matrix(1,0,0,1,928,556.4563598632812)">
			<g transform="matrix(1,0,0,1,0,0)">
				<path class="st5" d="M-658-240.8h96.7"/>
			</g>
		</g>
	</g>
</g>
</svg>
