<svg width="25" height="25" viewBox="0 0 25 25" fill="none" xmlns="http://www.w3.org/2000/svg">
<path d="M12.698 24.8652C19.237 24.8652 24.6511 19.4395 24.6511 12.9121C24.6511 6.37305 19.2253 0.958984 12.6863 0.958984C6.15892 0.958984 0.744854 6.37305 0.744854 12.9121C0.744854 19.4395 6.17064 24.8652 12.698 24.8652ZM12.698 22.873C7.16673 22.873 2.74876 18.4434 2.74876 12.9121C2.74876 7.38086 7.15501 2.95117 12.6863 2.95117C18.2175 2.95117 22.6472 7.38086 22.6589 12.9121C22.6706 18.4434 18.2292 22.873 12.698 22.873ZM7.01439 10.0527C7.56517 10.0527 8.0222 9.58398 8.0222 9.04492C8.0222 8.48242 7.57689 8.03711 7.01439 8.03711C6.45189 8.03711 6.00657 8.48242 6.00657 9.04492C6.00657 9.5957 6.45189 10.0527 7.01439 10.0527ZM9.8386 9.74805H18.6277C19.0261 9.74805 19.3425 9.44336 19.3425 9.04492C19.3425 8.63477 19.0261 8.33008 18.6277 8.33008H9.8386C9.44017 8.33008 9.13548 8.64648 9.13548 9.04492C9.13548 9.43164 9.45189 9.74805 9.8386 9.74805ZM7.01439 13.9316C7.56517 13.9316 8.0222 13.4629 8.0222 12.9238C8.0222 12.373 7.56517 11.916 7.01439 11.916C6.45189 11.916 6.00657 12.3613 6.00657 12.9238C6.00657 13.4746 6.45189 13.9316 7.01439 13.9316ZM9.8386 13.627H18.6277C19.0261 13.627 19.3425 13.3223 19.3425 12.9238C19.3425 12.5137 19.0261 12.209 18.6277 12.209H9.8386C9.45189 12.209 9.13548 12.5371 9.13548 12.9238C9.13548 13.3105 9.45189 13.627 9.8386 13.627ZM7.01439 17.8105C7.57689 17.8105 8.0222 17.3535 8.0222 16.8027C8.0222 16.252 7.56517 15.7949 7.01439 15.7949C6.45189 15.7949 6.00657 16.2402 6.00657 16.8027C6.00657 17.3535 6.45189 17.8105 7.01439 17.8105ZM9.8386 17.5059H18.6277C19.0261 17.5059 19.3425 17.2012 19.3425 16.8027C19.3425 16.3926 19.0261 16.0879 18.6277 16.0879H9.8386C9.45189 16.0879 9.13548 16.416 9.13548 16.8027C9.13548 17.2012 9.44017 17.5059 9.8386 17.5059Z" fill="#E8924F"/>
</svg>
