<svg width="357" height="345" viewBox="0 0 357 345" fill="none" xmlns="http://www.w3.org/2000/svg">
<path d="M32 59.716C47.9451 59.716 61 47.09 61 31.358C61 15.6261 47.9451 3 32 3C16.0549 3 3 15.6261 3 31.358C3 47.09 16.0549 59.716 32 59.716Z" fill="#B0D8D2" stroke="white" stroke-width="6"/>
<rect x="78" y="6" width="279" height="268" rx="25" fill="#F2F3F7"/>
<path d="M100.764 28.5455V35.304C100.764 36.4812 100.201 37.1136 99.2131 37.1136C98.3129 37.1136 97.6619 36.5874 97.6619 35.7841H96.5355C96.5355 37.2383 97.6619 38.1293 99.2131 38.1293C100.857 38.1293 101.909 37.1183 101.909 35.304V28.5455H100.764ZM106.936 38.1477C108.857 38.1477 110.15 36.6889 110.15 34.4915C110.15 32.2756 108.857 30.8168 106.936 30.8168C105.016 30.8168 103.723 32.2756 103.723 34.4915C103.723 36.6889 105.016 38.1477 106.936 38.1477ZM106.936 37.169C105.478 37.169 104.813 35.9134 104.813 34.4915C104.813 33.0696 105.478 31.7955 106.936 31.7955C108.395 31.7955 109.06 33.0696 109.06 34.4915C109.06 35.9134 108.395 37.169 106.936 37.169ZM116.281 35.1009C116.281 36.4304 115.266 37.0398 114.453 37.0398C113.548 37.0398 112.902 36.375 112.902 35.3409V30.9091H111.813V35.4148C111.813 37.2244 112.773 38.0923 114.102 38.0923C115.173 38.0923 115.875 37.5199 116.207 36.7997H116.281V38H117.371V30.9091H116.281V35.1009ZM119.366 38H120.456V33.5128C120.456 32.5526 121.213 31.8509 122.247 31.8509C122.538 31.8509 122.838 31.9062 122.912 31.9247V30.8168C122.787 30.8075 122.501 30.7983 122.339 30.7983C121.49 30.7983 120.751 31.2784 120.493 31.9801H120.419V30.9091H119.366V38ZM125.293 33.7344C125.293 32.4972 126.059 31.7955 127.102 31.7955C128.113 31.7955 128.727 32.4556 128.727 33.5682V38H129.817V33.4943C129.817 31.6847 128.852 30.8168 127.416 30.8168C126.345 30.8168 125.68 31.2969 125.348 32.017H125.256V30.9091H124.203V38H125.293V33.7344ZM133.894 38.1662C135.132 38.1662 135.778 37.5014 135.999 37.0398H136.055V38H137.144V33.3281C137.144 31.0753 135.427 30.8168 134.522 30.8168C133.451 30.8168 132.232 31.1861 131.678 32.4787L132.713 32.848C132.953 32.331 133.52 31.777 134.559 31.777C135.561 31.777 136.055 32.3079 136.055 33.2173V33.2543C136.055 33.7805 135.519 33.7344 134.227 33.9006C132.911 34.0714 131.475 34.3622 131.475 35.9872C131.475 37.3722 132.546 38.1662 133.894 38.1662ZM134.061 37.1875C133.193 37.1875 132.565 36.7997 132.565 36.0426C132.565 35.2116 133.322 34.9531 134.171 34.8423C134.633 34.7869 135.87 34.6577 136.055 34.4361V35.4332C136.055 36.3196 135.353 37.1875 134.061 37.1875ZM140.222 28.5455H139.133V38H140.222V28.5455ZM142.218 38H143.307V30.9091H142.218V38ZM142.772 29.7273C143.197 29.7273 143.547 29.3949 143.547 28.9886C143.547 28.5824 143.197 28.25 142.772 28.25C142.347 28.25 141.996 28.5824 141.996 28.9886C141.996 29.3949 142.347 29.7273 142.772 29.7273ZM146.392 33.7344C146.392 32.4972 147.159 31.7955 148.202 31.7955C149.213 31.7955 149.827 32.4556 149.827 33.5682V38H150.916V33.4943C150.916 31.6847 149.952 30.8168 148.516 30.8168C147.445 30.8168 146.78 31.2969 146.448 32.017H146.355V30.9091H145.303V38H146.392V33.7344ZM155.77 40.8068C157.468 40.8068 158.835 40.0312 158.835 38.2031V30.9091H157.782V32.0355H157.672C157.431 31.6662 156.988 30.8168 155.603 30.8168C153.812 30.8168 152.575 32.2386 152.575 34.4176C152.575 36.6335 153.868 37.8892 155.585 37.8892C156.97 37.8892 157.413 37.0767 157.653 36.6889H157.745V38.1293C157.745 39.3111 156.914 39.8466 155.77 39.8466C154.482 39.8466 154.029 39.168 153.738 38.7756L152.87 39.3849C153.314 40.1282 154.186 40.8068 155.77 40.8068ZM155.733 36.9105C154.366 36.9105 153.664 35.8764 153.664 34.3991C153.664 32.9588 154.348 31.7955 155.733 31.7955C157.062 31.7955 157.764 32.8665 157.764 34.3991C157.764 35.9688 157.044 36.9105 155.733 36.9105ZM167.458 38.1477C168.899 38.1477 169.951 37.4276 170.284 36.3565L169.231 36.0611C168.954 36.7997 168.312 37.169 167.458 37.169C166.18 37.169 165.298 36.3427 165.247 34.8239H170.395V34.3622C170.395 31.7216 168.825 30.8168 167.348 30.8168C165.427 30.8168 164.153 32.331 164.153 34.5099C164.153 36.6889 165.409 38.1477 167.458 38.1477ZM165.247 33.8821C165.321 32.7788 166.101 31.7955 167.348 31.7955C168.529 31.7955 169.287 32.6818 169.287 33.8821H165.247ZM177.634 30.9091H176.453L174.495 36.5597H174.421L172.464 30.9091H171.282L173.904 38H175.012L177.634 30.9091ZM181.699 38.1477C183.62 38.1477 184.912 36.6889 184.912 34.4915C184.912 32.2756 183.62 30.8168 181.699 30.8168C179.779 30.8168 178.486 32.2756 178.486 34.4915C178.486 36.6889 179.779 38.1477 181.699 38.1477ZM181.699 37.169C180.24 37.169 179.576 35.9134 179.576 34.4915C179.576 33.0696 180.24 31.7955 181.699 31.7955C183.158 31.7955 183.823 33.0696 183.823 34.4915C183.823 35.9134 183.158 37.169 181.699 37.169ZM186.575 38H187.665V35.3455L188.426 34.6392L191.081 38H192.466L189.248 33.9375L192.244 30.9091H190.896L187.794 34.0668H187.665V28.5455H186.575V38ZM196.328 38.1477C197.768 38.1477 198.82 37.4276 199.153 36.3565L198.1 36.0611C197.823 36.7997 197.182 37.169 196.328 37.169C195.049 37.169 194.167 36.3427 194.116 34.8239H199.264V34.3622C199.264 31.7216 197.694 30.8168 196.217 30.8168C194.296 30.8168 193.022 32.331 193.022 34.5099C193.022 36.6889 194.278 38.1477 196.328 38.1477ZM194.116 33.8821C194.19 32.7788 194.97 31.7955 196.217 31.7955C197.399 31.7955 198.156 32.6818 198.156 33.8821H194.116ZM205.944 32.4972C205.602 31.4908 204.836 30.8168 203.432 30.8168C201.937 30.8168 200.829 31.6662 200.829 32.8665C200.829 33.8452 201.41 34.5007 202.712 34.8054L203.894 35.0824C204.61 35.2486 204.947 35.5902 204.947 36.0795C204.947 36.6889 204.3 37.1875 203.285 37.1875C202.394 37.1875 201.835 36.8043 201.641 36.0426L200.607 36.3011C200.861 37.506 201.854 38.1477 203.303 38.1477C204.951 38.1477 206.073 37.2475 206.073 36.0241C206.073 35.0362 205.454 34.413 204.189 34.1037L203.137 33.8452C202.297 33.6374 201.918 33.3558 201.918 32.8111C201.918 32.2017 202.564 31.7585 203.432 31.7585C204.383 31.7585 204.776 32.2848 204.965 32.7741L205.944 32.4972ZM211.369 38H212.459V33.5682C212.459 32.5295 213.216 31.7955 214.065 31.7955C214.892 31.7955 215.469 32.3356 215.469 33.1435V38H216.577V33.3835C216.577 32.4695 217.149 31.7955 218.146 31.7955C218.922 31.7955 219.587 32.2063 219.587 33.2543V38H220.676V33.2543C220.676 31.5877 219.78 30.8168 218.516 30.8168C217.5 30.8168 216.757 31.283 216.392 32.017H216.318C215.967 31.2599 215.349 30.8168 214.416 30.8168C213.493 30.8168 212.81 31.2599 212.514 32.017H212.422V30.9091H211.369V38ZM222.668 38H223.758V30.9091H222.668V38ZM223.222 29.7273C223.647 29.7273 223.998 29.3949 223.998 28.9886C223.998 28.5824 223.647 28.25 223.222 28.25C222.797 28.25 222.446 28.5824 222.446 28.9886C222.446 29.3949 222.797 29.7273 223.222 29.7273ZM226.843 33.7344C226.843 32.4972 227.609 31.7955 228.652 31.7955C229.663 31.7955 230.277 32.4556 230.277 33.5682V38H231.367V33.4943C231.367 31.6847 230.402 30.8168 228.966 30.8168C227.895 30.8168 227.23 31.2969 226.898 32.017H226.806V30.9091H225.753V38H226.843V33.7344ZM236.035 38.1477C237.402 38.1477 237.863 37.2983 238.103 36.9105H238.233V38H239.285V28.5455H238.196V32.0355H238.103C237.863 31.6662 237.438 30.8168 236.054 30.8168C234.262 30.8168 233.025 32.2386 233.025 34.473C233.025 36.7259 234.262 38.1477 236.035 38.1477ZM236.183 37.169C234.816 37.169 234.115 35.9688 234.115 34.4545C234.115 32.9588 234.798 31.7955 236.183 31.7955C237.512 31.7955 238.214 32.8665 238.214 34.4545C238.214 36.0611 237.494 37.169 236.183 37.169ZM244.589 30.9091H243.001V30.1889C243.001 29.4872 243.297 29.1179 244.017 29.1179C244.331 29.1179 244.516 29.1918 244.626 29.2287L244.94 28.2869C244.774 28.2131 244.442 28.1023 243.906 28.1023C242.891 28.1023 241.912 28.7116 241.912 29.9304V30.9091H240.767V31.8324H241.912V38H243.001V31.8324H244.589V30.9091ZM250.585 35.1009C250.585 36.4304 249.569 37.0398 248.757 37.0398C247.852 37.0398 247.206 36.375 247.206 35.3409V30.9091H246.116V35.4148C246.116 37.2244 247.077 38.0923 248.406 38.0923C249.477 38.0923 250.179 37.5199 250.511 36.7997H250.585V38H251.675V30.9091H250.585V35.1009ZM254.759 28.5455H253.67V38H254.759V28.5455ZM257.844 33.7344C257.844 32.4972 258.611 31.7955 259.654 31.7955C260.665 31.7955 261.279 32.4556 261.279 33.5682V38H262.369V33.4943C262.369 31.6847 261.404 30.8168 259.968 30.8168C258.897 30.8168 258.232 31.2969 257.9 32.017H257.808V30.9091H256.755V38H257.844V33.7344ZM267.332 38.1477C268.773 38.1477 269.825 37.4276 270.158 36.3565L269.105 36.0611C268.828 36.7997 268.187 37.169 267.332 37.169C266.054 37.169 265.172 36.3427 265.121 34.8239H270.269V34.3622C270.269 31.7216 268.699 30.8168 267.222 30.8168C265.301 30.8168 264.027 32.331 264.027 34.5099C264.027 36.6889 265.283 38.1477 267.332 38.1477ZM265.121 33.8821C265.195 32.7788 265.975 31.7955 267.222 31.7955C268.403 31.7955 269.161 32.6818 269.161 33.8821H265.121ZM276.949 32.4972C276.607 31.4908 275.841 30.8168 274.437 30.8168C272.941 30.8168 271.834 31.6662 271.834 32.8665C271.834 33.8452 272.415 34.5007 273.717 34.8054L274.899 35.0824C275.614 35.2486 275.951 35.5902 275.951 36.0795C275.951 36.6889 275.305 37.1875 274.29 37.1875C273.399 37.1875 272.84 36.8043 272.646 36.0426L271.612 36.3011C271.866 37.506 272.858 38.1477 274.308 38.1477C275.956 38.1477 277.078 37.2475 277.078 36.0241C277.078 35.0362 276.459 34.413 275.194 34.1037L274.142 33.8452C273.302 33.6374 272.923 33.3558 272.923 32.8111C272.923 32.2017 273.569 31.7585 274.437 31.7585C275.388 31.7585 275.781 32.2848 275.97 32.7741L276.949 32.4972ZM283.741 32.4972C283.399 31.4908 282.633 30.8168 281.229 30.8168C279.733 30.8168 278.626 31.6662 278.626 32.8665C278.626 33.8452 279.207 34.5007 280.509 34.8054L281.691 35.0824C282.406 35.2486 282.743 35.5902 282.743 36.0795C282.743 36.6889 282.097 37.1875 281.081 37.1875C280.191 37.1875 279.632 36.8043 279.438 36.0426L278.404 36.3011C278.658 37.506 279.65 38.1477 281.1 38.1477C282.748 38.1477 283.87 37.2475 283.87 36.0241C283.87 35.0362 283.251 34.413 281.986 34.1037L280.934 33.8452C280.094 33.6374 279.715 33.3558 279.715 32.8111C279.715 32.2017 280.361 31.7585 281.229 31.7585C282.18 31.7585 282.573 32.2848 282.762 32.7741L283.741 32.4972ZM291.253 38.1662C292.49 38.1662 293.136 37.5014 293.358 37.0398H293.413V38H294.503V33.3281C294.503 31.0753 292.785 30.8168 291.881 30.8168C290.81 30.8168 289.591 31.1861 289.037 32.4787L290.071 32.848C290.311 32.331 290.879 31.777 291.918 31.777C292.919 31.777 293.413 32.3079 293.413 33.2173V33.2543C293.413 33.7805 292.878 33.7344 291.585 33.9006C290.269 34.0714 288.834 34.3622 288.834 35.9872C288.834 37.3722 289.905 38.1662 291.253 38.1662ZM291.419 37.1875C290.551 37.1875 289.923 36.7997 289.923 36.0426C289.923 35.2116 290.68 34.9531 291.53 34.8423C291.991 34.7869 293.229 34.6577 293.413 34.4361V35.4332C293.413 36.3196 292.712 37.1875 291.419 37.1875ZM297.581 33.7344C297.581 32.4972 298.347 31.7955 299.39 31.7955C300.401 31.7955 301.015 32.4556 301.015 33.5682V38H302.105V33.4943C302.105 31.6847 301.14 30.8168 299.704 30.8168C298.633 30.8168 297.969 31.2969 297.636 32.017H297.544V30.9091H296.491V38H297.581V33.7344ZM306.773 38.1477C308.14 38.1477 308.601 37.2983 308.842 36.9105H308.971V38H310.023V28.5455H308.934V32.0355H308.842C308.601 31.6662 308.177 30.8168 306.792 30.8168C305.001 30.8168 303.763 32.2386 303.763 34.473C303.763 36.7259 305.001 38.1477 306.773 38.1477ZM306.921 37.169C305.555 37.169 304.853 35.9688 304.853 34.4545C304.853 32.9588 305.536 31.7955 306.921 31.7955C308.251 31.7955 308.952 32.8665 308.952 34.4545C308.952 36.0611 308.232 37.169 306.921 37.169ZM98.0866 49.7344C98.0866 48.4972 98.8761 47.7955 99.9517 47.7955C100.977 47.7955 101.595 48.4418 101.595 49.5682V54H102.685V49.4943C102.685 47.6708 101.715 46.8168 100.266 46.8168C99.1484 46.8168 98.5114 47.283 98.179 48.017H98.0866V44.5455H96.9972V54H98.0866V49.7344ZM107.651 54.1477C109.091 54.1477 110.144 53.4276 110.476 52.3565L109.424 52.0611C109.147 52.7997 108.505 53.169 107.651 53.169C106.372 53.169 105.49 52.3427 105.44 50.8239H110.587V50.3622C110.587 47.7216 109.017 46.8168 107.54 46.8168C105.62 46.8168 104.345 48.331 104.345 50.5099C104.345 52.6889 105.601 54.1477 107.651 54.1477ZM105.44 49.8821C105.513 48.7788 106.294 47.7955 107.54 47.7955C108.722 47.7955 109.479 48.6818 109.479 49.8821H105.44ZM113.334 44.5455H112.244V54H113.334V44.5455ZM115.329 56.6591H116.419V52.9105H116.511C116.751 53.2983 117.213 54.1477 118.579 54.1477C120.352 54.1477 121.589 52.7259 121.589 50.473C121.589 48.2386 120.352 46.8168 118.561 46.8168C117.176 46.8168 116.751 47.6662 116.511 48.0355H116.382V46.9091H115.329V56.6591ZM116.4 50.4545C116.4 48.8665 117.102 47.7955 118.431 47.7955C119.816 47.7955 120.5 48.9588 120.5 50.4545C120.5 51.9688 119.798 53.169 118.431 53.169C117.12 53.169 116.4 52.0611 116.4 50.4545ZM128.274 48.4972C127.932 47.4908 127.166 46.8168 125.762 46.8168C124.267 46.8168 123.159 47.6662 123.159 48.8665C123.159 49.8452 123.74 50.5007 125.042 50.8054L126.224 51.0824C126.94 51.2486 127.277 51.5902 127.277 52.0795C127.277 52.6889 126.63 53.1875 125.615 53.1875C124.724 53.1875 124.165 52.8043 123.971 52.0426L122.937 52.3011C123.191 53.506 124.184 54.1477 125.633 54.1477C127.281 54.1477 128.403 53.2475 128.403 52.0241C128.403 51.0362 127.784 50.413 126.52 50.1037L125.467 49.8452C124.627 49.6374 124.248 49.3558 124.248 48.8111C124.248 48.2017 124.895 47.7585 125.762 47.7585C126.713 47.7585 127.106 48.2848 127.295 48.7741L128.274 48.4972ZM138.168 51.1009C138.168 52.4304 137.152 53.0398 136.34 53.0398C135.435 53.0398 134.789 52.375 134.789 51.3409V46.9091H133.699V51.4148C133.699 53.2244 134.66 54.0923 135.989 54.0923C137.06 54.0923 137.762 53.5199 138.094 52.7997H138.168V54H139.258V46.9091H138.168V51.1009ZM146.276 48.4972C145.934 47.4908 145.168 46.8168 143.764 46.8168C142.269 46.8168 141.161 47.6662 141.161 48.8665C141.161 49.8452 141.742 50.5007 143.044 50.8054L144.226 51.0824C144.942 51.2486 145.279 51.5902 145.279 52.0795C145.279 52.6889 144.632 53.1875 143.617 53.1875C142.726 53.1875 142.167 52.8043 141.973 52.0426L140.939 52.3011C141.193 53.506 142.186 54.1477 143.635 54.1477C145.283 54.1477 146.405 53.2475 146.405 52.0241C146.405 51.0362 145.786 50.413 144.521 50.1037L143.469 49.8452C142.629 49.6374 142.25 49.3558 142.25 48.8111C142.25 48.2017 142.896 47.7585 143.764 47.7585C144.715 47.7585 145.108 48.2848 145.297 48.7741L146.276 48.4972ZM151.701 54H152.791V49.5128C152.791 48.5526 153.548 47.8509 154.582 47.8509C154.873 47.8509 155.173 47.9062 155.247 47.9247V46.8168C155.122 46.8075 154.836 46.7983 154.674 46.7983C153.825 46.7983 153.086 47.2784 152.828 47.9801H152.754V46.9091H151.701V54ZM159.295 54.1477C160.736 54.1477 161.788 53.4276 162.121 52.3565L161.068 52.0611C160.791 52.7997 160.149 53.169 159.295 53.169C158.017 53.169 157.135 52.3427 157.084 50.8239H162.231V50.3622C162.231 47.7216 160.662 46.8168 159.185 46.8168C157.264 46.8168 155.99 48.331 155.99 50.5099C155.99 52.6889 157.246 54.1477 159.295 54.1477ZM157.084 49.8821C157.158 48.7788 157.938 47.7955 159.185 47.7955C160.366 47.7955 161.123 48.6818 161.123 49.8821H157.084ZM163.889 54H164.978V49.5682C164.978 48.5295 165.735 47.7955 166.585 47.7955C167.411 47.7955 167.988 48.3356 167.988 49.1435V54H169.096V49.3835C169.096 48.4695 169.669 47.7955 170.666 47.7955C171.441 47.7955 172.106 48.2063 172.106 49.2543V54H173.196V49.2543C173.196 47.5877 172.3 46.8168 171.035 46.8168C170.019 46.8168 169.276 47.283 168.911 48.017H168.838C168.487 47.2599 167.868 46.8168 166.936 46.8168C166.012 46.8168 165.329 47.2599 165.034 48.017H164.941V46.9091H163.889V54ZM177.274 54.1662C178.511 54.1662 179.158 53.5014 179.379 53.0398H179.435V54H180.524V49.3281C180.524 47.0753 178.807 46.8168 177.902 46.8168C176.831 46.8168 175.612 47.1861 175.058 48.4787L176.092 48.848C176.332 48.331 176.9 47.777 177.939 47.777C178.941 47.777 179.435 48.3079 179.435 49.2173V49.2543C179.435 49.7805 178.899 49.7344 177.607 49.9006C176.291 50.0714 174.855 50.3622 174.855 51.9872C174.855 53.3722 175.926 54.1662 177.274 54.1662ZM177.44 53.1875C176.573 53.1875 175.945 52.7997 175.945 52.0426C175.945 51.2116 176.702 50.9531 177.551 50.8423C178.013 50.7869 179.25 50.6577 179.435 50.4361V51.4332C179.435 52.3196 178.733 53.1875 177.44 53.1875ZM182.513 54H183.602V46.9091H182.513V54ZM183.067 45.7273C183.491 45.7273 183.842 45.3949 183.842 44.9886C183.842 44.5824 183.491 44.25 183.067 44.25C182.642 44.25 182.291 44.5824 182.291 44.9886C182.291 45.3949 182.642 45.7273 183.067 45.7273ZM186.687 49.7344C186.687 48.4972 187.454 47.7955 188.497 47.7955C189.508 47.7955 190.122 48.4556 190.122 49.5682V54H191.211V49.4943C191.211 47.6847 190.247 46.8168 188.811 46.8168C187.74 46.8168 187.075 47.2969 186.743 48.017H186.65V46.9091H185.598V54H186.687V49.7344ZM196.858 56.6591H197.948V52.9105H198.04C198.28 53.2983 198.742 54.1477 200.108 54.1477C201.881 54.1477 203.118 52.7259 203.118 50.473C203.118 48.2386 201.881 46.8168 200.09 46.8168C198.705 46.8168 198.28 47.6662 198.04 48.0355H197.911V46.9091H196.858V56.6591ZM197.93 50.4545C197.93 48.8665 198.631 47.7955 199.961 47.7955C201.346 47.7955 202.029 48.9588 202.029 50.4545C202.029 51.9688 201.327 53.169 199.961 53.169C198.65 53.169 197.93 52.0611 197.93 50.4545ZM204.78 54H205.87V49.5128C205.87 48.5526 206.627 47.8509 207.661 47.8509C207.952 47.8509 208.252 47.9062 208.326 47.9247V46.8168C208.201 46.8075 207.915 46.7983 207.753 46.7983C206.904 46.7983 206.165 47.2784 205.907 47.9801H205.833V46.9091H204.78V54ZM212.374 54.1477C213.815 54.1477 214.867 53.4276 215.2 52.3565L214.147 52.0611C213.87 52.7997 213.229 53.169 212.374 53.169C211.096 53.169 210.214 52.3427 210.163 50.8239H215.311V50.3622C215.311 47.7216 213.741 46.8168 212.264 46.8168C210.343 46.8168 209.069 48.331 209.069 50.5099C209.069 52.6889 210.325 54.1477 212.374 54.1477ZM210.163 49.8821C210.237 48.7788 211.017 47.7955 212.264 47.7955C213.445 47.7955 214.203 48.6818 214.203 49.8821H210.163ZM221.991 48.4972C221.649 47.4908 220.883 46.8168 219.479 46.8168C217.983 46.8168 216.876 47.6662 216.876 48.8665C216.876 49.8452 217.457 50.5007 218.759 50.8054L219.941 51.0824C220.656 51.2486 220.993 51.5902 220.993 52.0795C220.993 52.6889 220.347 53.1875 219.331 53.1875C218.441 53.1875 217.882 52.8043 217.688 52.0426L216.654 52.3011C216.908 53.506 217.9 54.1477 219.35 54.1477C220.998 54.1477 222.12 53.2475 222.12 52.0241C222.12 51.0362 221.501 50.413 220.236 50.1037L219.184 49.8452C218.344 49.6374 217.965 49.3558 217.965 48.8111C217.965 48.2017 218.611 47.7585 219.479 47.7585C220.43 47.7585 220.823 48.2848 221.012 48.7741L221.991 48.4972ZM226.733 54.1477C228.173 54.1477 229.226 53.4276 229.558 52.3565L228.506 52.0611C228.229 52.7997 227.587 53.169 226.733 53.169C225.454 53.169 224.572 52.3427 224.522 50.8239H229.669V50.3622C229.669 47.7216 228.099 46.8168 226.622 46.8168C224.702 46.8168 223.427 48.331 223.427 50.5099C223.427 52.6889 224.683 54.1477 226.733 54.1477ZM224.522 49.8821C224.595 48.7788 225.376 47.7955 226.622 47.7955C227.804 47.7955 228.561 48.6818 228.561 49.8821H224.522ZM232.416 49.7344C232.416 48.4972 233.182 47.7955 234.225 47.7955C235.236 47.7955 235.85 48.4556 235.85 49.5682V54H236.94V49.4943C236.94 47.6847 235.975 46.8168 234.539 46.8168C233.468 46.8168 232.804 47.2969 232.471 48.017H232.379V46.9091H231.326V54H232.416V49.7344ZM242.015 46.9091H240.5V45.2102H239.411V46.9091H238.34V47.8324H239.411V52.2642C239.411 53.5014 240.408 54.0923 241.331 54.0923C241.738 54.0923 241.996 54.0185 242.144 53.9631L241.922 52.9844C241.83 53.0028 241.682 53.0398 241.442 53.0398C240.962 53.0398 240.5 52.892 240.5 51.9688V47.8324H242.015V46.9091ZM248.916 54H249.987L251.538 48.5526H251.649L253.2 54H254.271L256.432 46.9091H255.287L253.754 52.3196H253.68L252.185 46.9091H251.021L249.507 52.3381H249.433L247.901 46.9091H246.756L248.916 54ZM258.962 49.7344C258.962 48.4972 259.751 47.7955 260.827 47.7955C261.852 47.7955 262.47 48.4418 262.47 49.5682V54H263.56V49.4943C263.56 47.6708 262.59 46.8168 261.141 46.8168C260.023 46.8168 259.386 47.283 259.054 48.017H258.962V44.5455H257.872V54H258.962V49.7344ZM265.553 54H266.642V46.9091H265.553V54ZM266.107 45.7273C266.532 45.7273 266.882 45.3949 266.882 44.9886C266.882 44.5824 266.532 44.25 266.107 44.25C265.682 44.25 265.331 44.5824 265.331 44.9886C265.331 45.3949 265.682 45.7273 266.107 45.7273ZM269.727 44.5455H268.638V54H269.727V44.5455ZM274.696 54.1477C276.136 54.1477 277.189 53.4276 277.521 52.3565L276.468 52.0611C276.191 52.7997 275.55 53.169 274.696 53.169C273.417 53.169 272.535 52.3427 272.484 50.8239H277.632V50.3622C277.632 47.7216 276.062 46.8168 274.585 46.8168C272.665 46.8168 271.39 48.331 271.39 50.5099C271.39 52.6889 272.646 54.1477 274.696 54.1477ZM272.484 49.8821C272.558 48.7788 273.339 47.7955 274.585 47.7955C275.767 47.7955 276.524 48.6818 276.524 49.8821H272.484ZM282.945 54H284.035V51.3455L284.797 50.6392L287.451 54H288.836L285.618 49.9375L288.614 46.9091H287.266L284.164 50.0668H284.035V44.5455H282.945V54ZM292.698 54.1477C294.138 54.1477 295.191 53.4276 295.523 52.3565L294.47 52.0611C294.193 52.7997 293.552 53.169 292.698 53.169C291.419 53.169 290.537 52.3427 290.486 50.8239H295.634V50.3622C295.634 47.7216 294.064 46.8168 292.587 46.8168C290.666 46.8168 289.392 48.331 289.392 50.5099C289.392 52.6889 290.648 54.1477 292.698 54.1477ZM290.486 49.8821C290.56 48.7788 291.34 47.7955 292.587 47.7955C293.769 47.7955 294.526 48.6818 294.526 49.8821H290.486ZM300.264 54.1477C301.704 54.1477 302.757 53.4276 303.089 52.3565L302.037 52.0611C301.76 52.7997 301.118 53.169 300.264 53.169C298.985 53.169 298.104 52.3427 298.053 50.8239H303.2V50.3622C303.2 47.7216 301.631 46.8168 300.153 46.8168C298.233 46.8168 296.959 48.331 296.959 50.5099C296.959 52.6889 298.214 54.1477 300.264 54.1477ZM298.053 49.8821C298.127 48.7788 298.907 47.7955 300.153 47.7955C301.335 47.7955 302.092 48.6818 302.092 49.8821H298.053ZM304.858 56.6591H305.947V52.9105H306.039C306.279 53.2983 306.741 54.1477 308.108 54.1477C309.88 54.1477 311.117 52.7259 311.117 50.473C311.117 48.2386 309.88 46.8168 308.089 46.8168C306.704 46.8168 306.279 47.6662 306.039 48.0355H305.91V46.9091H304.858V56.6591ZM305.929 50.4545C305.929 48.8665 306.63 47.7955 307.96 47.7955C309.345 47.7955 310.028 48.9588 310.028 50.4545C310.028 51.9688 309.326 53.169 307.96 53.169C306.649 53.169 305.929 52.0611 305.929 50.4545ZM312.779 54H313.869V46.9091H312.779V54ZM313.333 45.7273C313.758 45.7273 314.109 45.3949 314.109 44.9886C314.109 44.5824 313.758 44.25 313.333 44.25C312.909 44.25 312.558 44.5824 312.558 44.9886C312.558 45.3949 312.909 45.7273 313.333 45.7273ZM316.954 49.7344C316.954 48.4972 317.72 47.7955 318.763 47.7955C319.775 47.7955 320.388 48.4556 320.388 49.5682V54H321.478V49.4943C321.478 47.6847 320.513 46.8168 319.077 46.8168C318.006 46.8168 317.342 47.2969 317.009 48.017H316.917V46.9091H315.864V54H316.954V49.7344ZM326.331 56.8068C328.03 56.8068 329.396 56.0312 329.396 54.2031V46.9091H328.344V48.0355H328.233C327.993 47.6662 327.55 46.8168 326.165 46.8168C324.374 46.8168 323.136 48.2386 323.136 50.4176C323.136 52.6335 324.429 53.8892 326.146 53.8892C327.531 53.8892 327.975 53.0767 328.215 52.6889H328.307V54.1293C328.307 55.3111 327.476 55.8466 326.331 55.8466C325.043 55.8466 324.591 55.168 324.3 54.7756L323.432 55.3849C323.875 56.1282 324.748 56.8068 326.331 56.8068ZM326.294 52.9105C324.928 52.9105 324.226 51.8764 324.226 50.3991C324.226 48.9588 324.909 47.7955 326.294 47.7955C327.624 47.7955 328.325 48.8665 328.325 50.3991C328.325 51.9688 327.605 52.9105 326.294 52.9105ZM96.9972 72.6591H98.0866V68.9105H98.179C98.419 69.2983 98.8807 70.1477 100.247 70.1477C102.02 70.1477 103.257 68.7259 103.257 66.473C103.257 64.2386 102.02 62.8168 100.229 62.8168C98.8438 62.8168 98.419 63.6662 98.179 64.0355H98.0497V62.9091H96.9972V72.6591ZM98.0682 66.4545C98.0682 64.8665 98.7699 63.7955 100.099 63.7955C101.484 63.7955 102.168 64.9588 102.168 66.4545C102.168 67.9688 101.466 69.169 100.099 69.169C98.7884 69.169 98.0682 68.0611 98.0682 66.4545ZM107.892 70.1477C109.332 70.1477 110.385 69.4276 110.717 68.3565L109.665 68.0611C109.388 68.7997 108.746 69.169 107.892 69.169C106.613 69.169 105.732 68.3427 105.681 66.8239H110.828V66.3622C110.828 63.7216 109.259 62.8168 107.781 62.8168C105.861 62.8168 104.587 64.331 104.587 66.5099C104.587 68.6889 105.842 70.1477 107.892 70.1477ZM105.681 65.8821C105.755 64.7788 106.535 63.7955 107.781 63.7955C108.963 63.7955 109.72 64.6818 109.72 65.8821H105.681ZM112.485 70H113.575V65.5128C113.575 64.5526 114.332 63.8509 115.366 63.8509C115.657 63.8509 115.957 63.9062 116.031 63.9247V62.8168C115.906 62.8075 115.62 62.7983 115.458 62.7983C114.609 62.7983 113.87 63.2784 113.612 63.9801H113.538V62.9091H112.485V70ZM122.345 64.4972C122.003 63.4908 121.237 62.8168 119.834 62.8168C118.338 62.8168 117.23 63.6662 117.23 64.8665C117.23 65.8452 117.812 66.5007 119.114 66.8054L120.295 67.0824C121.011 67.2486 121.348 67.5902 121.348 68.0795C121.348 68.6889 120.702 69.1875 119.686 69.1875C118.795 69.1875 118.236 68.8043 118.043 68.0426L117.008 68.3011C117.262 69.506 118.255 70.1477 119.704 70.1477C121.353 70.1477 122.474 69.2475 122.474 68.0241C122.474 67.0362 121.856 66.413 120.591 66.1037L119.538 65.8452C118.698 65.6374 118.32 65.3558 118.32 64.8111C118.32 64.2017 118.966 63.7585 119.834 63.7585C120.785 63.7585 121.177 64.2848 121.366 64.7741L122.345 64.4972ZM124.114 72.6591H125.204V68.9105H125.296C125.536 69.2983 125.998 70.1477 127.364 70.1477C129.137 70.1477 130.374 68.7259 130.374 66.473C130.374 64.2386 129.137 62.8168 127.346 62.8168C125.961 62.8168 125.536 63.6662 125.296 64.0355H125.167V62.9091H124.114V72.6591ZM125.185 66.4545C125.185 64.8665 125.887 63.7955 127.217 63.7955C128.602 63.7955 129.285 64.9588 129.285 66.4545C129.285 67.9688 128.583 69.169 127.217 69.169C125.906 69.169 125.185 68.0611 125.185 66.4545ZM135.009 70.1477C136.45 70.1477 137.502 69.4276 137.835 68.3565L136.782 68.0611C136.505 68.7997 135.863 69.169 135.009 69.169C133.73 69.169 132.849 68.3427 132.798 66.8239H137.945V66.3622C137.945 63.7216 136.376 62.8168 134.898 62.8168C132.978 62.8168 131.704 64.331 131.704 66.5099C131.704 68.6889 132.96 70.1477 135.009 70.1477ZM132.798 65.8821C132.872 64.7788 133.652 63.7955 134.898 63.7955C136.08 63.7955 136.837 64.6818 136.837 65.8821H132.798ZM142.483 70.1477C144.053 70.1477 145.087 69.1875 145.272 67.9318H144.182C143.979 68.7074 143.333 69.169 142.483 69.169C141.191 69.169 140.36 68.098 140.36 66.4545C140.36 64.848 141.209 63.7955 142.483 63.7955C143.444 63.7955 144.016 64.3864 144.182 65.0327H145.272C145.087 63.7031 143.961 62.8168 142.465 62.8168C140.544 62.8168 139.27 64.331 139.27 66.4915C139.27 68.6151 140.489 70.1477 142.483 70.1477ZM149.948 62.9091H148.434V61.2102H147.344V62.9091H146.273V63.8324H147.344V68.2642C147.344 69.5014 148.342 70.0923 149.265 70.0923C149.671 70.0923 149.93 70.0185 150.077 69.9631L149.856 68.9844C149.763 69.0028 149.616 69.0398 149.376 69.0398C148.896 69.0398 148.434 68.892 148.434 67.9688V63.8324H149.948V62.9091ZM151.587 70H152.676V62.9091H151.587V70ZM152.141 61.7273C152.566 61.7273 152.917 61.3949 152.917 60.9886C152.917 60.5824 152.566 60.25 152.141 60.25C151.716 60.25 151.365 60.5824 151.365 60.9886C151.365 61.3949 151.716 61.7273 152.141 61.7273ZM160.47 62.9091H159.288L157.331 68.5597H157.257L155.3 62.9091H154.118L156.74 70H157.848L160.47 62.9091ZM164.627 70.1477C166.068 70.1477 167.12 69.4276 167.453 68.3565L166.4 68.0611C166.123 68.7997 165.481 69.169 164.627 69.169C163.349 69.169 162.467 68.3427 162.416 66.8239H167.563V66.3622C167.563 63.7216 165.994 62.8168 164.517 62.8168C162.596 62.8168 161.322 64.331 161.322 66.5099C161.322 68.6889 162.578 70.1477 164.627 70.1477ZM162.416 65.8821C162.49 64.7788 163.27 63.7955 164.517 63.7955C165.698 63.7955 166.456 64.6818 166.456 65.8821H162.416ZM170.015 70.0739C170.472 70.0739 170.846 69.6999 170.846 69.2429C170.846 68.7859 170.472 68.4119 170.015 68.4119C169.558 68.4119 169.184 68.7859 169.184 69.2429C169.184 69.6999 169.558 70.0739 170.015 70.0739ZM177.75 60.5455H176.605V70H177.75V60.5455ZM182.981 62.9091H181.467V61.2102H180.378V62.9091H179.307V63.8324H180.378V68.2642C180.378 69.5014 181.375 70.0923 182.298 70.0923C182.704 70.0923 182.963 70.0185 183.111 69.9631L182.889 68.9844C182.797 69.0028 182.649 69.0398 182.409 69.0398C181.929 69.0398 181.467 68.892 181.467 67.9688V63.8324H182.981V62.9091ZM188.276 72.6591H189.366V68.9105H189.458C189.698 69.2983 190.16 70.1477 191.526 70.1477C193.299 70.1477 194.536 68.7259 194.536 66.473C194.536 64.2386 193.299 62.8168 191.508 62.8168C190.123 62.8168 189.698 63.6662 189.458 64.0355H189.329V62.9091H188.276V72.6591ZM189.347 66.4545C189.347 64.8665 190.049 63.7955 191.379 63.7955C192.764 63.7955 193.447 64.9588 193.447 66.4545C193.447 67.9688 192.745 69.169 191.379 69.169C190.068 69.169 189.347 68.0611 189.347 66.4545ZM196.198 70H197.288V65.5128C197.288 64.5526 198.045 63.8509 199.079 63.8509C199.37 63.8509 199.67 63.9062 199.744 63.9247V62.8168C199.619 62.8075 199.333 62.7983 199.171 62.7983C198.322 62.7983 197.583 63.2784 197.325 63.9801H197.251V62.9091H196.198V70ZM203.792 70.1477C205.233 70.1477 206.285 69.4276 206.618 68.3565L205.565 68.0611C205.288 68.7997 204.646 69.169 203.792 69.169C202.514 69.169 201.632 68.3427 201.581 66.8239H206.729V66.3622C206.729 63.7216 205.159 62.8168 203.682 62.8168C201.761 62.8168 200.487 64.331 200.487 66.5099C200.487 68.6889 201.743 70.1477 203.792 70.1477ZM201.581 65.8821C201.655 64.7788 202.435 63.7955 203.682 63.7955C204.863 63.7955 205.621 64.6818 205.621 65.8821H201.581ZM213.409 64.4972C213.067 63.4908 212.301 62.8168 210.897 62.8168C209.401 62.8168 208.294 63.6662 208.294 64.8665C208.294 65.8452 208.875 66.5007 210.177 66.8054L211.359 67.0824C212.074 67.2486 212.411 67.5902 212.411 68.0795C212.411 68.6889 211.765 69.1875 210.749 69.1875C209.858 69.1875 209.3 68.8043 209.106 68.0426L208.072 68.3011C208.326 69.506 209.318 70.1477 210.768 70.1477C212.416 70.1477 213.538 69.2475 213.538 68.0241C213.538 67.0362 212.919 66.413 211.654 66.1037L210.602 65.8452C209.762 65.6374 209.383 65.3558 209.383 64.8111C209.383 64.2017 210.029 63.7585 210.897 63.7585C211.848 63.7585 212.241 64.2848 212.43 64.7741L213.409 64.4972ZM218.151 70.1477C219.591 70.1477 220.644 69.4276 220.976 68.3565L219.924 68.0611C219.647 68.7997 219.005 69.169 218.151 69.169C216.872 69.169 215.99 68.3427 215.94 66.8239H221.087V66.3622C221.087 63.7216 219.517 62.8168 218.04 62.8168C216.12 62.8168 214.845 64.331 214.845 66.5099C214.845 68.6889 216.101 70.1477 218.151 70.1477ZM215.94 65.8821C216.013 64.7788 216.794 63.7955 218.04 63.7955C219.222 63.7955 219.979 64.6818 219.979 65.8821H215.94ZM223.834 65.7344C223.834 64.4972 224.6 63.7955 225.643 63.7955C226.654 63.7955 227.268 64.4556 227.268 65.5682V70H228.358V65.4943C228.358 63.6847 227.393 62.8168 225.957 62.8168C224.886 62.8168 224.222 63.2969 223.889 64.017H223.797V62.9091H222.744V70H223.834V65.7344ZM233.433 62.9091H231.918V61.2102H230.829V62.9091H229.758V63.8324H230.829V68.2642C230.829 69.5014 231.826 70.0923 232.749 70.0923C233.156 70.0923 233.414 70.0185 233.562 69.9631L233.34 68.9844C233.248 69.0028 233.1 69.0398 232.86 69.0398C232.38 69.0398 231.918 68.892 231.918 67.9688V63.8324H233.433V62.9091ZM239.967 64.4972C239.626 63.4908 238.859 62.8168 237.456 62.8168C235.96 62.8168 234.852 63.6662 234.852 64.8665C234.852 65.8452 235.434 66.5007 236.736 66.8054L237.917 67.0824C238.633 67.2486 238.97 67.5902 238.97 68.0795C238.97 68.6889 238.324 69.1875 237.308 69.1875C236.417 69.1875 235.858 68.8043 235.665 68.0426L234.631 68.3011C234.884 69.506 235.877 70.1477 237.327 70.1477C238.975 70.1477 240.096 69.2475 240.096 68.0241C240.096 67.0362 239.478 66.413 238.213 66.1037L237.16 65.8452C236.32 65.6374 235.942 65.3558 235.942 64.8111C235.942 64.2017 236.588 63.7585 237.456 63.7585C238.407 63.7585 238.799 64.2848 238.988 64.7741L239.967 64.4972ZM247.479 70.1662C248.717 70.1662 249.363 69.5014 249.584 69.0398H249.64V70H250.729V65.3281C250.729 63.0753 249.012 62.8168 248.107 62.8168C247.036 62.8168 245.817 63.1861 245.263 64.4787L246.297 64.848C246.538 64.331 247.105 63.777 248.144 63.777C249.146 63.777 249.64 64.3079 249.64 65.2173V65.2543C249.64 65.7805 249.104 65.7344 247.812 65.9006C246.496 66.0714 245.06 66.3622 245.06 67.9872C245.06 69.3722 246.131 70.1662 247.479 70.1662ZM247.646 69.1875C246.778 69.1875 246.15 68.7997 246.15 68.0426C246.15 67.2116 246.907 66.9531 247.756 66.8423C248.218 66.7869 249.455 66.6577 249.64 66.4361V67.4332C249.64 68.3196 248.938 69.1875 247.646 69.1875ZM253.807 65.7344C253.807 64.4972 254.574 63.7955 255.617 63.7955C256.628 63.7955 257.242 64.4556 257.242 65.5682V70H258.331V65.4943C258.331 63.6847 257.367 62.8168 255.931 62.8168C254.86 62.8168 254.195 63.2969 253.863 64.017H253.77V62.9091H252.718V70H253.807V65.7344ZM266.859 70.1477C268.78 70.1477 270.072 68.6889 270.072 66.4915C270.072 64.2756 268.78 62.8168 266.859 62.8168C264.939 62.8168 263.646 64.2756 263.646 66.4915C263.646 68.6889 264.939 70.1477 266.859 70.1477ZM266.859 69.169C265.4 69.169 264.736 67.9134 264.736 66.4915C264.736 65.0696 265.4 63.7955 266.859 63.7955C268.318 63.7955 268.983 65.0696 268.983 66.4915C268.983 67.9134 268.318 69.169 266.859 69.169ZM271.735 72.6591H272.825V68.9105H272.917C273.157 69.2983 273.619 70.1477 274.985 70.1477C276.758 70.1477 277.995 68.7259 277.995 66.473C277.995 64.2386 276.758 62.8168 274.967 62.8168C273.582 62.8168 273.157 63.6662 272.917 64.0355H272.788V62.9091H271.735V72.6591ZM272.806 66.4545C272.806 64.8665 273.508 63.7955 274.838 63.7955C276.223 63.7955 276.906 64.9588 276.906 66.4545C276.906 67.9688 276.204 69.169 274.838 69.169C273.527 69.169 272.806 68.0611 272.806 66.4545ZM279.657 72.6591H280.747V68.9105H280.839C281.079 69.2983 281.541 70.1477 282.907 70.1477C284.68 70.1477 285.917 68.7259 285.917 66.473C285.917 64.2386 284.68 62.8168 282.889 62.8168C281.504 62.8168 281.079 63.6662 280.839 64.0355H280.71V62.9091H279.657V72.6591ZM280.728 66.4545C280.728 64.8665 281.43 63.7955 282.76 63.7955C284.145 63.7955 284.828 64.9588 284.828 66.4545C284.828 67.9688 284.126 69.169 282.76 69.169C281.449 69.169 280.728 68.0611 280.728 66.4545ZM290.46 70.1477C292.38 70.1477 293.673 68.6889 293.673 66.4915C293.673 64.2756 292.38 62.8168 290.46 62.8168C288.539 62.8168 287.247 64.2756 287.247 66.4915C287.247 68.6889 288.539 70.1477 290.46 70.1477ZM290.46 69.169C289.001 69.169 288.336 67.9134 288.336 66.4915C288.336 65.0696 289.001 63.7955 290.46 63.7955C291.919 63.7955 292.583 65.0696 292.583 66.4915C292.583 67.9134 291.919 69.169 290.46 69.169ZM295.336 70H296.426V65.5128C296.426 64.5526 297.183 63.8509 298.217 63.8509C298.508 63.8509 298.808 63.9062 298.881 63.9247V62.8168C298.757 62.8075 298.471 62.7983 298.309 62.7983C297.46 62.7983 296.721 63.2784 296.462 63.9801H296.389V62.9091H295.336V70ZM303.701 62.9091H302.187V61.2102H301.097V62.9091H300.026V63.8324H301.097V68.2642C301.097 69.5014 302.095 70.0923 303.018 70.0923C303.424 70.0923 303.683 70.0185 303.83 69.9631L303.609 68.9844C303.516 69.0028 303.369 69.0398 303.129 69.0398C302.649 69.0398 302.187 68.892 302.187 67.9688V63.8324H303.701V62.9091ZM309.809 67.1009C309.809 68.4304 308.793 69.0398 307.981 69.0398C307.076 69.0398 306.429 68.375 306.429 67.3409V62.9091H305.34V67.4148C305.34 69.2244 306.3 70.0923 307.63 70.0923C308.701 70.0923 309.402 69.5199 309.735 68.7997H309.809V70H310.898V62.9091H309.809V67.1009ZM313.983 65.7344C313.983 64.4972 314.749 63.7955 315.793 63.7955C316.804 63.7955 317.418 64.4556 317.418 65.5682V70H318.507V65.4943C318.507 63.6847 317.542 62.8168 316.107 62.8168C315.036 62.8168 314.371 63.2969 314.039 64.017H313.946V62.9091H312.894V70H313.983V65.7344ZM320.498 70H321.588V62.9091H320.498V70ZM321.052 61.7273C321.477 61.7273 321.828 61.3949 321.828 60.9886C321.828 60.5824 321.477 60.25 321.052 60.25C320.627 60.25 320.277 60.5824 320.277 60.9886C320.277 61.3949 320.627 61.7273 321.052 61.7273ZM326.667 62.9091H325.153V61.2102H324.063V62.9091H322.992V63.8324H324.063V68.2642C324.063 69.5014 325.06 70.0923 325.984 70.0923C326.39 70.0923 326.648 70.0185 326.796 69.9631L326.575 68.9844C326.482 69.0028 326.335 69.0398 326.094 69.0398C325.614 69.0398 325.153 68.892 325.153 67.9688V63.8324H326.667V62.9091ZM329.007 72.6591C329.991 72.6591 330.683 72.1374 331.094 71.0341L334.113 62.9276L332.922 62.9091L330.965 68.5597H330.891L328.934 62.9091H327.752L330.374 70.0369L330.171 70.5909C329.774 71.6712 329.284 71.7727 328.49 71.5696L328.213 72.5298C328.324 72.5852 328.638 72.6591 329.007 72.6591ZM100.155 78.9091H98.5668V78.1889C98.5668 77.4872 98.8622 77.1179 99.5824 77.1179C99.8963 77.1179 100.081 77.1918 100.192 77.2287L100.506 76.2869C100.339 76.2131 100.007 76.1023 99.4716 76.1023C98.456 76.1023 97.4773 76.7116 97.4773 77.9304V78.9091H96.3324V79.8324H97.4773V86H98.5668V79.8324H100.155V78.9091ZM104.27 86.1477C106.191 86.1477 107.483 84.6889 107.483 82.4915C107.483 80.2756 106.191 78.8168 104.27 78.8168C102.35 78.8168 101.057 80.2756 101.057 82.4915C101.057 84.6889 102.35 86.1477 104.27 86.1477ZM104.27 85.169C102.812 85.169 102.147 83.9134 102.147 82.4915C102.147 81.0696 102.812 79.7955 104.27 79.7955C105.729 79.7955 106.394 81.0696 106.394 82.4915C106.394 83.9134 105.729 85.169 104.27 85.169ZM109.147 86H110.236V81.5128C110.236 80.5526 110.993 79.8509 112.027 79.8509C112.318 79.8509 112.618 79.9062 112.692 79.9247V78.8168C112.567 78.8075 112.281 78.7983 112.12 78.7983C111.27 78.7983 110.532 79.2784 110.273 79.9801H110.199V78.9091H109.147V86ZM120.613 86.1477C122.053 86.1477 123.106 85.4276 123.438 84.3565L122.385 84.0611C122.108 84.7997 121.467 85.169 120.613 85.169C119.334 85.169 118.452 84.3427 118.401 82.8239H123.549V82.3622C123.549 79.7216 121.979 78.8168 120.502 78.8168C118.581 78.8168 117.307 80.331 117.307 82.5099C117.307 84.6889 118.563 86.1477 120.613 86.1477ZM118.401 81.8821C118.475 80.7788 119.256 79.7955 120.502 79.7955C121.684 79.7955 122.441 80.6818 122.441 81.8821H118.401ZM125.206 86H126.296V81.5682C126.296 80.5295 127.053 79.7955 127.902 79.7955C128.729 79.7955 129.306 80.3356 129.306 81.1435V86H130.414V81.3835C130.414 80.4695 130.986 79.7955 131.983 79.7955C132.759 79.7955 133.423 80.2063 133.423 81.2543V86H134.513V81.2543C134.513 79.5877 133.617 78.8168 132.352 78.8168C131.337 78.8168 130.594 79.283 130.229 80.017H130.155C129.804 79.2599 129.186 78.8168 128.253 78.8168C127.33 78.8168 126.646 79.2599 126.351 80.017H126.259V78.9091H125.206V86ZM139.386 86.1477C141.306 86.1477 142.599 84.6889 142.599 82.4915C142.599 80.2756 141.306 78.8168 139.386 78.8168C137.465 78.8168 136.173 80.2756 136.173 82.4915C136.173 84.6889 137.465 86.1477 139.386 86.1477ZM139.386 85.169C137.927 85.169 137.262 83.9134 137.262 82.4915C137.262 81.0696 137.927 79.7955 139.386 79.7955C140.844 79.7955 141.509 81.0696 141.509 82.4915C141.509 83.9134 140.844 85.169 139.386 85.169ZM147.346 78.9091H145.831V77.2102H144.742V78.9091H143.671V79.8324H144.742V84.2642C144.742 85.5014 145.739 86.0923 146.662 86.0923C147.069 86.0923 147.327 86.0185 147.475 85.9631L147.253 84.9844C147.161 85.0028 147.013 85.0398 146.773 85.0398C146.293 85.0398 145.831 84.892 145.831 83.9688V79.8324H147.346V78.9091ZM148.984 86H150.074V78.9091H148.984V86ZM149.538 77.7273C149.963 77.7273 150.314 77.3949 150.314 76.9886C150.314 76.5824 149.963 76.25 149.538 76.25C149.114 76.25 148.763 76.5824 148.763 76.9886C148.763 77.3949 149.114 77.7273 149.538 77.7273ZM154.95 86.1477C156.871 86.1477 158.163 84.6889 158.163 82.4915C158.163 80.2756 156.871 78.8168 154.95 78.8168C153.03 78.8168 151.737 80.2756 151.737 82.4915C151.737 84.6889 153.03 86.1477 154.95 86.1477ZM154.95 85.169C153.491 85.169 152.827 83.9134 152.827 82.4915C152.827 81.0696 153.491 79.7955 154.95 79.7955C156.409 79.7955 157.074 81.0696 157.074 82.4915C157.074 83.9134 156.409 85.169 154.95 85.169ZM160.916 81.7344C160.916 80.4972 161.682 79.7955 162.725 79.7955C163.736 79.7955 164.35 80.4556 164.35 81.5682V86H165.44V81.4943C165.44 79.6847 164.475 78.8168 163.039 78.8168C161.968 78.8168 161.304 79.2969 160.971 80.017H160.879V78.9091H159.826V86H160.916V81.7344ZM169.517 86.1662C170.755 86.1662 171.401 85.5014 171.623 85.0398H171.678V86H172.767V81.3281C172.767 79.0753 171.05 78.8168 170.145 78.8168C169.074 78.8168 167.855 79.1861 167.301 80.4787L168.336 80.848C168.576 80.331 169.143 79.777 170.182 79.777C171.184 79.777 171.678 80.3079 171.678 81.2173V81.2543C171.678 81.7805 171.142 81.7344 169.85 81.9006C168.534 82.0714 167.098 82.3622 167.098 83.9872C167.098 85.3722 168.169 86.1662 169.517 86.1662ZM169.684 85.1875C168.816 85.1875 168.188 84.7997 168.188 84.0426C168.188 83.2116 168.945 82.9531 169.794 82.8423C170.256 82.7869 171.493 82.6577 171.678 82.4361V83.4332C171.678 84.3196 170.976 85.1875 169.684 85.1875ZM175.845 76.5455H174.756V86H175.845V76.5455ZM184.378 86.1477C185.947 86.1477 186.982 85.1875 187.166 83.9318H186.077C185.874 84.7074 185.227 85.169 184.378 85.169C183.085 85.169 182.254 84.098 182.254 82.4545C182.254 80.848 183.104 79.7955 184.378 79.7955C185.338 79.7955 185.911 80.3864 186.077 81.0327H187.166C186.982 79.7031 185.855 78.8168 184.359 78.8168C182.439 78.8168 181.165 80.331 181.165 82.4915C181.165 84.6151 182.384 86.1477 184.378 86.1477ZM190.846 86.1662C192.083 86.1662 192.729 85.5014 192.951 85.0398H193.006V86H194.096V81.3281C194.096 79.0753 192.378 78.8168 191.473 78.8168C190.402 78.8168 189.184 79.1861 188.63 80.4787L189.664 80.848C189.904 80.331 190.472 79.777 191.51 79.777C192.512 79.777 193.006 80.3079 193.006 81.2173V81.2543C193.006 81.7805 192.471 81.7344 191.178 81.9006C189.862 82.0714 188.426 82.3622 188.426 83.9872C188.426 85.3722 189.498 86.1662 190.846 86.1662ZM191.012 85.1875C190.144 85.1875 189.516 84.7997 189.516 84.0426C189.516 83.2116 190.273 82.9531 191.123 82.8423C191.584 82.7869 192.821 82.6577 193.006 82.4361V83.4332C193.006 84.3196 192.304 85.1875 191.012 85.1875ZM199.168 78.9091H197.654V77.2102H196.564V78.9091H195.493V79.8324H196.564V84.2642C196.564 85.5014 197.561 86.0923 198.485 86.0923C198.891 86.0923 199.149 86.0185 199.297 85.9631L199.076 84.9844C198.983 85.0028 198.835 85.0398 198.595 85.0398C198.115 85.0398 197.654 84.892 197.654 83.9688V79.8324H199.168V78.9091ZM202.049 81.7344C202.049 80.4972 202.838 79.7955 203.914 79.7955C204.938 79.7955 205.557 80.4418 205.557 81.5682V86H206.647V81.4943C206.647 79.6708 205.677 78.8168 204.228 78.8168C203.11 78.8168 202.473 79.283 202.141 80.017H202.049V76.5455H200.959V86H202.049V81.7344ZM210.726 86.1662C211.964 86.1662 212.61 85.5014 212.831 85.0398H212.887V86H213.976V81.3281C213.976 79.0753 212.259 78.8168 211.354 78.8168C210.283 78.8168 209.064 79.1861 208.51 80.4787L209.545 80.848C209.785 80.331 210.352 79.777 211.391 79.777C212.393 79.777 212.887 80.3079 212.887 81.2173V81.2543C212.887 81.7805 212.351 81.7344 211.059 81.9006C209.743 82.0714 208.307 82.3622 208.307 83.9872C208.307 85.3722 209.378 86.1662 210.726 86.1662ZM210.893 85.1875C210.025 85.1875 209.397 84.7997 209.397 84.0426C209.397 83.2116 210.154 82.9531 211.003 82.8423C211.465 82.7869 212.702 82.6577 212.887 82.4361V83.4332C212.887 84.3196 212.185 85.1875 210.893 85.1875ZM215.965 86H217.054V81.5128C217.054 80.5526 217.812 79.8509 218.846 79.8509C219.136 79.8509 219.437 79.9062 219.51 79.9247V78.8168C219.386 78.8075 219.1 78.7983 218.938 78.7983C218.089 78.7983 217.35 79.2784 217.091 79.9801H217.017V78.9091H215.965V86ZM225.825 80.4972C225.483 79.4908 224.717 78.8168 223.313 78.8168C221.817 78.8168 220.71 79.6662 220.71 80.8665C220.71 81.8452 221.291 82.5007 222.593 82.8054L223.775 83.0824C224.49 83.2486 224.827 83.5902 224.827 84.0795C224.827 84.6889 224.181 85.1875 223.165 85.1875C222.275 85.1875 221.716 84.8043 221.522 84.0426L220.488 84.3011C220.742 85.506 221.734 86.1477 223.184 86.1477C224.832 86.1477 225.954 85.2475 225.954 84.0241C225.954 83.0362 225.335 82.413 224.07 82.1037L223.018 81.8452C222.178 81.6374 221.799 81.3558 221.799 80.8111C221.799 80.2017 222.445 79.7585 223.313 79.7585C224.264 79.7585 224.657 80.2848 224.846 80.7741L225.825 80.4972ZM227.594 86H228.683V78.9091H227.594V86ZM228.148 77.7273C228.573 77.7273 228.923 77.3949 228.923 76.9886C228.923 76.5824 228.573 76.25 228.148 76.25C227.723 76.25 227.372 76.5824 227.372 76.9886C227.372 77.3949 227.723 77.7273 228.148 77.7273ZM235.702 80.4972C235.36 79.4908 234.594 78.8168 233.19 78.8168C231.694 78.8168 230.586 79.6662 230.586 80.8665C230.586 81.8452 231.168 82.5007 232.47 82.8054L233.652 83.0824C234.367 83.2486 234.704 83.5902 234.704 84.0795C234.704 84.6889 234.058 85.1875 233.042 85.1875C232.151 85.1875 231.593 84.8043 231.399 84.0426L230.365 84.3011C230.619 85.506 231.611 86.1477 233.061 86.1477C234.709 86.1477 235.831 85.2475 235.831 84.0241C235.831 83.0362 235.212 82.413 233.947 82.1037L232.895 81.8452C232.055 81.6374 231.676 81.3558 231.676 80.8111C231.676 80.2017 232.322 79.7585 233.19 79.7585C234.141 79.7585 234.534 80.2848 234.723 80.7741L235.702 80.4972ZM243.214 86.1662C244.451 86.1662 245.097 85.5014 245.319 85.0398H245.374V86H246.464V81.3281C246.464 79.0753 244.746 78.8168 243.842 78.8168C242.771 78.8168 241.552 79.1861 240.998 80.4787L242.032 80.848C242.272 80.331 242.84 79.777 243.878 79.777C244.88 79.777 245.374 80.3079 245.374 81.2173V81.2543C245.374 81.7805 244.839 81.7344 243.546 81.9006C242.23 82.0714 240.795 82.3622 240.795 83.9872C240.795 85.3722 241.866 86.1662 243.214 86.1662ZM243.38 85.1875C242.512 85.1875 241.884 84.7997 241.884 84.0426C241.884 83.2116 242.641 82.9531 243.491 82.8423C243.952 82.7869 245.19 82.6577 245.374 82.4361V83.4332C245.374 84.3196 244.672 85.1875 243.38 85.1875ZM249.542 81.7344C249.542 80.4972 250.308 79.7955 251.351 79.7955C252.362 79.7955 252.976 80.4556 252.976 81.5682V86H254.066V81.4943C254.066 79.6847 253.101 78.8168 251.665 78.8168C250.594 78.8168 249.93 79.2969 249.597 80.017H249.505V78.9091H248.452V86H249.542V81.7344ZM258.734 86.1477C260.101 86.1477 260.562 85.2983 260.802 84.9105H260.932V86H261.984V76.5455H260.895V80.0355H260.802C260.562 79.6662 260.138 78.8168 258.753 78.8168C256.962 78.8168 255.724 80.2386 255.724 82.473C255.724 84.7259 256.962 86.1477 258.734 86.1477ZM258.882 85.169C257.516 85.169 256.814 83.9688 256.814 82.4545C256.814 80.9588 257.497 79.7955 258.882 79.7955C260.212 79.7955 260.913 80.8665 260.913 82.4545C260.913 84.0611 260.193 85.169 258.882 85.169ZM268.877 81.7344C268.877 80.4972 269.666 79.7955 270.742 79.7955C271.767 79.7955 272.385 80.4418 272.385 81.5682V86H273.475V81.4943C273.475 79.6708 272.505 78.8168 271.056 78.8168C269.938 78.8168 269.301 79.283 268.969 80.017H268.877V76.5455H267.787V86H268.877V81.7344ZM278.441 86.1477C279.881 86.1477 280.934 85.4276 281.266 84.3565L280.214 84.0611C279.937 84.7997 279.295 85.169 278.441 85.169C277.162 85.169 276.28 84.3427 276.23 82.8239H281.377V82.3622C281.377 79.7216 279.807 78.8168 278.33 78.8168C276.41 78.8168 275.135 80.331 275.135 82.5099C275.135 84.6889 276.391 86.1477 278.441 86.1477ZM276.23 81.8821C276.303 80.7788 277.084 79.7955 278.33 79.7955C279.512 79.7955 280.269 80.6818 280.269 81.8821H276.23ZM284.124 76.5455H283.034V86H284.124V76.5455ZM286.119 88.6591H287.209V84.9105H287.301C287.541 85.2983 288.003 86.1477 289.369 86.1477C291.142 86.1477 292.379 84.7259 292.379 82.473C292.379 80.2386 291.142 78.8168 289.351 78.8168C287.966 78.8168 287.541 79.6662 287.301 80.0355H287.172V78.9091H286.119V88.6591ZM287.19 82.4545C287.19 80.8665 287.892 79.7955 289.222 79.7955C290.606 79.7955 291.29 80.9588 291.29 82.4545C291.29 83.9688 290.588 85.169 289.222 85.169C287.91 85.169 287.19 84.0611 287.19 82.4545ZM299.064 80.4972C298.722 79.4908 297.956 78.8168 296.552 78.8168C295.057 78.8168 293.949 79.6662 293.949 80.8665C293.949 81.8452 294.53 82.5007 295.832 82.8054L297.014 83.0824C297.73 83.2486 298.067 83.5902 298.067 84.0795C298.067 84.6889 297.42 85.1875 296.405 85.1875C295.514 85.1875 294.955 84.8043 294.761 84.0426L293.727 84.3011C293.981 85.506 294.974 86.1477 296.423 86.1477C298.071 86.1477 299.193 85.2475 299.193 84.0241C299.193 83.0362 298.574 82.413 297.31 82.1037L296.257 81.8452C295.417 81.6374 295.038 81.3558 295.038 80.8111C295.038 80.2017 295.685 79.7585 296.552 79.7585C297.503 79.7585 297.896 80.2848 298.085 80.7741L299.064 80.4972ZM307.573 78.9091H306.059V77.2102H304.969V78.9091H303.898V79.8324H304.969V84.2642C304.969 85.5014 305.967 86.0923 306.89 86.0923C307.296 86.0923 307.555 86.0185 307.702 85.9631L307.481 84.9844C307.388 85.0028 307.241 85.0398 307.001 85.0398C306.521 85.0398 306.059 84.892 306.059 83.9688V79.8324H307.573V78.9091ZM310.454 81.7344C310.454 80.4972 311.243 79.7955 312.319 79.7955C313.344 79.7955 313.962 80.4418 313.962 81.5682V86H315.052V81.4943C315.052 79.6708 314.082 78.8168 312.633 78.8168C311.516 78.8168 310.879 79.283 310.546 80.017H310.454V76.5455H309.364V86H310.454V81.7344ZM320.018 86.1477C321.458 86.1477 322.511 85.4276 322.843 84.3565L321.791 84.0611C321.514 84.7997 320.872 85.169 320.018 85.169C318.739 85.169 317.858 84.3427 317.807 82.8239H322.954V82.3622C322.954 79.7216 321.384 78.8168 319.907 78.8168C317.987 78.8168 316.713 80.331 316.713 82.5099C316.713 84.6889 317.968 86.1477 320.018 86.1477ZM317.807 81.8821C317.881 80.7788 318.661 79.7955 319.907 79.7955C321.089 79.7955 321.846 80.6818 321.846 81.8821H317.807ZM97.1449 102H98.1974V100.911H98.3267C98.5668 101.298 99.0284 102.148 100.395 102.148C102.168 102.148 103.405 100.726 103.405 98.473C103.405 96.2386 102.168 94.8168 100.376 94.8168C98.9915 94.8168 98.5668 95.6662 98.3267 96.0355H98.2344V92.5455H97.1449V102ZM98.2159 98.4545C98.2159 96.8665 98.9176 95.7955 100.247 95.7955C101.632 95.7955 102.315 96.9588 102.315 98.4545C102.315 99.9688 101.614 101.169 100.247 101.169C98.9361 101.169 98.2159 100.061 98.2159 98.4545ZM105.071 102H106.161V97.5128C106.161 96.5526 106.918 95.8509 107.952 95.8509C108.243 95.8509 108.543 95.9062 108.617 95.9247V94.8168C108.492 94.8075 108.206 94.7983 108.044 94.7983C107.195 94.7983 106.456 95.2784 106.198 95.9801H106.124V94.9091H105.071V102ZM111.995 102.166C113.232 102.166 113.878 101.501 114.1 101.04H114.155V102H115.245V97.3281C115.245 95.0753 113.528 94.8168 112.623 94.8168C111.552 94.8168 110.333 95.1861 109.779 96.4787L110.813 96.848C111.053 96.331 111.621 95.777 112.66 95.777C113.661 95.777 114.155 96.3079 114.155 97.2173V97.2543C114.155 97.7805 113.62 97.7344 112.327 97.9006C111.012 98.0714 109.576 98.3622 109.576 99.9872C109.576 101.372 110.647 102.166 111.995 102.166ZM112.161 101.188C111.293 101.188 110.665 100.8 110.665 100.043C110.665 99.2116 111.422 98.9531 112.272 98.8423C112.734 98.7869 113.971 98.6577 114.155 98.4361V99.4332C114.155 100.32 113.454 101.188 112.161 101.188ZM117.233 102H118.323V94.9091H117.233V102ZM117.787 93.7273C118.212 93.7273 118.563 93.3949 118.563 92.9886C118.563 92.5824 118.212 92.25 117.787 92.25C117.363 92.25 117.012 92.5824 117.012 92.9886C117.012 93.3949 117.363 93.7273 117.787 93.7273ZM121.408 97.7344C121.408 96.4972 122.174 95.7955 123.218 95.7955C124.229 95.7955 124.843 96.4556 124.843 97.5682V102H125.932V97.4943C125.932 95.6847 124.967 94.8168 123.532 94.8168C122.46 94.8168 121.796 95.2969 121.463 96.017H121.371V94.9091H120.318V102H121.408V97.7344ZM131.579 102H132.669V97.5128C132.669 96.5526 133.426 95.8509 134.46 95.8509C134.751 95.8509 135.051 95.9062 135.125 95.9247V94.8168C135 94.8075 134.714 94.7983 134.552 94.7983C133.703 94.7983 132.964 95.2784 132.706 95.9801H132.632V94.9091H131.579V102ZM139.173 102.148C140.614 102.148 141.666 101.428 141.999 100.357L140.946 100.061C140.669 100.8 140.027 101.169 139.173 101.169C137.895 101.169 137.013 100.343 136.962 98.8239H142.109V98.3622C142.109 95.7216 140.54 94.8168 139.062 94.8168C137.142 94.8168 135.868 96.331 135.868 98.5099C135.868 100.689 137.124 102.148 139.173 102.148ZM136.962 97.8821C137.036 96.7788 137.816 95.7955 139.062 95.7955C140.244 95.7955 141.001 96.6818 141.001 97.8821H136.962ZM146.629 104.807C148.328 104.807 149.694 104.031 149.694 102.203V94.9091H148.642V96.0355H148.531C148.291 95.6662 147.848 94.8168 146.463 94.8168C144.672 94.8168 143.434 96.2386 143.434 98.4176C143.434 100.634 144.727 101.889 146.444 101.889C147.829 101.889 148.272 101.077 148.512 100.689H148.605V102.129C148.605 103.311 147.774 103.847 146.629 103.847C145.341 103.847 144.888 103.168 144.598 102.776L143.73 103.385C144.173 104.128 145.045 104.807 146.629 104.807ZM146.592 100.911C145.225 100.911 144.524 99.8764 144.524 98.3991C144.524 96.9588 145.207 95.7955 146.592 95.7955C147.922 95.7955 148.623 96.8665 148.623 98.3991C148.623 99.9688 147.903 100.911 146.592 100.911ZM156.157 99.1009C156.157 100.43 155.142 101.04 154.329 101.04C153.424 101.04 152.778 100.375 152.778 99.3409V94.9091H151.689V99.4148C151.689 101.224 152.649 102.092 153.978 102.092C155.049 102.092 155.751 101.52 156.083 100.8H156.157V102H157.247V94.9091H156.157V99.1009ZM160.332 92.5455H159.242V102H160.332V92.5455ZM164.414 102.166C165.651 102.166 166.297 101.501 166.519 101.04H166.574V102H167.664V97.3281C167.664 95.0753 165.947 94.8168 165.042 94.8168C163.971 94.8168 162.752 95.1861 162.198 96.4787L163.232 96.848C163.472 96.331 164.04 95.777 165.079 95.777C166.08 95.777 166.574 96.3079 166.574 97.2173V97.2543C166.574 97.7805 166.039 97.7344 164.746 97.9006C163.431 98.0714 161.995 98.3622 161.995 99.9872C161.995 101.372 163.066 102.166 164.414 102.166ZM164.58 101.188C163.712 101.188 163.084 100.8 163.084 100.043C163.084 99.2116 163.841 98.9531 164.691 98.8423C165.153 98.7869 166.39 98.6577 166.574 98.4361V99.4332C166.574 100.32 165.873 101.188 164.58 101.188ZM172.736 94.9091H171.222V93.2102H170.133V94.9091H169.062V95.8324H170.133V100.264C170.133 101.501 171.13 102.092 172.053 102.092C172.459 102.092 172.718 102.018 172.866 101.963L172.644 100.984C172.552 101.003 172.404 101.04 172.164 101.04C171.684 101.04 171.222 100.892 171.222 99.9688V95.8324H172.736V94.9091ZM177.272 102.148C178.712 102.148 179.765 101.428 180.097 100.357L179.045 100.061C178.768 100.8 178.126 101.169 177.272 101.169C175.993 101.169 175.111 100.343 175.061 98.8239H180.208V98.3622C180.208 95.7216 178.638 94.8168 177.161 94.8168C175.241 94.8168 173.967 96.331 173.967 98.5099C173.967 100.689 175.222 102.148 177.272 102.148ZM175.061 97.8821C175.134 96.7788 175.915 95.7955 177.161 95.7955C178.343 95.7955 179.1 96.6818 179.1 97.8821H175.061ZM188.495 102.148C189.935 102.148 190.987 101.428 191.32 100.357L190.267 100.061C189.99 100.8 189.349 101.169 188.495 101.169C187.216 101.169 186.334 100.343 186.283 98.8239H191.431V98.3622C191.431 95.7216 189.861 94.8168 188.384 94.8168C186.463 94.8168 185.189 96.331 185.189 98.5099C185.189 100.689 186.445 102.148 188.495 102.148ZM186.283 97.8821C186.357 96.7788 187.137 95.7955 188.384 95.7955C189.566 95.7955 190.323 96.6818 190.323 97.8821H186.283ZM193.088 102H194.177V97.5682C194.177 96.5295 194.935 95.7955 195.784 95.7955C196.61 95.7955 197.187 96.3356 197.187 97.1435V102H198.295V97.3835C198.295 96.4695 198.868 95.7955 199.865 95.7955C200.641 95.7955 201.305 96.2063 201.305 97.2543V102H202.395V97.2543C202.395 95.5877 201.499 94.8168 200.234 94.8168C199.219 94.8168 198.475 95.283 198.111 96.017H198.037C197.686 95.2599 197.067 94.8168 196.135 94.8168C195.212 94.8168 194.528 95.2599 194.233 96.017H194.141V94.9091H193.088V102ZM207.267 102.148C209.188 102.148 210.481 100.689 210.481 98.4915C210.481 96.2756 209.188 94.8168 207.267 94.8168C205.347 94.8168 204.054 96.2756 204.054 98.4915C204.054 100.689 205.347 102.148 207.267 102.148ZM207.267 101.169C205.809 101.169 205.144 99.9134 205.144 98.4915C205.144 97.0696 205.809 95.7955 207.267 95.7955C208.726 95.7955 209.391 97.0696 209.391 98.4915C209.391 99.9134 208.726 101.169 207.267 101.169ZM215.227 94.9091H213.713V93.2102H212.624V94.9091H211.553V95.8324H212.624V100.264C212.624 101.501 213.621 102.092 214.544 102.092C214.95 102.092 215.209 102.018 215.357 101.963L215.135 100.984C215.043 101.003 214.895 101.04 214.655 101.04C214.175 101.04 213.713 100.892 213.713 99.9688V95.8324H215.227V94.9091ZM216.866 102H217.956V94.9091H216.866V102ZM217.42 93.7273C217.845 93.7273 218.196 93.3949 218.196 92.9886C218.196 92.5824 217.845 92.25 217.42 92.25C216.996 92.25 216.645 92.5824 216.645 92.9886C216.645 93.3949 216.996 93.7273 217.42 93.7273ZM222.832 102.148C224.752 102.148 226.045 100.689 226.045 98.4915C226.045 96.2756 224.752 94.8168 222.832 94.8168C220.911 94.8168 219.619 96.2756 219.619 98.4915C219.619 100.689 220.911 102.148 222.832 102.148ZM222.832 101.169C221.373 101.169 220.708 99.9134 220.708 98.4915C220.708 97.0696 221.373 95.7955 222.832 95.7955C224.291 95.7955 224.956 97.0696 224.956 98.4915C224.956 99.9134 224.291 101.169 222.832 101.169ZM228.798 97.7344C228.798 96.4972 229.564 95.7955 230.607 95.7955C231.618 95.7955 232.232 96.4556 232.232 97.5682V102H233.322V97.4943C233.322 95.6847 232.357 94.8168 230.921 94.8168C229.85 94.8168 229.185 95.2969 228.853 96.017H228.761V94.9091H227.708V102H228.798V97.7344ZM240.335 96.4972C239.994 95.4908 239.227 94.8168 237.824 94.8168C236.328 94.8168 235.22 95.6662 235.22 96.8665C235.22 97.8452 235.802 98.5007 237.104 98.8054L238.286 99.0824C239.001 99.2486 239.338 99.5902 239.338 100.08C239.338 100.689 238.692 101.188 237.676 101.188C236.785 101.188 236.227 100.804 236.033 100.043L234.999 100.301C235.253 101.506 236.245 102.148 237.695 102.148C239.343 102.148 240.465 101.248 240.465 100.024C240.465 99.0362 239.846 98.413 238.581 98.1037L237.528 97.8452C236.688 97.6374 236.31 97.3558 236.31 96.8111C236.31 96.2017 236.956 95.7585 237.824 95.7585C238.775 95.7585 239.167 96.2848 239.357 96.7741L240.335 96.4972ZM242.899 102.074C243.356 102.074 243.73 101.7 243.73 101.243C243.73 100.786 243.356 100.412 242.899 100.412C242.442 100.412 242.068 100.786 242.068 101.243C242.068 101.7 242.442 102.074 242.899 102.074Z" fill="#878FA2"/>
<rect x="78" y="289" width="83" height="24" rx="12" fill="#FCEEB5"/>
<rect x="173" y="289" width="109" height="24" rx="12" fill="#FCEEB5"/>
<rect x="78" y="321" width="138" height="24" rx="12" fill="#FCEEB5"/>
<rect x="228" y="321" width="129" height="24" rx="12" fill="#FCEEB5"/>
<rect x="294" y="289" width="63" height="24" rx="12" fill="#FCEEB5"/>
</svg>
