<svg width="168" height="108" viewBox="0 0 168 108" fill="none" xmlns="http://www.w3.org/2000/svg">
<path d="M36.8472 15.3848H76.4161L83.7437 23.7597V90.7593L77.0442 84.0593H36.8472V15.3848Z" fill="#9B738F"/>
<path d="M91.0712 15.3848H130.64V84.0593H90.4432L83.7437 90.7593V23.7597L91.0712 15.3848Z" fill="#EE8B89"/>
<path d="M92.118 75.6843L83.7437 84.0592V17.0596L88.7683 12.0347H123.941V43.8595L120.312 46.6511L123.941 50.2803V75.6843H92.118Z" fill="#FCEFDF"/>
<path fill-rule="evenodd" clip-rule="evenodd" d="M83.7439 84.0592L75.3696 75.6843H43.5469L43.5469 63.9592L46.8964 60.6092L43.5469 57.2592L43.5469 12.0347H78.7193L83.7439 17.0596V84.0592Z" fill="#F3B194"/>
<path d="M130.64 84.0596L130.64 75.6846L122.266 84.0596L130.64 84.0596Z" fill="#EE8B89"/>
<path d="M130.64 15.3848L122.266 15.3848L130.64 23.7597L130.64 15.3848Z" fill="#EE8B89"/>
<path d="M123.941 70.6592V75.6841H118.917L123.941 70.6592Z" fill="#420062"/>
<path d="M118.917 12.0346L123.941 12.0346L123.941 17.0596L118.917 12.0346Z" fill="#420062"/>
<path d="M36.8472 15.3848V23.7597L45.2216 15.3848H36.8472Z" fill="#EE8B89"/>
<path d="M43.5472 70.6592V75.6841H48.5715L43.5472 70.6592Z" fill="#9B738F"/>
<path d="M48.5715 12.0346L43.5472 12.0346L43.5472 17.0596L48.5715 12.0346Z" fill="#9B738F"/>
<path d="M36.8472 84.0596L45.2216 84.0596L36.8472 75.6846L36.8472 84.0596Z" fill="#EE8B89"/>
<path d="M63.645 23.7598L60.2954 27.1097H66.9945L63.645 23.7598Z" fill="#9B738F"/>
<path d="M53.5959 60.6094L50.2463 63.9594H56.9455L53.5959 60.6094Z" fill="#9B738F"/>
<path d="M145.714 72.3345L142.365 75.6845H149.064L145.714 72.3345Z" fill="#420062"/>
<path d="M113.892 60.6094L110.542 63.9594H117.241L113.892 60.6094Z" fill="#420062"/>
<path d="M93.7929 20.4097L90.4434 23.7596H97.1425L93.7929 20.4097Z" fill="#420062"/>
<path d="M33.4973 0.310059L30.1477 3.66004H36.8468L33.4973 0.310059Z" fill="#420062"/>
<path d="M70.3449 50.5596L75.3695 55.5845H50.2463V50.5596H70.3449Z" fill="#420062"/>
<path d="M97.1429 50.5596L92.1183 55.5845H117.241V50.5596H97.1429Z" fill="#9B738F"/>
<path d="M139.015 28.7846V35.4846L150.739 23.7596L147.389 20.4097L139.015 28.7846Z" fill="#420062"/>
<path d="M28.4727 28.7846V35.4846L16.7485 23.7596L20.0983 20.4097L28.4727 28.7846Z" fill="#420062"/>
<path d="M115.566 95.7842L108.867 95.7842L117.241 104.159L123.941 104.159L115.566 95.7842Z" fill="#420062"/>
<path d="M51.9213 95.7842L58.6208 95.7842L50.2464 104.159L43.5469 104.159L51.9213 95.7842Z" fill="#420062"/>
<path d="M100.492 60.6094L103.842 63.9594H97.1425L93.7928 60.6094H100.492Z" fill="#EE8B89"/>
<path d="M100.492 60.6094L97.1428 63.9594H103.842L100.492 60.6094Z" fill="#FFBB33"/>
<path d="M97.1428 90.7592V12.0347H103.842V90.7592L100.492 87.4092L97.1428 90.7592Z" fill="#420062"/>
<path d="M113.892 30.4595L118.916 35.4844H108.867L113.892 30.4595Z" fill="#9B738F"/>
<path d="M107.198 40.5093L103.842 43.8652L107.198 47.2212L110.553 43.8652L107.198 40.5093Z" fill="#EE8B89"/>
<path d="M3.35563 70.1005L0 73.4565L3.35563 76.8126L6.71126 73.4565L3.35563 70.1005Z" fill="#420062"/>
<path d="M164.144 50.5596L160.788 53.9155L164.144 57.2715L167.5 53.9155L164.144 50.5596Z" fill="#420062"/>
<path d="M147.395 0.309574L144.039 3.66553L147.395 7.02148L150.751 3.66553L147.395 0.309574Z" fill="#420062"/>
<path d="M58.6267 28.7842L55.271 32.1401L58.6267 35.4961L61.9825 32.1401L58.6267 28.7842Z" fill="#420062"/>
<path d="M23.4541 84.0591L20.0984 87.415L23.4541 90.771L26.8098 87.415L23.4541 84.0591Z" fill="#420062"/>
<path d="M63.656 43.8653L60.3006 40.5097L50.2458 40.5097L50.2458 43.8653L56.9452 43.8653L63.656 43.8653Z" fill="#9B738F"/>
<path d="M70.3448 63.9594L73.6945 60.6094H66.995L63.6453 63.9594H70.3448Z" fill="#9B738F"/>
<path d="M147.389 40.5094L144.039 43.8594L150.739 43.8594L154.089 40.5094L147.389 40.5094Z" fill="#420062"/>
<path d="M16.7487 43.8597L13.399 40.5098L20.0985 40.5098L23.4482 43.8597L16.7487 43.8597Z" fill="#420062"/>
<path d="M26.7978 60.609L23.4481 63.959L30.1476 63.959L33.4973 60.609L26.7978 60.609Z" fill="#420062"/>
<path d="M140.69 60.609L144.039 63.959L137.34 63.959L133.99 60.609L140.69 60.609Z" fill="#420062"/>
<path d="M80.3938 67.309L83.7434 63.959V70.6589L80.3938 67.309Z" fill="#420062"/>
<path d="M87.0935 67.3092L83.7439 70.6592L83.7439 63.9592L87.0935 67.3092Z" fill="#EE8B89"/>
</svg>
