<svg width="33" height="47" viewBox="0 0 33 47" fill="none" xmlns="http://www.w3.org/2000/svg">
<path d="M5.50781 46.4375H27.3984C30.7031 46.4375 32.3438 44.7969 32.3438 41.1875V24.4297C32.3438 21.125 30.9609 19.5078 28.1719 19.25V13.7422C28.1719 5.49219 22.8047 0.992188 16.4531 0.992188C10.1016 0.992188 4.73438 5.49219 4.73438 13.7422V19.25C1.94531 19.5078 0.5625 21.125 0.5625 24.4297V41.1875C0.5625 44.7969 2.20312 46.4375 5.50781 46.4375ZM7.61719 13.4609C7.61719 7.34375 11.4844 3.73438 16.4531 3.73438C21.3984 3.73438 25.2891 7.34375 25.2891 13.4609V19.2266H7.61719V13.4609ZM5.57812 43.7188C4.14844 43.7188 3.46875 43.1328 3.46875 41.375V24.2656C3.46875 22.4844 4.14844 21.9219 5.57812 21.9219H27.3516C28.7812 21.9219 29.4375 22.4844 29.4375 24.2656V41.375C29.4375 43.1328 28.7812 43.7188 27.3516 43.7188H5.57812Z" fill="#0F2046"/>
</svg>
