<svg id="Layer_1" data-name="Layer 1" xmlns="http://www.w3.org/2000/svg" viewBox="0 0 909.59 1300.65"><defs><style>.cls-1{fill:#0f2046;}</style></defs><path class="cls-1" d="M340.8,1304.38H967.31c94.58,0,141.54-47,141.54-150.25V674.52c0-94.58-39.58-140.87-119.4-148.25V368.63c0-236.11-153.61-364.9-335.4-364.9S318.66,132.52,318.66,368.63V526.27c-79.82,7.38-119.4,53.67-119.4,148.25v479.61C199.26,1257.43,246.22,1304.38,340.8,1304.38Zm60.37-943.79c0-175.08,110.68-278.38,252.88-278.38,141.54,0,252.89,103.3,252.89,278.38v165H401.17Zm-58.36,866c-40.92,0-60.37-16.77-60.37-67.08V669.82c0-51,19.45-67.08,60.37-67.08H966c40.92,0,59.7,16.1,59.7,67.08v489.67c0,50.31-18.78,67.08-59.7,67.08Z" transform="translate(-199.26 -3.73)"/></svg>