<svg id="Layer_1" data-name="Layer 1" xmlns="http://www.w3.org/2000/svg" viewBox="0 0 360.49 333"><defs><style>.cls-1{fill:#9b9fa8;}</style></defs><path class="cls-1" d="M173.9,563h165q48.22,0,48.15-48.61V442.32H362v71.6c0,15.53-8.23,24.07-24.38,24.07H175.15c-16.16,0-24.39-8.54-24.39-24.07V279.24c0-15.54,8.23-24.23,24.39-24.23H337.61c16.15,0,24.38,8.69,24.38,24.23v71.44h25V278.77c0-32.31-16-48.77-48.15-48.77h-165c-32.15,0-48.15,16.46-48.15,48.77V514.39Q125.75,563.08,173.9,563ZM474.29,384.08H314.78l-23.3.93,11-10.57,25-23.45a11.3,11.3,0,0,0,3.73-8.38c0-6.53-4.51-11.34-10.87-11.34a11.41,11.41,0,0,0-8.23,3.57l-50.64,52.5c-3.1,3.1-4,5.9-4,9s.94,5.9,4,9l50.64,52.5c2.48,2.33,5,3.73,8.23,3.73,6.36,0,10.87-4.66,10.87-11.18a11.42,11.42,0,0,0-3.73-8.55l-25-23.61-11-10.56,23.3,1.09H474.29c6.52,0,12-5.75,12-12.42A12.24,12.24,0,0,0,474.29,384.08Z" transform="translate(-125.75 -230)"/></svg>