<svg id="Layer_1" data-name="Layer 1" xmlns="http://www.w3.org/2000/svg" viewBox="0 0 466 317.88"><defs><style>.cls-1,.cls-2,.cls-3{fill:#b0d7d2;}.cls-1{opacity:0.56;}.cls-2{opacity:0.59;}.cls-3{opacity:0.94;}</style></defs><g id="Logo"><path class="cls-1" d="M989.81,397.42a55.46,55.46,0,0,0-16.3-5.41c-63.86-10.46-142.42-5.07-142.42-5.07S825,483.13,915.64,513.08c7.17,3.86,22.45,5.37,30.6,5.36,91.35-.07,117.74-1,117.74-1S1067.43,437.27,989.81,397.42Z" transform="translate(-831 -200.56)"/><path class="cls-1" d="M1296.91,386.94s-78.56-5.39-142.42,5.07a55.62,55.62,0,0,0-16.31,5.41c-77.61,39.85-74.16,120-74.16,120s26.39.93,117.74,1c8.15,0,23.43-1.5,30.6-5.36C1303,483.13,1296.91,386.94,1296.91,386.94Z" transform="translate(-831 -200.56)"/><path class="cls-2" d="M1214.86,257.71s-82.47,2.23-138.72,90.19A202.45,202.45,0,0,0,1064,370.81a203.45,203.45,0,0,0-12.16-22.92C996.56,258,913.06,257.71,913.06,257.71s-41.86,79.78,13.42,169.64c50.43,78.86,121.89,88.81,136.15,90l.09.17s.54,0,1.48,0l1,0,0-.11c14.29-.89,86.61-9.39,136.23-90.06C1256.77,337.51,1214.86,257.71,1214.86,257.71Z" transform="translate(-831 -200.56)"/><path class="cls-3" d="M1064,200.56s-85.93,48.52-85.93,159.78S1064,517.54,1064,517.54s85.93-48.52,85.93-159.78S1064,200.56,1064,200.56Z" transform="translate(-831 -200.56)"/></g></svg>