<svg id="Layer_1" data-name="Layer 1" xmlns="http://www.w3.org/2000/svg" viewBox="0 0 272.13 488.75"><defs><style>.cls-1{fill:#420062;}.cls-2{fill:#f09682;}.cls-3{fill:#f3b194;}.cls-4{fill:#ee8b89;}.cls-5{fill:#a37e99;}.cls-6{fill:#9c7490;}.cls-7{fill:#f09884;}.cls-8{fill:#f3b9a1;}.cls-9{fill:#ee9492;}.cls-10{fill:#f3b397;}.cls-11{fill:#fcefdf;}.cls-12{fill:#f09985;}.cls-13{fill:#ee8e8c;}</style></defs><path class="cls-1" d="M142.26,38.23v376l16.11,16.11H260.42v12.53l-17.91,17.91,17.91,17.9v16.11H190.6l-10.93-10.92-10.56,10.92H147.63l-16.11-16.11V27.48L153,6H260.42V16.74H163.74Z" transform="translate(-124.35 -6)"/><path class="cls-2" d="M260.42,27.48V382H142.26V38.22L153,27.48Z" transform="translate(-124.35 -6)"/><path class="cls-3" d="M378.58,38.22V382H260.42V27.48H367.84Z" transform="translate(-124.35 -6)"/><path class="cls-4" d="M260.42,442.83v35.81l-17.9-17.9Z" transform="translate(-124.35 -6)"/><path class="cls-3" d="M278.32,460.74l-17.9,17.9V442.83Z" transform="translate(-124.35 -6)"/><path class="cls-5" d="M389.32,27.48V478.64l-16.11,16.11H260.42V478.64l17.9-17.9-17.9-17.91V430.3h102l16.12-16.11v-376L357.09,16.74H260.42V6H367.84Z" transform="translate(-124.35 -6)"/><path class="cls-5" d="M124.35,106.26l7.17,7.16v-43l-7.17,7.16Z" transform="translate(-124.35 -6)"/><path class="cls-1" d="M396.48,77.61l-7.16-7.16V134.9l7.16-7.16Z" transform="translate(-124.35 -6)"/><path class="cls-5" d="M124.35,170.71l7.17,7.16v-43l-7.17,7.16Z" transform="translate(-124.35 -6)"/><path class="cls-1" d="M367.84,27.48H153l10.74-10.74H357.09Z" transform="translate(-124.35 -6)"/><path class="cls-3" d="M378.58,382v32.23L362.46,430.3h-102V382Z" transform="translate(-124.35 -6)"/><path class="cls-2" d="M260.42,382V430.3H158.37l-16.11-16.11V382Z" transform="translate(-124.35 -6)"/><path class="cls-1" d="M260.42,49H153V274.55H260.42Z" transform="translate(-124.35 -6)"/><path class="cls-5" d="M367.84,49H260.42V274.55H367.84Z" transform="translate(-124.35 -6)"/><path class="cls-6" d="M196,285.29H153l16.11,16.11h53.71l16.11-16.11Z" transform="translate(-124.35 -6)"/><path class="cls-7" d="M335.73,296,325,306.77l10.76,10.76,10.76-10.76Z" transform="translate(-124.35 -6)"/><path class="cls-7" d="M346.48,285.26,335.72,296l10.76,10.76L357.24,296Z" transform="translate(-124.35 -6)"/><path class="cls-7" d="M325,285.26,314.23,296,325,306.78,335.75,296Z" transform="translate(-124.35 -6)"/><path class="cls-8" d="M196,177.83l-21.52,21.52L196,220.87l21.52-21.52Z" transform="translate(-124.35 -6)"/><path class="cls-9" d="M217.45,229.79v44.75h-43V229.79l10.74-10.74L196,229.79l10.74-10.74Z" transform="translate(-124.35 -6)"/><path class="cls-10" d="M260.42,190.4v43l-21.49-21.49Z" transform="translate(-124.35 -6)"/><path class="cls-4" d="M260.42,242.32v32.22H238.93V242.32l10.75-10.74Z" transform="translate(-124.35 -6)"/><path class="cls-11" d="M324.87,168.88,303.34,190.4l21.53,21.52,21.52-21.52Z" transform="translate(-124.35 -6)"/><path class="cls-12" d="M346.35,220.84v53.71h-43V220.84l10.74-10.75,10.74,10.75,10.74-10.75Z" transform="translate(-124.35 -6)"/><path class="cls-11" d="M281.9,211.88l-21.48,21.49v-43Z" transform="translate(-124.35 -6)"/><path class="cls-7" d="M281.9,242.32v32.22H260.42V242.32l10.74-10.74Z" transform="translate(-124.35 -6)"/><path class="cls-13" d="M260.42,328.25H153v12.54H260.42Z" transform="translate(-124.35 -6)"/><path class="cls-2" d="M367.84,328.25H260.42v12.54H367.84Z" transform="translate(-124.35 -6)"/><path class="cls-13" d="M260.42,353.32H153v12.53H260.42Z" transform="translate(-124.35 -6)"/><path class="cls-2" d="M324.87,353.32H260.42v12.53h64.45Z" transform="translate(-124.35 -6)"/></svg>