<svg width="24" height="22" viewBox="0 0 24 22" fill="none" xmlns="http://www.w3.org/2000/svg">
<path d="M0.0612602 7.22266C0.0612602 12.2148 4.24485 17.125 10.8542 21.3438C11.1003 21.4961 11.4519 21.6602 11.698 21.6602C11.9441 21.6602 12.2956 21.4961 12.5534 21.3438C19.1511 17.125 23.3347 12.2148 23.3347 7.22266C23.3347 3.07422 20.487 0.144531 16.6902 0.144531C14.5222 0.144531 12.7644 1.17578 11.698 2.75781C10.655 1.1875 8.87376 0.144531 6.70579 0.144531C2.90892 0.144531 0.0612602 3.07422 0.0612602 7.22266ZM1.94798 7.22266C1.94798 4.10547 3.9636 2.03125 6.68235 2.03125C8.88548 2.03125 10.1511 3.40234 10.9011 4.57422C11.2175 5.04297 11.4167 5.17188 11.698 5.17188C11.9792 5.17188 12.155 5.03125 12.4949 4.57422C13.3034 3.42578 14.5222 2.03125 16.7136 2.03125C19.4324 2.03125 21.448 4.10547 21.448 7.22266C21.448 11.582 16.8425 16.2812 11.9441 19.5391C11.8269 19.6211 11.7449 19.6797 11.698 19.6797C11.6511 19.6797 11.5691 19.6211 11.4636 19.5391C6.55345 16.2812 1.94798 11.582 1.94798 7.22266ZM12.6003 15.3789V11.1602L12.5183 9.26172L13.5144 10.2812L14.5456 11.3359C14.7097 11.5 14.9324 11.5938 15.1667 11.5938C15.6355 11.5938 15.987 11.2656 15.987 10.7852C15.987 10.5273 15.8816 10.3281 15.6941 10.1641L12.3542 7.08203C12.1081 6.85938 11.9206 6.77734 11.698 6.77734C11.4753 6.77734 11.2878 6.85938 11.0417 7.08203L7.70189 10.1641C7.51439 10.3281 7.40892 10.5273 7.40892 10.7852C7.40892 11.2656 7.74876 11.5938 8.22923 11.5938C8.45189 11.5938 8.69798 11.5 8.85032 11.3359L9.88157 10.2812L10.8777 9.26172L10.8074 11.1602V15.3789C10.8074 15.8594 11.2175 16.2578 11.698 16.2578C12.1784 16.2578 12.6003 15.8594 12.6003 15.3789Z" fill="#E8924F"/>
</svg>
