<svg id="Layer_1" data-name="Layer 1" xmlns="http://www.w3.org/2000/svg" viewBox="0 0 500.12 440.73"><defs><style>.cls-1{fill:#420062;}.cls-2{fill:#9b738f;}.cls-3{fill:#ee8b89;}.cls-4{fill:#f09682;}.cls-5{fill:#fcefdf;}.cls-6{fill:#f3b194;}</style></defs><path class="cls-1" d="M457.8,267.66,443.73,253.6l14.07-14.07,14.07,14.07,14.06,14.06Z" transform="translate(0.12 -30.1)"/><path class="cls-2" d="M471.87,253.6l14.06-14.07L500,253.6l-14.07,14.06-14.06,14.07Z" transform="translate(0.12 -30.1)"/><path class="cls-1" d="M471.87,281.73,457.8,295.79l-14.07-14.06,14.07-14.07,14.07-14.06Z" transform="translate(0.12 -30.1)"/><path class="cls-2" d="M499.68,281.41l-13.75-13.75-13.75,13.75,13.75,13.76Z" transform="translate(0.12 -30.1)"/><path class="cls-1" d="M395.29,136.38l-14.07-14.07,14.07-14.06,14.06,14.06,14.07,14.07Z" transform="translate(0.12 -30.1)"/><path class="cls-2" d="M409.35,122.31l14.07-14.06,14.06,14.06-14.06,14.07-14.07,14.06Z" transform="translate(0.12 -30.1)"/><path class="cls-1" d="M409.35,150.44l-14.06,14.07-14.07-14.07,14.07-14.06,14.06-14.07Z" transform="translate(0.12 -30.1)"/><path class="cls-2" d="M437.17,150.13l-13.75-13.75-13.76,13.75,13.76,13.75Z" transform="translate(0.12 -30.1)"/><path class="cls-1" d="M74.44,128.11,60.37,114,74.44,100,88.5,114l14.07,14.07Z" transform="translate(0.12 -30.1)"/><path class="cls-2" d="M88.5,114,102.57,100,116.63,114l-14.06,14.07L88.5,142.17Z" transform="translate(0.12 -30.1)"/><path class="cls-1" d="M88.5,142.17,74.44,156.24,60.37,142.17l14.07-14.06L88.5,114Z" transform="translate(0.12 -30.1)"/><path class="cls-2" d="M116.32,141.86l-13.75-13.75L88.82,141.86l13.75,13.75Z" transform="translate(0.12 -30.1)"/><path class="cls-1" d="M232.75,58.24,218.68,44.17,232.75,30.1l14.06,14.07,14.07,14.07Z" transform="translate(0.12 -30.1)"/><path class="cls-2" d="M246.81,44.17l14.07-14.06,14.06,14.06L260.88,58.24,246.81,72.3Z" transform="translate(0.12 -30.1)"/><path class="cls-1" d="M246.81,72.3,232.75,86.37,218.68,72.3l14.07-14.06,14.06-14.07Z" transform="translate(0.12 -30.1)"/><path class="cls-2" d="M274.63,72,260.88,58.24,247.12,72l13.76,13.75Z" transform="translate(0.12 -30.1)"/><path class="cls-1" d="M13.94,261.41-.12,247.34l14.06-14.06L28,247.34l14.07,14.07Z" transform="translate(0.12 -30.1)"/><path class="cls-2" d="M28,247.35l14.06-14.07,14.07,14.07L42.07,261.41,28,275.48Z" transform="translate(0.12 -30.1)"/><path class="cls-1" d="M28,275.48,13.94,289.54-.12,275.48l14.06-14.07L28,247.35Z" transform="translate(0.12 -30.1)"/><path class="cls-2" d="M55.83,275.16,42.08,261.41,28.32,275.16l13.76,13.76Z" transform="translate(0.12 -30.1)"/><path class="cls-1" d="M249.94,470.83l-64.6-62.51L153,439.58l32.3,31.25Z" transform="translate(0.12 -30.1)"/><path class="cls-1" d="M249.94,470.83l64.6-62.51,32.3,31.26-32.3,31.25Z" transform="translate(0.12 -30.1)"/><path class="cls-3" d="M353.09,183.27V355.18L284.32,424H215.56l-68.77-68.77V183.27Z" transform="translate(0.12 -30.1)"/><path class="cls-4" d="M353.09,183.26V355.18L284.32,424H249.94V183.26Z" transform="translate(0.12 -30.1)"/><path class="cls-1" d="M198.36,406.76H301.51L284.32,424H215.55Z" transform="translate(0.12 -30.1)"/><path class="cls-2" d="M249.94,424V406.76h51.57L284.32,424Z" transform="translate(0.12 -30.1)"/><path class="cls-2" d="M301.51,252H335.9l-8.6-8.59H310.11l-8.6-8.6H284.32Z" transform="translate(0.12 -30.1)"/><path class="cls-1" d="M198.36,252H164l8.6-8.59h17.19l8.59-8.6h17.19Z" transform="translate(0.12 -30.1)"/><path class="cls-5" d="M224.15,312.2l-43,43H318.7l-43-43Z" transform="translate(0.12 -30.1)"/><path class="cls-6" d="M224.15,312.2l-43,43h68.77v-43Z" transform="translate(0.12 -30.1)"/><path class="cls-1" d="M198.36,286.42l-17.19-17.2h48.71l-14.33,17.2Z" transform="translate(0.12 -30.1)"/><path class="cls-2" d="M301.51,286.42l17.19-17.2H267.13l17.19,17.2Z" transform="translate(0.12 -30.1)"/><rect class="cls-1" x="146.91" y="153.16" width="103.15" height="14.33"/><rect class="cls-2" x="250.06" y="153.16" width="103.15" height="14.33"/></svg>