<svg width="42" height="35" viewBox="0 0 42 35" fill="none" xmlns="http://www.w3.org/2000/svg">
<path d="M6.10938 31.3926H23.4062C22.8965 30.5137 22.5098 29.5469 22.2812 28.5273H5.93359C4.47461 28.5273 3.68359 27.7539 3.68359 26.2422V10.6855C3.68359 9.15625 4.47461 8.40039 5.93359 8.40039H29.0312C30.4727 8.40039 31.2988 9.15625 31.2988 10.6855V15.3262C31.791 15.2559 32.2656 15.2207 32.7402 15.2207C33.2148 15.2207 33.6895 15.2559 34.1641 15.3086V5.86914C34.1641 2.40625 32.3887 0.648438 28.873 0.648438H6.10938C2.59375 0.648438 0.800781 2.40625 0.800781 5.86914V26.1543C0.800781 29.6348 2.59375 31.3926 6.10938 31.3926ZM8.78125 14.5176H26.2012C26.7812 14.5176 27.2207 14.043 27.2207 13.4629C27.2207 12.9004 26.7812 12.4434 26.2012 12.4434H8.78125C8.18359 12.4434 7.74414 12.9004 7.74414 13.4629C7.74414 14.043 8.18359 14.5176 8.78125 14.5176ZM8.79883 19.4922H24.1621C24.7422 18.7012 25.3926 18.0156 26.166 17.4355H8.79883C8.18359 17.4355 7.74414 17.8926 7.74414 18.4727C7.74414 19.0527 8.18359 19.4922 8.79883 19.4922ZM32.7402 34.4863C37.3457 34.4863 41.2305 30.6367 41.2305 26.0137C41.2305 21.3555 37.3984 17.5234 32.7402 17.5234C28.0996 17.5234 24.25 21.3555 24.25 26.0137C24.25 30.6719 28.0996 34.4863 32.7402 34.4863ZM32.7402 31.3398C32.1074 31.3398 31.6855 30.918 31.6855 30.2852V27.0684H28.4688C27.8359 27.0684 27.4141 26.6465 27.4141 26.0137C27.4141 25.3633 27.8359 24.9414 28.4688 24.9414H31.6855V21.7422C31.6855 21.1094 32.1074 20.6875 32.7402 20.6875C33.3906 20.6699 33.7949 21.1094 33.7949 21.7422V24.9414H37.0117C37.6445 24.9414 38.0664 25.3633 38.0664 26.0137C38.0664 26.6465 37.6445 27.0684 37.0117 27.0684H33.7949V30.2852C33.7949 30.918 33.3906 31.3398 32.7402 31.3398ZM8.79883 24.4668H19.8203C20.418 24.4668 20.8574 24.0273 20.8574 23.4648C20.8574 22.8672 20.418 22.4102 19.8203 22.4102H8.79883C8.18359 22.4102 7.74414 22.8672 7.74414 23.4648C7.74414 24.0273 8.18359 24.4668 8.79883 24.4668Z" fill="#9CA0A8"/>
</svg>
