<svg id="Layer_1" data-name="Layer 1" xmlns="http://www.w3.org/2000/svg" viewBox="0 0 1274.44 1274.44"><defs><style>.cls-1{fill:#0f2046;}</style></defs><path class="cls-1" d="M654.05,1291.27c348.79,0,637.22-288.43,637.22-637.21,0-349.43-288.43-637.22-637.85-637.22-348.79,0-636.58,287.79-636.58,637.22C16.84,1002.84,305.27,1291.27,654.05,1291.27Zm0-82.59c-307.49,0-554.62-247.77-554.62-554.62,0-307.5,247.13-555.27,554-555.27,307.49,0,555.27,247.77,555.9,555.27C1209.32,960.91,961.55,1208.68,654.05,1208.68ZM980.61,653.42c0-10.16-4.45-19.06-14-28.59L740.46,398c-6.35-6.35-15.25-10.16-26.05-10.16-20.33,0-34.94,15.25-34.94,35.58,0,10.8,4.45,19.69,11.43,26.68l99.75,99.11,78.14,71.15-116.9-4.44H363.08c-21.6,0-36.85,15.24-36.85,37.48,0,21,15.25,36.85,36.85,36.85H751.89l117.54-3.81-78.78,71.15L690.9,856.08c-7.62,7-11.43,15.89-11.43,27.32,0,19.7,14.61,35.58,34.94,35.58a36.37,36.37,0,0,0,26.05-10.8L966.63,682C975.52,673.11,980.61,664.22,980.61,653.42Z" transform="translate(-16.84 -16.84)"/></svg>