<svg id="Layer_1" data-name="Layer 1" xmlns="http://www.w3.org/2000/svg" xmlns:xlink="http://www.w3.org/1999/xlink" viewBox="0 0 587.13 587.53"><defs><style>.cls-1{fill:url(#linear-gradient);}.cls-2{fill:#bbe4fd;fill-opacity:0.35;}.cls-2,.cls-3,.cls-4{fill-rule:evenodd;}.cls-3{fill:#67d5b1;}.cls-3,.cls-4{fill-opacity:0.8;}.cls-4{fill:#fcfcfc;}.cls-5{fill:#ff4235;fill-opacity:0.6;}.cls-6{fill:#8c4514;fill-opacity:0.7;}.cls-7{fill:#957158;}</style><linearGradient id="linear-gradient" x1="164" y1="550.12" x2="460.23" y2="-5.31" gradientTransform="matrix(1, 0, 0, -1, -5.91, 589.66)" gradientUnits="userSpaceOnUse"><stop offset="0" stop-color="#bbe4fd"/><stop offset="1" stop-color="#8ed3fd"/></linearGradient></defs><circle class="cls-1" cx="293.56" cy="293.56" r="293.56"/><path class="cls-2" d="M240.76,515.67c162.13,0,293.57-131.43,293.57-293.57A292.29,292.29,0,0,0,503.58,91.17a292.67,292.67,0,0,1,89.46,211c0,162.13-131.43,293.56-293.56,293.56-115.08,0-214.7-66.21-262.82-162.63A292.56,292.56,0,0,0,240.76,515.67Z" transform="translate(-5.91 -8.2)"/><path class="cls-3" d="M554.62,447.47A292.22,292.22,0,0,0,593,302.17q0-10.47-.72-20.75c-.19-1.28-.41-2.55-.66-3.8a21.1,21.1,0,0,1-.26-6.68,291.66,291.66,0,0,0-34.64-110.26c-19.22,7-33.11,27.06-33.11,50.75A25.1,25.1,0,0,1,510,233.17c-20.3,10.09-34.41,32.41-34.41,58.32,0,26.36,14.6,49,35.45,58.83,7.66,3.61,13.29,11.54,12.79,20q-.2,3.26-.2,6.57C523.65,407.42,536.18,434,554.62,447.47Z" transform="translate(-5.91 -8.2)"/><path class="cls-3" d="M32.74,424.93A294.26,294.26,0,0,1,35,174.6a74.75,74.75,0,0,1,45.64,68.85c0,1.34,0,2.67-.11,4a40.93,40.93,0,0,0,11.83,31.08A85.4,85.4,0,0,1,32.74,424.93Z" transform="translate(-5.91 -8.2)"/><path class="cls-4" d="M448.36,49.1a92.23,92.23,0,0,1-71.49,34.23A91.23,91.23,0,0,1,322.12,65.1a12.5,12.5,0,0,0-17.56,3C287.74,93.42,259.47,110,227.42,110c-37.67,0-70.13-22.94-84.9-56A293.85,293.85,0,0,1,448.36,49.1Z" transform="translate(-5.91 -8.2)"/><path class="cls-4" d="M454.37,551.59A294.07,294.07,0,0,1,179.16,570a70.19,70.19,0,0,1,56.27-27.66,70.91,70.91,0,0,1,42.28,13.81c7.27,5.38,22,2.67,27.14-4.79,14.58-21.3,42.56-35.71,74.69-35.71S439.83,530.17,454.37,551.59Z" transform="translate(-5.91 -8.2)"/><ellipse class="cls-5" cx="185" cy="327.45" rx="31.95" ry="19.97"/><ellipse class="cls-5" cx="406.88" cy="327.45" rx="31.95" ry="19.97"/><circle class="cls-6" cx="204.89" cy="269.08" r="17.28"/><circle class="cls-6" cx="392.51" cy="269.08" r="17.28"/><rect class="cls-7" x="267.2" y="308.43" width="69.12" height="22.04" rx="11.02"/></svg>