<svg width="62" height="65" viewBox="0 0 62 65" fill="none" xmlns="http://www.w3.org/2000/svg">
<path d="M31.3047 32.6589C39.4961 32.6589 46.0703 25.4519 46.0703 16.4871C46.0703 7.73315 39.4609 0.701904 31.3047 0.701904C23.1836 0.701904 16.5039 7.80347 16.5391 16.5222C16.5742 25.4871 23.1133 32.6589 31.3047 32.6589ZM31.3047 28.5457C25.5742 28.5457 20.8984 23.3074 20.8984 16.5222C20.8281 10.0183 25.5742 4.85034 31.3047 4.85034C37.0352 4.85034 41.7109 9.948 41.7109 16.4871C41.7109 23.2371 37.0703 28.5457 31.3047 28.5457ZM8.55859 64.8972H53.9453C59.1133 64.8972 61.5391 63.2449 61.5391 59.6941C61.5391 50.5183 50.0078 37.4753 31.2695 37.4753C12.4961 37.4753 0.964844 50.5183 0.964844 59.6941C0.964844 63.2449 3.42578 64.8972 8.55859 64.8972ZM7.46875 60.7488C5.85156 60.7488 5.32422 60.3621 5.32422 59.2371C5.32422 52.5925 14.7109 41.5886 31.2695 41.5886C47.793 41.5886 57.2148 52.5925 57.2148 59.2371C57.2148 60.3621 56.6523 60.7488 55.0703 60.7488H7.46875Z" fill="white"/>
</svg>
