<svg width="21" height="23" viewBox="0 0 21 23" fill="none" xmlns="http://www.w3.org/2000/svg">
<path d="M10.698 11.75C13.487 11.75 15.7605 9.26562 15.7605 6.24219C15.7605 3.24219 13.4988 0.886719 10.698 0.886719C7.92064 0.886719 5.63548 3.28906 5.63548 6.26562C5.6472 9.27734 7.90892 11.75 10.698 11.75ZM10.698 9.98047C8.98704 9.98047 7.5222 8.33984 7.5222 6.26562C7.5222 4.22656 8.9636 2.65625 10.698 2.65625C12.4441 2.65625 13.8738 4.20312 13.8738 6.24219C13.8738 8.31641 12.4206 9.98047 10.698 9.98047ZM3.32689 22.5898H18.0574C20.0027 22.5898 20.9284 22.0039 20.9284 20.7148C20.9284 17.6445 17.0495 13.2031 10.698 13.2031C4.3347 13.2031 0.455791 17.6445 0.455791 20.7148C0.455791 22.0039 1.38157 22.5898 3.32689 22.5898ZM2.7761 20.8203C2.47142 20.8203 2.34251 20.7383 2.34251 20.4922C2.34251 18.5703 5.31907 14.9727 10.698 14.9727C16.0652 14.9727 19.0417 18.5703 19.0417 20.4922C19.0417 20.7383 18.9245 20.8203 18.6199 20.8203H2.7761Z" fill="#E8924F"/>
</svg>
