<svg width="239" height="86" viewBox="0 0 239 86" fill="none" xmlns="http://www.w3.org/2000/svg">
<path d="M35.4492 58.1055C35.4492 48.7539 28.5234 41.3008 19.5938 41.3008C15.4102 41.3008 11.4375 42.9531 8.51953 46.1875H7.57031C9.60938 39.543 15.7969 33.9883 23.4961 31.7031C24.5859 31.3516 25.3945 31.0352 25.8867 30.6133C26.4492 30.1562 26.7656 29.5938 26.7656 28.7852C26.7656 27.3086 25.6406 26.2891 23.9883 26.2891C22.8984 26.2891 22.0547 26.5 20.543 26.9922C15.6914 28.5742 11.332 31.3516 7.95703 34.9023C3.21094 39.8242 0.292969 46.3984 0.292969 54.2031C0.292969 67.3867 8.66016 75.0156 18.4688 75.0156C28.1367 75.0156 35.4492 67.6328 35.4492 58.1055ZM77.6719 58.1055C77.6719 48.7539 70.7109 41.3008 61.8164 41.3008C57.6328 41.3008 53.625 42.9531 50.7422 46.1875H49.793C51.832 39.543 58.0195 33.9883 65.6836 31.7031C66.7734 31.3516 67.6172 31.0352 68.1094 30.6133C68.6719 30.1562 68.9531 29.5938 68.9531 28.7852C68.9531 27.3086 67.8633 26.2891 66.2109 26.2891C65.0859 26.2891 64.2773 26.5 62.7305 26.9922C57.9141 28.5742 53.5195 31.3516 50.1445 34.9023C45.4336 39.8242 42.5156 46.3984 42.5156 54.2031C42.5156 67.3867 50.8828 75.0156 60.6914 75.0156C70.3594 75.0156 77.6719 67.6328 77.6719 58.1055Z" fill="#E8924F"/>
<path d="M152.293 36.1992C152.293 45.5508 159.254 53.0039 168.148 53.0039C172.332 53.0039 176.305 51.3516 179.223 48.1172H180.172C178.133 54.7617 171.945 60.3164 164.281 62.6016C163.156 62.9531 162.348 63.2695 161.855 63.6914C161.293 64.1484 161.012 64.7109 161.012 65.5195C161.012 66.9961 162.102 68.0156 163.719 68.0156C164.879 68.0156 165.688 67.8047 167.234 67.3125C172.051 65.7305 176.445 62.9531 179.82 59.4023C184.531 54.4805 187.449 47.9062 187.449 40.1016C187.449 26.918 179.082 19.2891 169.273 19.2891C159.605 19.2891 152.293 26.6719 152.293 36.1992ZM194.516 36.1992C194.516 45.5508 201.441 53.0039 210.371 53.0039C214.555 53.0039 218.492 51.3516 221.445 48.1172H222.359C220.355 54.7617 214.168 60.3164 206.469 62.6016C205.344 62.9531 204.57 63.2695 204.078 63.6914C203.516 64.1484 203.199 64.7109 203.199 65.5195C203.199 66.9961 204.324 68.0156 205.977 68.0156C207.066 68.0156 207.91 67.8047 209.422 67.3125C214.273 65.7305 218.633 62.9531 221.973 59.4023C226.754 54.4805 229.672 47.9062 229.672 40.1016C229.672 26.918 221.305 19.2891 211.496 19.2891C201.828 19.2891 194.516 26.6719 194.516 36.1992Z" fill="#F2BD70"/>
</svg>
