<svg id="Layer_1" data-name="Layer 1" xmlns="http://www.w3.org/2000/svg" viewBox="0 0 489.17 176.64"><defs><style>.cls-1{fill:#420062;}.cls-2{fill:#f09682;}.cls-3{fill:#fff;}.cls-4{fill:#f3b194;}</style></defs><path class="cls-1" d="M80.57,222V154.05H5.83v95.12l34,34h34L53.39,262.76,38.67,248V222Z" transform="translate(-5.83 -154.05)"/><path class="cls-2" d="M168.89,222V154.05H94.16v95.12l34,34h34l-20.39-20.38L127,248V222Z" transform="translate(-5.83 -154.05)"/><path class="cls-3" d="M420.27,262.76V330.7H495V235.58l-34-34h-34L447.44,222l14.72,14.72v26Z" transform="translate(-5.83 -154.05)"/><path class="cls-4" d="M332,262.76V330.7h74.73V235.58l-34-34h-34L359.12,222l14.72,14.72v26Z" transform="translate(-5.83 -154.05)"/></svg>