<?xml version="1.0" encoding="utf-8"?>
<!-- Generator: Adobe Illustrator 26.0.1, SVG Export Plug-In . SVG Version: 6.00 Build 0)  -->
<svg version="1.1" id="Layer_1" xmlns="http://www.w3.org/2000/svg" xmlns:xlink="http://www.w3.org/1999/xlink" x="0px" y="0px"
	 viewBox="0 0 1920 1080" style="enable-background:new 0 0 1920 1080;" xml:space="preserve">
<style type="text/css">
	.st0{clip-path:url(#SVGID_00000150078599620832941250000003336790290157397397_);}
	.st1{fill:#BBF2E7;}
	.st2{fill:#FFFFFF;}
	.st3{fill:#666C79;}
	.st4{fill-opacity:0;stroke:#666C79;stroke-width:9.944;stroke-miterlimit:10;}
	.st5{fill:#87E9D6;}
	.st6{fill-opacity:0;stroke:#666C79;stroke-width:23.435;stroke-linecap:round;stroke-miterlimit:10;}
</style>
<g>
	<defs>
		<rect id="SVGID_1_" width="1920" height="1080"/>
	</defs>
	<clipPath id="SVGID_00000006690673699914144060000004693792853697397398_">
		<use xlink:href="#SVGID_1_"  style="overflow:visible;"/>
	</clipPath>
	<g style="clip-path:url(#SVGID_00000006690673699914144060000004693792853697397398_);">
		<g transform="matrix(1,0,0,1,669,249)">
			<g transform="matrix(1,0,0,1,290.70098876953125,289.5)">
				<path class="st1" d="M223.8,286c-56,0-56-0.3-112-0.3s-56-2.1-112-2.1c-56,0-56,5.6-112,5.6s-56-4.1-112-4.1
					c-33.7,0-60.3-26.4-60.3-60.1c0-56-0.6-56-0.6-112c0-56,4.8-56,4.8-112c0-56-9.6-56-9.6-112s9.6-56,9.6-112
					c0-33.7,22.4-66.4,56.1-66.4c56,0,56,10.1,112,10.1c56,0,56-9.4,112-9.4c56,0,56,3.3,112,3.3c56,0,56,0.8,112,0.8
					c33.7,0,63.6,27.9,63.6,61.6c0,56,2.4,56,2.4,112c0,56-7.5,56-7.5,112c0,56,1.2,56,1.2,112c0,56,5.9,56,5.9,112
					C289.4,258.8,257.5,286,223.8,286z"/>
			</g>
		</g>
		<g transform="matrix(1,0,0,1,778,423.5908203125)">
			<g transform="matrix(1,0,0,1,58.24800109863281,58.23699951171875)">
				<path class="st2" d="M57.6,0c0,31.8-25.8,57.6-57.6,57.6S-57.6,31.8-57.6,0S-31.8-57.6,0-57.6S57.6-31.8,57.6,0z"/>
			</g>
			<g transform="matrix(1,0,0,1,73.24099731445312,85.26899719238281)">
				<path class="st3" d="M27.9,0c0,15.4-12.5,27.9-27.9,27.9S-27.9,15.4-27.9,0c0-15.4,12.5-27.9,27.9-27.9S27.9-15.4,27.9,0z"/>
			</g>
			<g transform="matrix(1,0,0,1,73.24099731445312,85.26899719238281)">
				<path class="st4" d="M27.9,0c0,15.4-12.5,27.9-27.9,27.9S-27.9,15.4-27.9,0c0-15.4,12.5-27.9,27.9-27.9S27.9-15.4,27.9,0z"/>
			</g>
		</g>
		<g transform="matrix(1,0,0,1,742,372.8206787109375)">
			<g transform="matrix(1,0,0,1,50.020999908447266,47.83000183105469)">
				<path class="st3" d="M-39.4,46.5c8.4-1,16.5-2.8,24.3-6c7.7-3.1,15-6.8,21.7-11.6C20.2,19.3,31.7,6.8,39.5-8
					c4.3-8.1,7.6-16.9,9.4-26c0.5-2.6,0.4-5.3-1-7.7c-1.2-2.1-3.6-4-5.9-4.6c-2.5-0.6-5.4-0.5-7.7,1c-2.1,1.3-4.1,3.4-4.6,5.9
					c-1.1,5.7-2.9,11.3-5.1,16.7c0.3-0.8,0.7-1.6,1-2.4c-3.1,7.3-7.2,14.2-12.1,20.5c0.5-0.7,1-1.3,1.6-2C10.1,0.1,4.2,5.9-2.3,10.9
					c0.7-0.5,1.3-1,2-1.6c-6.5,5-13.6,9.2-21.2,12.4c0.8-0.3,1.6-0.7,2.4-1c-7,2.9-14.4,5-21.9,6c0.9-0.1,1.8-0.2,2.6-0.4
					c-0.4,0-0.7,0.1-1.1,0.1c-2.7,0.3-5,0.9-7,2.9c-1.7,1.7-3,4.6-2.9,7c0.1,2.6,1,5.2,2.9,7C-44.6,45.2-42,46.8-39.4,46.5z"/>
			</g>
		</g>
		<g transform="matrix(1,0,0,1,1015,423.5908203125)">
			<g transform="matrix(1,0,0,1,67.8030014038086,58.23699951171875)">
				<path class="st2" d="M-57.6,0c0,31.8,25.8,57.6,57.6,57.6c31.8,0,57.6-25.8,57.6-57.6S31.8-57.6,0-57.6
					C-31.8-57.6-57.6-31.8-57.6,0z"/>
			</g>
			<g transform="matrix(1,0,0,1,52.808998107910156,85.26899719238281)">
				<path class="st3" d="M-27.9,0c0,15.4,12.5,27.9,27.9,27.9S27.9,15.4,27.9,0c0-15.4-12.5-27.9-27.9-27.9S-27.9-15.4-27.9,0z"/>
			</g>
			<g transform="matrix(1,0,0,1,52.808998107910156,85.26899719238281)">
				<path class="st4" d="M-27.9,0c0,15.4,12.5,27.9,27.9,27.9S27.9,15.4,27.9,0c0-15.4-12.5-27.9-27.9-27.9S-27.9-15.4-27.9,0z"/>
			</g>
		</g>
		<g transform="matrix(1,0,0,1,1078,372.8206787109375)">
			<g transform="matrix(1,0,0,1,50.082000732421875,47.72100067138672)">
				<path class="st3" d="M39.4,26.7c-0.4,0-0.7-0.1-1.1-0.1c0.9,0.1,1.8,0.2,2.6,0.4c-7.5-1-14.9-3.1-21.9-6c0.8,0.3,1.6,0.7,2.4,1
					C13.9,18.7,6.8,14.5,0.3,9.5c0.7,0.5,1.3,1,2,1.6C-4.2,6-10.1,0.2-15.1-6.3c0.5,0.7,1,1.3,1.6,2c-4.9-6.3-8.9-13.2-12.1-20.5
					c0.3,0.8,0.7,1.6,1,2.4c-2.3-5.4-4-11-5.1-16.7c-0.5-2.3-2.6-4.8-4.6-5.9c-2.1-1.2-5.3-1.8-7.7-1c-2.4,0.8-4.7,2.3-5.9,4.6
					c-1.3,2.5-1.5,4.9-1,7.7c3.3,16.3,11.2,31.3,21.8,44.1c5.4,6.5,11.6,12,18.2,17.1c6,4.6,12.6,8.4,19.5,11.4
					c4.6,2,9.2,3.8,14,5.1c4.9,1.3,9.9,2.2,14.9,2.8c2.3,0.3,5.4-1.3,7-2.9c1.7-1.7,3-4.6,2.9-7c-0.1-2.6-1-5.2-2.9-7
					c-0.7-0.5-1.3-1-2-1.6C42.9,27.2,41.2,26.7,39.4,26.7z"/>
			</g>
		</g>
		<g transform="matrix(1,0,0,1,756,569.5908203125)">
			<g transform="matrix(1,0,0,1,58.29199981689453,13.583999633789062)">
				<path class="st5" d="M58.2,0c0,7.2-26.1,13.1-58.2,13.1c-32.2,0-58.2-5.9-58.2-13.1c0-7.2,26.1-13.1,58.2-13.1
					C32.2-13.1,58.2-7.2,58.2,0z"/>
			</g>
		</g>
		<g transform="matrix(1,0,0,1,1049,569.5908203125)">
			<g transform="matrix(1,0,0,1,58.757999420166016,13.583999633789062)">
				<path class="st5" d="M58.2,0c0,7.2-26.1,13.1-58.2,13.1c-32.2,0-58.2-5.9-58.2-13.1c0-7.2,26.1-13.1,58.2-13.1
					C32.2-13.1,58.2-7.2,58.2,0z"/>
			</g>
		</g>
		<g transform="matrix(1,0,0,1,852,527.5908203125)">
			<g transform="matrix(1,0,0,1,107.5250015258789,96.7760009765625)">
				<path class="st6" d="M-48.7,23.2c7.2-38,22-60.4,48.7-60.4c26.7,0,38.5,19.4,48,60.4"/>
			</g>
		</g>
	</g>
</g>
</svg>
