<?xml version="1.0" encoding="utf-8"?>
<!-- Generator: Adobe Illustrator 26.0.1, SVG Export Plug-In . SVG Version: 6.00 Build 0)  -->
<svg version="1.1" id="Layer_1" xmlns="http://www.w3.org/2000/svg" xmlns:xlink="http://www.w3.org/1999/xlink" x="0px" y="0px"
	 viewBox="0 0 578.8 574.3" style="enable-background:new 0 0 578.8 574.3;" xml:space="preserve">
<style type="text/css">
	.st0{fill:#BBF2E7;}
	.st1{fill:#FFFFFF;}
	.st2{fill:#666C79;}
	.st3{fill-opacity:0;stroke:#666C79;stroke-width:9.944;stroke-miterlimit:10;}
	.st4{fill:#87E9D6;}
	.st5{fill-opacity:0;stroke:#666C79;stroke-width:23.435;stroke-linecap:round;stroke-miterlimit:10;}
</style>
<g>
	<g>
		<circle class="st0" cx="289.4" cy="283.9" r="281.7"/>
		<g>
			<g transform="matrix(1,0,0,1,778,423.5908203125)">
				<g transform="matrix(1,0,0,1,58.24800109863281,58.23699951171875)">
					<path class="st1" d="M-619.8-252.8c0,31.8-25.8,57.6-57.6,57.6c-31.8,0-57.6-25.8-57.6-57.6s25.8-57.6,57.6-57.6
						C-645.6-310.4-619.8-284.6-619.8-252.8z"/>
				</g>
				<g transform="matrix(1,0,0,1,73.24099731445312,85.26899719238281)">
					<path class="st2" d="M-649.5-252.8c0,15.4-12.5,27.9-27.9,27.9c-15.4,0-27.9-12.5-27.9-27.9s12.5-27.9,27.9-27.9
						C-662-280.7-649.5-268.2-649.5-252.8z"/>
				</g>
				<g transform="matrix(1,0,0,1,73.24099731445312,85.26899719238281)">
					<path class="st3" d="M-649.5-252.8c0,15.4-12.5,27.9-27.9,27.9c-15.4,0-27.9-12.5-27.9-27.9s12.5-27.9,27.9-27.9
						C-662-280.7-649.5-268.2-649.5-252.8z"/>
				</g>
			</g>
			<g transform="matrix(1,0,0,1,742,372.8206787109375)">
				<g transform="matrix(1,0,0,1,50.020999908447266,47.83000183105469)">
					<path class="st2" d="M-716.8-206.3c8.4-1,16.5-2.8,24.3-6c7.7-3.1,15-6.8,21.7-11.6c13.6-9.6,25.1-22.1,32.9-36.9
						c4.3-8.1,7.6-16.9,9.4-26c0.5-2.6,0.4-5.3-1-7.7c-1.2-2.1-3.6-4-5.9-4.6c-2.5-0.6-5.4-0.5-7.7,1c-2.1,1.3-4.1,3.4-4.6,5.9
						c-1.1,5.7-2.9,11.3-5.1,16.7c0.3-0.8,0.7-1.6,1-2.4c-3.1,7.3-7.2,14.2-12.1,20.5c0.5-0.7,1-1.3,1.6-2
						c-5,6.7-10.9,12.5-17.4,17.5c0.7-0.5,1.3-1,2-1.6c-6.5,5-13.6,9.2-21.2,12.4c0.8-0.3,1.6-0.7,2.4-1c-7,2.9-14.4,5-21.9,6
						c0.9-0.1,1.8-0.2,2.6-0.4c-0.4,0-0.7,0.1-1.1,0.1c-2.7,0.3-5,0.9-7,2.9c-1.7,1.7-3,4.6-2.9,7c0.1,2.6,1,5.2,2.9,7
						C-722-207.6-719.4-206-716.8-206.3z"/>
				</g>
			</g>
			<g transform="matrix(1,0,0,1,1015,423.5908203125)">
				<g transform="matrix(1,0,0,1,67.8030014038086,58.23699951171875)">
					<path class="st1" d="M-735-252.8c0,31.8,25.8,57.6,57.6,57.6c31.8,0,57.6-25.8,57.6-57.6s-25.8-57.6-57.6-57.6
						C-709.2-310.4-735-284.6-735-252.8z"/>
				</g>
				<g transform="matrix(1,0,0,1,52.808998107910156,85.26899719238281)">
					<path class="st2" d="M-705.3-252.8c0,15.4,12.5,27.9,27.9,27.9c15.4,0,27.9-12.5,27.9-27.9s-12.5-27.9-27.9-27.9
						C-692.8-280.7-705.3-268.2-705.3-252.8z"/>
				</g>
				<g transform="matrix(1,0,0,1,52.808998107910156,85.26899719238281)">
					<path class="st3" d="M-705.3-252.8c0,15.4,12.5,27.9,27.9,27.9c15.4,0,27.9-12.5,27.9-27.9s-12.5-27.9-27.9-27.9
						C-692.8-280.7-705.3-268.2-705.3-252.8z"/>
				</g>
			</g>
			<g transform="matrix(1,0,0,1,1078,372.8206787109375)">
				<g transform="matrix(1,0,0,1,50.082000732421875,47.72100067138672)">
					<path class="st2" d="M-638-226.1c-0.4,0-0.7-0.1-1.1-0.1c0.9,0.1,1.8,0.2,2.6,0.4c-7.5-1-14.9-3.1-21.9-6
						c0.8,0.3,1.6,0.7,2.4,1c-7.5-3.3-14.6-7.5-21.1-12.5c0.7,0.5,1.3,1,2,1.6c-6.5-5.1-12.4-10.9-17.4-17.4c0.5,0.7,1,1.3,1.6,2
						c-4.9-6.3-8.9-13.2-12.1-20.5c0.3,0.8,0.7,1.6,1,2.4c-2.3-5.4-4-11-5.1-16.7c-0.5-2.3-2.6-4.8-4.6-5.9c-2.1-1.2-5.3-1.8-7.7-1
						c-2.4,0.8-4.7,2.3-5.9,4.6c-1.3,2.5-1.5,4.9-1,7.7c3.3,16.3,11.2,31.3,21.8,44.1c5.4,6.5,11.6,12,18.2,17.1
						c6,4.6,12.6,8.4,19.5,11.4c4.6,2,9.2,3.8,14,5.1c4.9,1.3,9.9,2.2,14.9,2.8c2.3,0.3,5.4-1.3,7-2.9c1.7-1.7,3-4.6,2.9-7
						c-0.1-2.6-1-5.2-2.9-7c-0.7-0.5-1.3-1-2-1.6C-634.5-225.6-636.2-226.1-638-226.1z"/>
				</g>
			</g>
			<g transform="matrix(1,0,0,1,756,569.5908203125)">
				<g transform="matrix(1,0,0,1,58.29199981689453,13.583999633789062)">
					<path class="st4" d="M-619.2-252.8c0,7.2-26.1,13.1-58.2,13.1c-32.2,0-58.2-5.9-58.2-13.1s26.1-13.1,58.2-13.1
						C-645.2-265.9-619.2-260-619.2-252.8z"/>
				</g>
			</g>
			<g transform="matrix(1,0,0,1,1049,569.5908203125)">
				<g transform="matrix(1,0,0,1,58.757999420166016,13.583999633789062)">
					<path class="st4" d="M-619.2-252.8c0,7.2-26.1,13.1-58.2,13.1c-32.2,0-58.2-5.9-58.2-13.1s26.1-13.1,58.2-13.1
						C-645.2-265.9-619.2-260-619.2-252.8z"/>
				</g>
			</g>
			<g transform="matrix(1,0,0,1,852,527.5908203125)">
				<g transform="matrix(1,0,0,1,107.5250015258789,96.7760009765625)">
					<path class="st5" d="M-726.1-229.6c7.2-38,22-60.4,48.7-60.4c26.7,0,38.5,19.4,48,60.4"/>
				</g>
			</g>
		</g>
	</g>
</g>
</svg>
