<svg id="Layer_1" data-name="Layer 1" xmlns="http://www.w3.org/2000/svg" xmlns:xlink="http://www.w3.org/1999/xlink" viewBox="0 0 584.17 584.56"><defs><style>.cls-1{fill:url(#linear-gradient);}.cls-2{fill:#bbe4fd;fill-opacity:0.35;}.cls-2,.cls-3,.cls-4{fill-rule:evenodd;}.cls-3{fill:#67d5b1;}.cls-3,.cls-4{fill-opacity:0.8;}.cls-4{fill:#fcfcfc;}.cls-5{fill:#ff4235;fill-opacity:0.6;}.cls-6{fill:none;stroke:#8c4514;stroke-linecap:round;stroke-linejoin:round;stroke-opacity:0.7;stroke-width:15.21px;}.cls-7{opacity:0.9;}</style><linearGradient id="linear-gradient" x1="164.67" y1="243.16" x2="459.41" y2="795.79" gradientTransform="translate(-7.39 -203.82)" gradientUnits="userSpaceOnUse"><stop offset="0" stop-color="#bbe4fd"/><stop offset="1" stop-color="#8ed3fd"/></linearGradient></defs><circle class="cls-1" cx="292.08" cy="292.08" r="292.08"/><path class="cls-2" d="M233.67,504.9c161.31,0,292.08-130.77,292.08-292.08A290.9,290.9,0,0,0,495.16,82.54a291.18,291.18,0,0,1,89,209.94c0,161.31-130.77,292.08-292.08,292.08-114.47,0-213.6-65.88-261.47-161.81A291.08,291.08,0,0,0,233.67,504.9Z" transform="translate(0)"/><path class="cls-3" d="M545.94,437.05a290.73,290.73,0,0,0,38.23-144.57q0-10.41-.72-20.65-.27-1.9-.66-3.78a21.15,21.15,0,0,1-.25-6.64,290.09,290.09,0,0,0-34.47-109.7c-19.12,6.94-32.94,26.92-32.94,50.49a25,25,0,0,1-13.52,21.63c-20.19,10-34.23,32.24-34.23,58,0,26.23,14.51,48.75,35.26,58.53,7.63,3.6,13.23,11.49,12.72,19.9-.12,2.16-.19,4.34-.19,6.54C515.13,397.2,527.61,423.61,545.94,437.05Z" transform="translate(0)"/><path class="cls-3" d="M26.69,414.62A292.79,292.79,0,0,1,29,165.55a74.37,74.37,0,0,1,45.4,68.51c0,1.33,0,2.65-.1,4A40.72,40.72,0,0,0,86,268.94,85,85,0,0,1,26.69,414.62Z" transform="translate(0)"/><path class="cls-4" d="M440.21,40.69a91.73,91.73,0,0,1-71.12,34.05A90.79,90.79,0,0,1,314.61,56.6a12.43,12.43,0,0,0-17.35,2.84l-.11.16c-16.74,25.18-44.87,41.71-76.76,41.71-37.48,0-69.78-22.84-84.47-55.7A292.33,292.33,0,0,1,440.21,40.69Z" transform="translate(0)"/><path class="cls-4" d="M446.2,540.64A292.56,292.56,0,0,1,172.38,559a69.82,69.82,0,0,1,56-27.53,70.6,70.6,0,0,1,42.07,13.74c7.23,5.36,21.92,2.67,27-4.76,14.5-21.19,42.34-35.53,74.31-35.53S431.73,519.31,446.2,540.64Z" transform="translate(0)"/><ellipse class="cls-5" cx="184.07" cy="325.8" rx="31.79" ry="19.87"/><ellipse class="cls-5" cx="404.83" cy="325.8" rx="31.79" ry="19.87"/><path class="cls-6" d="M340.77,326.53a32.45,32.45,0,0,0-3.46-14.5,38.4,38.4,0,0,0-9.89-12.29,47.28,47.28,0,0,0-14.81-8.2,54.1,54.1,0,0,0-34.92,0,47.28,47.28,0,0,0-14.81,8.2A38.4,38.4,0,0,0,253,312a32.49,32.49,0,0,0-3.47,14.54" transform="translate(0)"/><g class="cls-7"><path class="cls-6" d="M219.09,245.65a20.3,20.3,0,0,1-40.59,0v0" transform="translate(0)"/></g><g class="cls-7"><path class="cls-6" d="M401.63,245.65a20.29,20.29,0,0,1-40.57.66v-.66" transform="translate(0)"/></g></svg>