<svg id="Layer_1" data-name="Layer 1" xmlns="http://www.w3.org/2000/svg" xmlns:xlink="http://www.w3.org/1999/xlink" viewBox="0 0 673.21 673.21"><defs><style>.cls-1,.cls-3{fill:#bbe4fd;}.cls-2{fill:url(#linear-gradient);}.cls-3{fill-opacity:0.35;}.cls-3,.cls-4,.cls-5{fill-rule:evenodd;}.cls-4{fill:#67d5b1;}.cls-4,.cls-5{fill-opacity:0.8;}.cls-5{fill:#fcfcfc;}.cls-6{fill:#ff4235;fill-opacity:0.6;}.cls-10,.cls-7{fill:none;}.cls-7{stroke:#8c4514;stroke-linecap:round;stroke-linejoin:round;stroke-opacity:0.7;stroke-width:14.85px;}.cls-8{opacity:0.9;}.cls-9{mask:url(#mask);}</style><linearGradient id="linear-gradient" x1="164" y1="552.34" x2="461.01" y2="-4.54" gradientTransform="matrix(1, 0, 0, -1, 34.1, 636.54)" gradientUnits="userSpaceOnUse"><stop offset="0" stop-color="#bbe4fd"/><stop offset="1" stop-color="#8ed3fd"/></linearGradient><mask id="mask" x="0" y="0" width="673.21" height="673.21" maskUnits="userSpaceOnUse"><g transform="translate(34.1 38.67)"><g id="mask0_202_29" data-name="mask0 202 29"><circle class="cls-1" cx="299.83" cy="300.21" r="294.33"/></g></g></mask></defs><circle class="cls-2" cx="333.93" cy="338.88" r="294.33"/><path class="cls-3" d="M241,514.66c162.55,0,294.33-131.77,294.33-294.32A293.07,293.07,0,0,0,504.47,89.06a293.45,293.45,0,0,1,89.7,211.55c0,162.55-131.78,294.33-294.34,294.33-115.38,0-215.25-66.39-263.5-163.05A293.38,293.38,0,0,0,241,514.66Z" transform="translate(34.1 38.67)"/><path class="cls-4" d="M555.64,446.29a293,293,0,0,0,38.53-145.68q0-10.5-.73-20.8c-.18-1.29-.41-2.56-.66-3.81a21.52,21.52,0,0,1-.26-6.7,292.6,292.6,0,0,0-34.73-110.55c-19.27,7-33.19,27.14-33.19,50.88a25.16,25.16,0,0,1-13.68,21.8c-20.35,10.11-34.49,32.49-34.49,58.48,0,26.42,14.63,49.12,35.53,59,7.69,3.62,13.34,11.58,12.83,20.06q-.19,3.26-.19,6.59C524.6,406.14,537.16,432.75,555.64,446.29Z" transform="translate(34.1 38.67)"/><path class="cls-4" d="M32.4,423.69a295,295,0,0,1,2.27-251,74.93,74.93,0,0,1,45.75,69c0,1.34,0,2.67-.1,4A41.06,41.06,0,0,0,92.17,276.9,85.62,85.62,0,0,1,32.4,423.69Z" transform="translate(34.1 38.67)"/><path class="cls-5" d="M449.1,46.88A92.45,92.45,0,0,1,377.43,81.2a91.5,91.5,0,0,1-54.9-18.28,12.54,12.54,0,0,0-17.6,3c-16.86,25.35-45.21,42-77.34,42-37.77,0-70.32-23-85.13-56.12a294.63,294.63,0,0,1,306.64-5Z" transform="translate(34.1 38.67)"/><path class="cls-5" d="M455.13,550.68A294.82,294.82,0,0,1,179.2,569.16a70.4,70.4,0,0,1,56.42-27.74A71.12,71.12,0,0,1,278,555.27c7.29,5.4,22.09,2.69,27.21-4.8,14.62-21.35,42.68-35.81,74.88-35.81S440.55,529.21,455.13,550.68Z" transform="translate(34.1 38.67)"/><ellipse class="cls-6" cx="225.08" cy="377.81" rx="32.03" ry="20.02"/><ellipse class="cls-6" cx="447.55" cy="377.81" rx="32.03" ry="20.02"/><path class="cls-7" d="M352,352.15A31.72,31.72,0,0,0,348.62,338a37.52,37.52,0,0,0-9.66-12,46.07,46.07,0,0,0-14.45-8,52.78,52.78,0,0,0-34.1,0,46,46,0,0,0-14.45,8,37.52,37.52,0,0,0-9.66,12,31.72,31.72,0,0,0-3.39,14.19" transform="translate(34.1 38.67)"/><g class="cls-8"><path class="cls-7" d="M233.21,273.18a19.8,19.8,0,1,1-39.6,0" transform="translate(34.1 38.67)"/></g><g class="cls-8"><path class="cls-7" d="M411.41,273.18a19.8,19.8,0,0,1-39.6,0" transform="translate(34.1 38.67)"/></g><g class="cls-9"><rect class="cls-10" width="673.21" height="673.21"/><rect class="cls-10" width="673.21" height="673.21"/></g></svg>