<?xml version="1.0" encoding="utf-8"?>
<!-- Generator: Adobe Illustrator 26.0.1, SVG Export Plug-In . SVG Version: 6.00 Build 0)  -->
<svg version="1.1" id="Layer_1" xmlns="http://www.w3.org/2000/svg" xmlns:xlink="http://www.w3.org/1999/xlink" x="0px" y="0px"
	 viewBox="0 0 578.8 574.3" style="enable-background:new 0 0 578.8 574.3;" xml:space="preserve">
<style type="text/css">
	.st0{fill:#ADD9DF;}
	.st1{fill-opacity:0;stroke:#5E6371;stroke-width:20.413;stroke-linejoin:round;}
	.st2{fill:#82C4CF;}
	.st3{fill-opacity:0;stroke:#5E6371;stroke-width:23.435;stroke-linecap:round;stroke-miterlimit:10;}
</style>
<g>
	<circle class="st0" cx="289.4" cy="287.2" r="281.7"/>
	<g>
		<g transform="matrix(1,0,0,1,723,452.982666015625)">
			<g transform="matrix(1,0,0,1,117.95899963378906,92.96800231933594)">
				<path class="st1" d="M-728-346.4c0,0,77.1-21.7,124.4,48.7c-74.3-41.1-132.9,13.4-132.9,13.4"/>
			</g>
		</g>
		<g transform="matrix(1,0,0,1,960,452.982666015625)">
			<g transform="matrix(1,0,0,1,118.09200286865234,92.96800231933594)">
				<path class="st1" d="M-612.2-346.4c0,0-77.1-21.7-124.4,48.7c74.3-41.1,132.9,13.4,132.9,13.4"/>
			</g>
		</g>
		<g transform="matrix(1,0,0,1,756,622.982666015625)">
			<g transform="matrix(1,0,0,1,58.29199981689453,13.583999633789062)">
				<path class="st2" d="M-611.9-326.2c0,7.2-26.1,13.1-58.2,13.1c-32.2,0-58.2-5.9-58.2-13.1c0-7.2,26.1-13.1,58.2-13.1
					C-637.9-339.3-611.9-333.4-611.9-326.2z"/>
			</g>
		</g>
		<g transform="matrix(1,0,0,1,1046,622.982666015625)">
			<g transform="matrix(1,0,0,1,58.757999420166016,13.583999633789062)">
				<path class="st2" d="M-611.9-326.2c0,7.2-26.1,13.1-58.2,13.1c-32.2,0-58.2-5.9-58.2-13.1c0-7.2,26.1-13.1,58.2-13.1
					C-637.9-339.3-611.9-333.4-611.9-326.2z"/>
			</g>
		</g>
		<g transform="matrix(1,0,0,1,852,580.982666015625)">
			<g transform="matrix(1,0,0,1,107.5250015258789,96.7760009765625)">
				<path class="st3" d="M-718.5-299.8c0-35.1,21.7-63.6,48.4-63.6c26.7,0,48.4,28.5,48.4,63.6
					C-621.7-299.8-718.5-299.8-718.5-299.8z"/>
			</g>
		</g>
	</g>
</g>
</svg>
