<svg width="456" height="302" viewBox="0 0 456 302" fill="none" xmlns="http://www.w3.org/2000/svg">
<path d="M113.879 132.313V200.16L46.0322 132.313L79.9558 98.3892L113.879 132.313Z" fill="#3C2743"/>
<path d="M113.881 200.158V234.082H62.9951V149.273L113.881 200.158Z" fill="#9B738F"/>
<path d="M181.728 132.313L113.881 200.16V132.313L147.804 98.3892L181.728 132.313Z" fill="#9B738F"/>
<path d="M164.766 149.273V234.082H113.881V200.158L164.766 149.273Z" fill="#3C2743"/>
<path d="M79.9569 234.082H62.9951V301.929H79.9569V234.082Z" fill="#EE8B89"/>
<path d="M46.0322 301.931L79.9558 268.008V301.931H46.0322Z" fill="#3C2743"/>
<path d="M164.765 234.082H147.803V301.929H164.765V234.082Z" fill="#EE8B89"/>
<path d="M79.9569 234.082L62.9951 251.044V234.082H79.9569Z" fill="#3C2743"/>
<path d="M164.765 251.044L147.803 234.082H164.765V251.044Z" fill="#9B738F"/>
<path d="M147.803 268.008L181.727 301.931H147.803V268.008Z" fill="#9B738F"/>
<path d="M63.0062 149.262L0.123048 217.076L0.123047 183.153L46.0443 132.3L63.0062 149.262Z" fill="#EE8B89"/>
<path d="M164.766 149.232L227.649 217.046L227.649 183.122L181.728 132.27L164.766 149.232Z" fill="#EE8B89"/>
<path d="M147.804 81.4261L113.881 115.35V47.5024L147.804 81.4261Z" fill="#9B738F"/>
<path d="M113.88 47.5024V115.35L79.9565 81.4261L113.88 47.5024Z" fill="#EE8B89"/>
<path d="M341.406 132.313V200.16L273.559 132.313L307.482 98.3892L341.406 132.313Z" fill="#F09682"/>
<path d="M341.406 200.158V234.082H290.521V149.273L341.406 200.158Z" fill="#F3B194"/>
<path d="M409.252 132.313L341.404 200.16V132.313L375.328 98.3892L409.252 132.313Z" fill="#F3B194"/>
<path d="M392.29 149.273V234.082H341.404V200.158L392.29 149.273Z" fill="#F09682"/>
<path d="M307.482 234.082H290.521V301.929H307.482V234.082Z" fill="#FCEFDF"/>
<path d="M273.559 301.931L307.482 268.008V301.931H273.559Z" fill="#F09682"/>
<path d="M392.291 234.082H375.329V301.929H392.291V234.082Z" fill="#FCEFDF"/>
<path d="M307.482 234.082L290.521 251.044V234.082H307.482Z" fill="#F09682"/>
<path d="M392.291 251.044L375.329 234.082H392.291V251.044Z" fill="#F3B194"/>
<path d="M375.329 268.008L409.253 301.931H375.329V268.008Z" fill="#F3B194"/>
<path d="M290.532 149.262L227.649 217.076L227.649 183.153L273.57 132.3L290.532 149.262Z" fill="#FCEFDF"/>
<path d="M392.292 149.232L455.175 217.046L455.175 183.122L409.254 132.27L392.292 149.232Z" fill="#FCEFDF"/>
<path d="M375.328 81.4261L341.404 115.35V47.5024L375.328 81.4261Z" fill="#F3B194"/>
<path d="M341.407 47.5024V115.35L307.483 81.4261L341.407 47.5024Z" fill="#FCEFDF"/>
<path d="M227.643 14.7055V58.3621L191.263 21.9816V7.42942L198.539 0.15332H213.091L227.643 14.7055Z" fill="#3C2743"/>
<path d="M264.023 7.42942V21.9816L227.643 58.3621V14.7055L242.195 0.15332H256.747L264.023 7.42942Z" fill="#F09682"/>
</svg>
