<svg id="Layer_1" data-name="Layer 1" xmlns="http://www.w3.org/2000/svg" viewBox="0 0 1116.5 1284.32"><defs><style>.cls-1{fill:#0f2046;}</style></defs><path class="cls-1" d="M413.81,1295H942.65c82.47,0,137.83-53.63,141.86-136.1l39.8-838.53h69.2c23.65,0,42.68-20.18,42.68-43.83s-19-43.25-42.68-43.25H930V145.1c0-83.63-54.21-134.38-143-134.38H567.79c-88.81,0-143,50.75-143,134.38v88.23H162.94c-23.07,0-43.25,19.61-43.25,43.25,0,24.23,20.18,43.83,43.25,43.83h69.21l39.79,839.11C276,1242,330.19,1295,413.81,1295ZM516.46,150.86c0-32.87,23.07-54.21,57.67-54.21H780.59c34.61,0,57.67,21.34,57.67,54.21v82.47H516.46ZM421.88,1208c-32.87,0-57.67-24.8-59.4-58.82L322.11,320.41h709.35L993.4,1149.14c-1.16,34.6-26,58.82-60,58.82Zm85.35-98.62c21.92,0,36.34-13.84,35.76-34L525.11,458.24c-.57-20.18-15-33.44-35.75-33.44-21.92,0-36.34,13.84-35.76,34l17.3,616.5C471.48,1096.08,485.9,1109.34,507.23,1109.34Zm170.71,0c21.91,0,37.48-13.84,37.48-34V458.82c0-20.18-15.57-34-37.48-34S641,438.64,641,458.82v616.5C641,1095.5,656,1109.34,677.94,1109.34Zm171.28,0c20.76,0,35.18-13.26,35.75-34l17.31-616.5c.57-20.18-13.84-34-35.76-34-20.76,0-35.18,13.26-35.75,34l-17.31,616.5C812.89,1095.5,827.31,1109.34,849.22,1109.34Z" transform="translate(-119.69 -10.72)"/></svg>