<svg id="Layer_1" data-name="Layer 1" xmlns="http://www.w3.org/2000/svg" viewBox="0 0 488.8 420.37"><defs><style>.cls-1{fill:#9ca0a8;}</style></defs><path class="cls-1" d="M5.19,442.41c0,10.91,7.27,18,18.18,18h452.2a18.19,18.19,0,1,0,0-36.38H48.15c-4.77,0-6.36-1.59-6.36-6.36V316.91l95.49-97.3c2-2.05,4.09-3.19,6.13-3.19s4.1,1.14,6.14,3.19l83.67,85.7c9.77,10.24,20,15,30.69,15,10.91,0,20.69-4.77,30.92-15l92.76-93.21,37.28,37.51c8.18,8.19,18.87,3.19,21.83-8.41L480.34,108c2.73-10.46-6.36-19.1-16.59-16.37L330.75,125c-11.6,3.18-16.6,13.64-8.41,21.82l37.51,37.52-89.58,90.71c-2,2-4.31,3.18-6.36,3.18-1.82,0-4.09-1.14-6.14-3.18l-83.66-85.71c-10-10.23-20-15-30.7-15s-20.23,4.55-30.69,15L41.79,261.21v-203a18.3,18.3,0,0,0-36.6,0Z" transform="translate(-5.19 -40)"/></svg>