<svg width="101" height="92" viewBox="0 0 101 92" fill="none" xmlns="http://www.w3.org/2000/svg">
<path d="M86.1316 14.8899L86.1316 89.2085L93.3608 89.2085L93.3608 14.8899L86.1316 14.8899Z" fill="#FCEFDF"/>
<path d="M100.59 89.208L100.59 14.8894L93.3608 14.8894L93.3608 89.208L100.59 89.208Z" fill="#F3B396"/>
<path d="M40.2974 33.1824L40.2974 89.2085L47.5266 89.2085L47.5266 33.1824L40.2974 33.1824Z" fill="#FCEFDF"/>
<path d="M54.7557 89.2078L54.7557 33.1816L47.5265 33.1816L47.5265 89.2078L54.7557 89.2078Z" fill="#F3B396"/>
<path d="M63.2145 42.5188L63.2145 89.2083L70.4437 89.2083L70.4437 42.5188L63.2145 42.5188Z" fill="#FCEFDF"/>
<path d="M77.6729 89.2078L77.6729 42.5183L70.4437 42.5183L70.4437 89.2078L77.6729 89.2078Z" fill="#F3B396"/>
<path d="M17.3805 89.2077L17.3805 62.0984L24.6097 62.0984L24.6097 89.2079L17.3805 89.2077Z" fill="#FCEFDF"/>
<path d="M2.82859 89.2076L2.82859 0.934326L5.75952 0.934326L5.75952 89.2081L2.82859 89.2076Z" fill="#9B738F"/>
<path d="M31.839 62.0984L31.839 89.2077L24.6098 89.2079L24.6098 62.0984L31.839 62.0984Z" fill="#F3B396"/>
<path d="M2.82918 89.0434L100.59 89.0434L100.59 91.9756L2.8287 91.9756L2.82918 89.0434Z" fill="#420062"/>
<rect x="0.18689" y="24.6636" width="8.11491" height="2.242" fill="#420062"/>
<rect x="0.18689" y="36.5281" width="8.11491" height="2.242" fill="#420062"/>
<rect x="0.0831299" y="12.7991" width="8.11491" height="2.242" fill="#420062"/>
<rect x="0.18689" y="0.934326" width="8.11491" height="2.242" fill="#420062"/>
<rect x="0.18689" y="48.3926" width="8.11491" height="2.242" fill="#420062"/>
<rect x="0.18689" y="60.2576" width="8.11491" height="2.242" fill="#420062"/>
<rect x="0.0831299" y="72.1221" width="8.11491" height="2.242" fill="#420062"/>
<rect x="0.0831299" y="83.9863" width="8.11491" height="2.242" fill="#420062"/>
</svg>
