<svg width="26" height="23" viewBox="0 0 26 23" fill="none" xmlns="http://www.w3.org/2000/svg">
<path d="M0.100323 21.5234C0.100323 22.0859 0.475323 22.4492 1.03782 22.4492H24.3464C24.862 22.4492 25.2956 22.0391 25.2956 21.5117C25.2956 20.9961 24.862 20.5742 24.3464 20.5742H2.31517C2.06907 20.5742 1.98704 20.4922 1.98704 20.2461V15.0547L6.90892 10.0391C7.01439 9.93359 7.11985 9.875 7.22532 9.875C7.33079 9.875 7.43626 9.93359 7.54173 10.0391L11.8542 14.457C12.3581 14.9844 12.8855 15.2305 13.4363 15.2305C13.9988 15.2305 14.5027 14.9844 15.03 14.457L19.8113 9.65234L21.7331 11.5859C22.155 12.0078 22.7058 11.75 22.8581 11.1523L24.5925 4.28516C24.7331 3.74609 24.2644 3.30078 23.737 3.44141L16.8816 5.16406C16.2839 5.32812 16.0261 5.86719 16.448 6.28906L18.3816 8.22266L13.7644 12.8984C13.6589 13.0039 13.5417 13.0625 13.4363 13.0625C13.3425 13.0625 13.2253 13.0039 13.1199 12.8984L8.80735 8.48047C8.29173 7.95312 7.7761 7.70703 7.22532 7.70703C6.67454 7.70703 6.18235 7.94141 5.64329 8.48047L1.98704 12.1836V1.71875C1.98704 1.21484 1.56517 0.78125 1.04954 0.78125C0.522198 0.78125 0.100323 1.21484 0.100323 1.71875V21.5234Z" fill="#E8924F"/>
</svg>
