<svg width="225" height="209" viewBox="0 0 225 209" fill="none" xmlns="http://www.w3.org/2000/svg">
<path d="M188.057 206H189.114V202.097H193.767V206H194.824V197.273H193.767V201.159H189.114V197.273H188.057V206ZM198.729 206.153C199.871 206.153 200.468 205.54 200.673 205.114H200.724V206H201.729V201.688C201.729 199.608 200.144 199.369 199.309 199.369C198.32 199.369 197.195 199.71 196.684 200.903L197.638 201.244C197.86 200.767 198.384 200.256 199.343 200.256C200.268 200.256 200.724 200.746 200.724 201.585V201.619C200.724 202.105 200.229 202.062 199.036 202.216C197.822 202.374 196.496 202.642 196.496 204.142C196.496 205.42 197.485 206.153 198.729 206.153ZM198.883 205.25C198.082 205.25 197.502 204.892 197.502 204.193C197.502 203.426 198.201 203.188 198.985 203.085C199.411 203.034 200.553 202.915 200.724 202.71V203.631C200.724 204.449 200.076 205.25 198.883 205.25ZM203.565 208.455H204.571V204.994H204.656C204.877 205.352 205.304 206.136 206.565 206.136C208.201 206.136 209.343 204.824 209.343 202.744C209.343 200.682 208.201 199.369 206.548 199.369C205.27 199.369 204.877 200.153 204.656 200.494H204.537V199.455H203.565V208.455ZM204.554 202.727C204.554 201.261 205.201 200.273 206.429 200.273C207.707 200.273 208.338 201.347 208.338 202.727C208.338 204.125 207.69 205.233 206.429 205.233C205.218 205.233 204.554 204.21 204.554 202.727ZM210.877 208.455H211.883V204.994H211.968C212.19 205.352 212.616 206.136 213.877 206.136C215.514 206.136 216.656 204.824 216.656 202.744C216.656 200.682 215.514 199.369 213.86 199.369C212.582 199.369 212.19 200.153 211.968 200.494H211.849V199.455H210.877V208.455ZM211.866 202.727C211.866 201.261 212.514 200.273 213.741 200.273C215.02 200.273 215.65 201.347 215.65 202.727C215.65 204.125 215.002 205.233 213.741 205.233C212.531 205.233 211.866 204.21 211.866 202.727ZM218.603 208.455C219.511 208.455 220.15 207.973 220.529 206.955L223.316 199.472L222.217 199.455L220.41 204.67H220.342L218.535 199.455H217.444L219.865 206.034L219.677 206.545C219.311 207.543 218.859 207.636 218.126 207.449L217.87 208.335C217.973 208.386 218.262 208.455 218.603 208.455Z" fill="#C4C4C4"/>
<line y1="189.507" x2="224" y2="189.507" stroke="#E8E8E8"/>
<line x1="224.5" y1="-2.16649e-08" x2="224.5" y2="190.006" stroke="#E8E8E8"/>
<rect x="148.816" y="103.5" width="11.6263" height="86.507" fill="#FCEEB5"/>
<rect x="6.20068" width="11.6263" height="190.006" fill="#F2BD70"/>
<rect x="24.0278" y="28.5781" width="11.6263" height="161.428" fill="#F2BD70"/>
<rect x="41.8545" y="16.2197" width="11.6263" height="173.786" fill="#F2BD70"/>
<rect x="59.6816" y="33.2129" width="11.6263" height="156.794" fill="#F2BD70"/>
<rect x="77.5088" y="46.3428" width="11.6263" height="143.663" fill="#F2BD70"/>
<rect x="95.3354" y="60.2461" width="11.6263" height="129.76" fill="#F2BD70"/>
<rect x="113.163" y="48.6602" width="11.6263" height="141.346" fill="#F2BD70"/>
<rect x="130.99" y="82.6455" width="11.6263" height="107.361" fill="#F2BD70"/>
<line x1="0.5" y1="-0.5" x2="74.6873" y2="-0.5" transform="matrix(0.999947 0.0102728 -0.0103448 0.999947 148.816 103.5)" stroke="#FCEEB5" stroke-linecap="round" stroke-dasharray="2.5 2.5"/>
</svg>
