<svg id="Layer_1" data-name="Layer 1" xmlns="http://www.w3.org/2000/svg" viewBox="0 0 1391.92 1297.56"><defs><style>.cls-1{fill:#0f2046;}</style></defs><path class="cls-1" d="M340.46,1301.91h625c94.35,0,141.2-46.84,141.2-149.9V673.54c0-87-34.13-133.84-102.39-145.88V360.36c0-174.66,111.09-277.71,252.29-277.71s251.61,103,251.61,277.71V506.91c0,30.12,18.74,46.18,42.16,46.18,22.08,0,40.82-14.72,40.82-46.18V368.39c0-235.55-153.25-364-334.59-364-182,0-335.27,128.49-335.27,364V525H340.46c-94.35,0-141.2,46.18-141.2,148.56V1152C199.26,1255.07,246.11,1301.91,340.46,1301.91Zm2-77.62c-40.82,0-60.23-16.73-60.23-66.92V668.86c0-50.86,19.41-66.92,60.23-66.92H964.15c40.82,0,59.56,16.06,59.56,66.92v488.51c0,50.19-18.74,66.92-59.56,66.92Z" transform="translate(-199.26 -4.35)"/></svg>