<svg width="79" height="73" viewBox="0 0 79 73" fill="none" xmlns="http://www.w3.org/2000/svg">
<path d="M15.1992 72.5117C19.5586 72.5117 28.4531 68.4336 35.4141 63.7578C58.9336 65.1992 78.7617 51.4883 78.7617 32.3281C78.7617 14.8555 61.3594 0.722656 39.5273 0.722656C17.6953 0.722656 0.292969 14.8555 0.292969 32.3281C0.292969 43.7891 7.64062 53.8789 18.75 59.1523C17.168 62.1758 14.4258 65.7969 12.8789 67.7305C11.1211 70.0156 12.0352 72.5117 15.1992 72.5117ZM17.7656 68.0469C17.4844 68.1172 17.3789 67.9414 17.5898 67.6953C19.418 65.4805 22.2305 61.9648 23.5312 59.3633C24.3047 57.957 24.0586 56.6914 22.4062 55.918C11.3672 50.8203 4.79297 42.207 4.79297 32.3281C4.79297 17.3516 20.1914 5.1875 39.5273 5.1875C58.8633 5.1875 74.2969 17.3516 74.2969 32.3281C74.2969 47.3398 58.8633 59.5039 39.5273 59.5039C38.4023 59.5039 37.0312 59.4336 35.4492 59.3281C34.2891 59.3281 33.3047 59.6445 32.2852 60.4531C27.293 63.6523 20.8594 67.168 17.7656 68.0469Z" fill="white"/>
</svg>
