<svg width="71" height="65" viewBox="0 0 71 65" fill="none" xmlns="http://www.w3.org/2000/svg">
<path d="M11.3359 64.0535H60.2383C67.0938 64.0535 70.6094 60.5378 70.6094 53.7878V10.6863C70.6094 3.90112 67.0938 0.385498 60.2383 0.385498H11.3359C4.48047 0.385498 0.964844 3.86597 0.964844 10.6863V53.7878C0.964844 60.573 4.48047 64.0535 11.3359 64.0535ZM11.0195 59.6941C7.32812 59.6941 5.32422 57.7605 5.32422 53.9636V21.7957C5.32422 17.9988 7.32812 16.03 11.0195 16.03H60.5195C64.1406 16.03 66.25 17.9988 66.25 21.7957V53.9636C66.25 57.7605 64.1406 59.6941 60.5195 59.6941H11.0195ZM16.6445 28.7917H55C55.9844 28.7917 56.7227 28.0183 56.7227 27.0339C56.7227 26.0847 55.9844 25.3113 55 25.3113H16.6445C15.625 25.3113 14.8516 26.0847 14.8516 27.0339C14.8516 28.0183 15.625 28.7917 16.6445 28.7917ZM16.6445 39.6199H55C55.9844 39.6199 56.7227 38.8464 56.7227 37.8972C56.7227 36.9128 55.9844 36.1394 55 36.1394H16.6445C15.625 36.1394 14.8516 36.9128 14.8516 37.8972C14.8516 38.8464 15.625 39.6199 16.6445 39.6199ZM16.6445 50.448H41.5352C42.5195 50.448 43.293 49.6746 43.293 48.7253C43.293 47.741 42.5195 46.9675 41.5352 46.9675H16.6445C15.625 46.9675 14.8516 47.741 14.8516 48.7253C14.8516 49.6746 15.625 50.448 16.6445 50.448Z" fill="white"/>
</svg>
