<svg width="49" height="70" viewBox="0 0 49 70" fill="none" xmlns="http://www.w3.org/2000/svg">
<path d="M7.76172 69.1562H40.5977C45.5547 69.1562 48.0156 66.6953 48.0156 61.2812V36.1445C48.0156 31.1875 45.9414 28.7617 41.7578 28.375V20.1133C41.7578 7.73828 33.707 0.988281 24.1797 0.988281C14.6523 0.988281 6.60156 7.73828 6.60156 20.1133V28.375C2.41797 28.7617 0.34375 31.1875 0.34375 36.1445V61.2812C0.34375 66.6953 2.80469 69.1562 7.76172 69.1562ZM10.9258 19.6914C10.9258 10.5156 16.7266 5.10156 24.1797 5.10156C31.5977 5.10156 37.4336 10.5156 37.4336 19.6914V28.3398H10.9258V19.6914ZM7.86719 65.0781C5.72266 65.0781 4.70312 64.1992 4.70312 61.5625V35.8984C4.70312 33.2266 5.72266 32.3828 7.86719 32.3828H40.5273C42.6719 32.3828 43.6562 33.2266 43.6562 35.8984V61.5625C43.6562 64.1992 42.6719 65.0781 40.5273 65.0781H7.86719Z" fill="white"/>
</svg>
