<svg width="49" height="69" viewBox="0 0 49 69" fill="#420062" xmlns="http://www.w3.org/2000/svg">
<path d="M7.76172 68.4658H40.5977C45.5547 68.4658 48.0156 66.0049 48.0156 60.5908V35.4541C48.0156 30.4971 45.9414 28.0713 41.7578 27.6846V19.4229C41.7578 7.04785 33.707 0.297852 24.1797 0.297852C14.6523 0.297852 6.60156 7.04785 6.60156 19.4229V27.6846C2.41797 28.0713 0.34375 30.4971 0.34375 35.4541V60.5908C0.34375 66.0049 2.80469 68.4658 7.76172 68.4658ZM10.9258 19.001C10.9258 9.8252 16.7266 4.41113 24.1797 4.41113C31.5977 4.41113 37.4336 9.8252 37.4336 19.001V27.6494H10.9258V19.001ZM7.86719 64.3877C5.72266 64.3877 4.70312 63.5088 4.70312 60.8721V35.208C4.70312 32.5361 5.72266 31.6924 7.86719 31.6924H40.5273C42.6719 31.6924 43.6562 32.5361 43.6562 35.208V60.8721C43.6562 63.5088 42.6719 64.3877 40.5273 64.3877H7.86719Z" fill="#420062"/>
</svg>
