<svg id="Layer_1" data-name="Layer 1" xmlns="http://www.w3.org/2000/svg" viewBox="0 0 487.67 487.67"><defs><style>.cls-1{fill:#9ca0a8;}</style></defs><path class="cls-1" d="M249.58,493.67q50,0,93.95-19.12A250.39,250.39,0,0,0,474.29,344a234.77,234.77,0,0,0,19.13-94.19q0-50-19.13-94A249.78,249.78,0,0,0,343.53,25.12,234.73,234.73,0,0,0,249.34,6a234.68,234.68,0,0,0-94.18,19.12A248.87,248.87,0,0,0,24.87,155.89q-19.13,44-19.13,94A234.77,234.77,0,0,0,24.87,344,251.06,251.06,0,0,0,155.39,474.55,234.76,234.76,0,0,0,249.58,493.67Zm0-40.64q-42.32,0-79.13-15.77A202.44,202.44,0,0,1,62.16,329q-15.54-36.83-15.54-79.13t15.54-79.13a206.77,206.77,0,0,1,43.51-64.78,198.77,198.77,0,0,1,64.55-43.51Q207,46.64,249.34,46.64t79.13,15.78a201.62,201.62,0,0,1,64.79,43.51A204.9,204.9,0,0,1,437,170.71q15.78,36.81,15.78,79.13T437,329A202.44,202.44,0,0,1,328.71,437.26Q291.9,453,249.58,453Z" transform="translate(-5.74 -6)"/></svg>